<!-- Generated by IcoMoon.io -->
<svg version="1.1" xmlns="http://www.w3.org/2000/svg" width="32" height="32" viewBox="0 0 32 32">
<path d="M25.161 12.554q1.804-1.679 1.804-4.089 0-3.214-2.75-5.080t-10.304-1.866h-1.589l-11.179 0.321v2.357q2.375 0 3.089 0.75t0.714 2.786v16.911q0 2.107-0.75 2.813t-3.054 0.705v2.357h15.268q6.375 0 9.116-2.018t2.741-5.518q0-3.125-2.143-5.071t-6.429-2.714q3.643-0.964 5.464-2.643zM12.554 4.036q2.321 0 3.518 0.339t1.929 1.509 0.732 3.188q0 2.696-1.161 3.795t-3.536 1.098h-1.482v-9.929zM13.964 16.554q2.268 0 3.429 0.446t1.821 1.732 0.661 3.571q0 2.839-1.018 4.268t-3.054 1.429q-1.304 0-2.027-0.42t-0.973-1.036-0.25-1.795v-8.196h1.411z"></path>
</svg>
