<!-- Generated by IcoMoon.io -->
<svg version="1.1" xmlns="http://www.w3.org/2000/svg" width="32" height="32" viewBox="0 0 32 32">
<path d="M2.589 24.357l0.482-0.321q0.607-0.411 0.893-0.643 0.482-0.375 0.732-0.768 0.286-0.482 0.286-1.018 0-0.804-0.473-1.268t-1.223-0.464q-0.946 0-1.411 0.839-0.393 0.696-0.393 1.732h-2.214q-0.036-1.286 0.429-2.321t1.393-1.607q0.964-0.607 2.304-0.607 1.036 0 1.929 0.429t1.411 1.196q0.554 0.821 0.554 1.893 0 0.982-0.429 1.768-0.339 0.643-1.054 1.232-0.429 0.339-1.393 0.964-0.893 0.571-1.321 0.893-0.696 0.554-1.107 1.125h5.375v1.964h-8.357q0-1.214 0.5-2.161 0.411-0.786 1.268-1.518 0.518-0.464 1.768-1.304zM2.732 6.018h-2.857v-1.714q1.321 0.036 2.161-0.464 0.982-0.571 1.161-1.768h1.839v11.232h-2.304v-7.286zM32.839 2.821h-23.804v5.321h23.804v-5.321zM9.054 13.393v5.268h23.821v-5.268h-23.821zM9.036 29.179h23.804v-5.268h-23.804v5.268z"></path>
</svg>
