<!-- Generated by IcoMoon.io -->
<svg version="1.1" xmlns="http://www.w3.org/2000/svg" width="32" height="32" viewBox="0 0 32 32">
<path d="M28.393 4.589q-0.929 0.464-1.286 1.321t-0.357 2.375v8.875q0 2.857-0.366 4.67t-1.732 3.482-3.795 2.688-5.393 1.018q-3.107 0-5.563-1.009t-3.759-2.545-1.768-3.348-0.464-4.295v-10.464q0-1.893-0.652-2.571t-2.848-0.679v-2.179h14.143v2.179h-0.446q-2 0-2.589 0.723t-0.589 2.527v10.464q0 2.857 0.473 4.5t2.071 2.804 3.83 1.161q2.429 0 4.161-1.232t2.241-3.009 0.509-4.938v-8.929q0-4.071-3.964-4.071v-2.179h9.929v2.179q-0.857 0-1.786 0.482zM29.161 32.714h-26.964v-2.232h26.964v2.232z"></path>
</svg>
