<!-- Generated by IcoMoon.io -->
<svg version="1.1" xmlns="http://www.w3.org/2000/svg" width="1024" height="1024" viewBox="0 0 1024 1024">
<g id="icomoon-ignore">
</g>
<path d="M0 887.467c0-170.667 136.585-273.067 273.067-273.067h204.8c136.533 0 273.067 102.4 273.067 273.067 0 34.133-34.133 68.267-68.267 68.267h-614.4c-34.133 0-68.267-34.133-68.267-68.267zM273.067 750.933c-102.4 0-122.933 68.267-122.933 68.267h450.613c0 0-20.48-68.267-122.88-68.267h-204.8zM136.533 307.2c0-131.959 106.974-238.933 238.933-238.933s238.933 106.974 238.933 238.933c0 131.959-106.974 238.933-238.933 238.933s-238.933-106.974-238.933-238.933zM375.467 204.8c-56.554 0-102.4 45.846-102.4 102.4s45.846 102.4 102.4 102.4c56.554 0 102.4-45.846 102.4-102.4s-45.846-102.4-102.4-102.4zM682.667 477.867c0 0-68.267 0-68.267 68.267s68.267 68.267 68.267 68.267h68.267v68.267c0 0 0 68.267 68.267 68.267s68.267-68.267 68.267-68.267v-68.267h68.267c0 0 68.267 0 68.267-68.267s-68.267-68.267-68.267-68.267h-68.267v-68.267c0 0 0-68.267-68.267-68.267s-68.267 68.267-68.267 68.267v68.267h-68.267z"></path>
</svg>
