<svg width="32" height="32" viewBox="0 0 32 32" fill="none" xmlns="http://www.w3.org/2000/svg">
  <path d="M13.1039 6.66667L10.4373 9.33333H5.33268V25.3333H26.666V9.33333H21.5615L18.8948 6.66667H13.1039ZM11.9993 4H19.9993L22.666 6.66667H27.9993C28.7358 6.66667 29.3327 7.26363 29.3327 8V26.6667C29.3327 27.4031 28.7358 28 27.9993 28H3.99935C3.26298 28 2.66602 27.4031 2.66602 26.6667V8C2.66602 7.26363 3.26298 6.66667 3.99935 6.66667H9.33268L11.9993 4ZM15.9993 24C11.9493 24 8.66602 20.7168 8.66602 16.6667C8.66602 12.6166 11.9493 9.33333 15.9993 9.33333C20.0495 9.33333 23.3327 12.6166 23.3327 16.6667C23.3327 20.7168 20.0495 24 15.9993 24ZM15.9993 21.3333C18.5767 21.3333 20.666 19.244 20.666 16.6667C20.666 14.0893 18.5767 12 15.9993 12C13.422 12 11.3327 14.0893 11.3327 16.6667C11.3327 19.244 13.422 21.3333 15.9993 21.3333Z" fill="#737899" />
</svg>