<!-- Generated by IcoMoon.io -->
<svg version="1.1" xmlns="http://www.w3.org/2000/svg" width="1024" height="1024" viewBox="0 0 1024 1024">
<g id="icomoon-ignore">
</g>
<path d="M609.72 512l298.047-297.34c12.593-12.593 20.388-29.983 20.388-49.213 0-38.441-31.161-69.601-69.601-69.601-19.21 0-36.621 7.795-49.213 20.388v0l-297.34 298.047-297.34-298.047c-12.593-12.593-29.983-20.388-49.213-20.388-38.441 0-69.601 31.161-69.601 69.601 0 19.21 7.795 36.621 20.388 49.213v0l298.047 297.34-298.047 297.34c-12.655 12.553-20.501 29.97-20.501 49.213s7.846 36.64 20.498 49.211l0.003 0.003c12.553 12.655 29.97 20.501 49.213 20.501s36.64-7.846 49.211-20.498l0.003-0.003 297.34-298.047 297.34 298.047c12.553 12.655 29.97 20.501 49.213 20.501s36.64-7.846 49.211-20.498l0.003-0.003c12.655-12.553 20.501-29.97 20.501-49.213s-7.846-36.64-20.498-49.211l-0.003-0.003z"></path>
</svg>
