<svg width="36" height="36" viewBox="0 0 36 36">
  <g>
    <path
      d="M14.345 23.194l1.896-1.896 2.936-2.936.832-.804-.207.162c.182-.138.379-.256.589-.346l-.246.103c.228-.094.466-.162.712-.195l-.272.036a2.85 2.85 0 0 1 .699 0l-.272-.036a2.73 2.73 0 0 1 .712.195l-.246-.103a2.83 2.83 0 0 1 .589.346l-.207-.162c.176.138.333.295.471.471l-.162-.207c.138.182.256.379.346.589l-.102-.246c.094.228.162.466.195.712l-.036-.272a2.85 2.85 0 0 1 0 .699l.036-.272a2.73 2.73 0 0 1-.195.712l.102-.246a2.83 2.83 0 0 1-.346.589l.162-.207c-.217.277-.49.518-.738.769l-1.412 1.412-3.118 3.118-1.071 1.007.207-.162c-.368.275-.765.505-1.185.685l.246-.102a5.58 5.58 0 0 1-1.394.381l.272-.036a5.69 5.69 0 0 1-1.471 0l.272.036a5.61 5.61 0 0 1-1.394-.381l.246.102c-.422-.179-.818-.41-1.184-.689l.207.162a5.56 5.56 0 0 1-.996-.996l.162.207a5.33 5.33 0 0 1-.693-1.185l.102.246c-.187-.446-.316-.915-.381-1.394l.036.272c-.064-.49-.064-.984 0-1.471l-.036.272a5.61 5.61 0 0 1 .381-1.394l-.102.246a5.49 5.49 0 0 1 .689-1.184l-.162.207c.369-.477.825-.892 1.25-1.314l2.257-2.257 2.782-2.782 2.373-2.373.999-.999c.166-.166.343-.32.531-.466l-.207.162a5.42 5.42 0 0 1 1.184-.689l-.246.102c.446-.187.915-.316 1.394-.381l-.272.036c.49-.064.984-.064 1.471 0l-.272-.036a5.61 5.61 0 0 1 1.394.381l-.246-.102a5.49 5.49 0 0 1 1.184.689l-.207-.162c.374.289.707.623.996.996l-.162-.207a5.42 5.42 0 0 1 .689 1.184l-.102-.246a5.58 5.58 0 0 1 .381 1.394l-.036-.272c.064.49.064.984 0 1.471l.036-.272a5.61 5.61 0 0 1-.381 1.394l.102-.246c-.179.422-.41.818-.689 1.184l.162-.207c-.143.187-.299.364-.466.531"
      stroke="currentColor" stroke-width="2" stroke-linecap="round" fill="none"></path>
  </g>
</svg>