<svg width="20" height="20" viewBox="0 0 20 20" fill="none" xmlns="http://www.w3.org/2000/svg">
<path d="M10.8313 16.6667H15.8313V13.3333H12.498V11.6667H15.8313V5H14.1647V9.16667L10.8313 7.83333V16.6667ZM9.16467 16.6667V7.83333L5.83138 9.16667V5H4.16471V16.6667H9.16467ZM5.83138 3.33333V2.5H14.1647V3.33333H16.6647C17.1249 3.33333 17.498 3.70643 17.498 4.16667V17.5C17.498 17.9602 17.1249 18.3333 16.6647 18.3333H3.33138C2.87114 18.3333 2.49805 17.9602 2.49805 17.5V4.16667C2.49805 3.70643 2.87114 3.33333 3.33138 3.33333H5.83138ZM9.99801 6.66667L12.9147 4.16667H7.08138L9.99801 6.66667Z" fill="black"/>
</svg>
