<svg xmlns="http://www.w3.org/2000/svg" width="30" height="30" fill="none"><path d="M15 2C7.82 2 2 7.82 2 15s5.82 13 13 13 13-5.82 13-13S22.18 2 15 2z" opacity="0.7" stroke="#fff" stroke-width="2.5"/><circle cx="15" cy="15" r="10" fill="#fff" opacity="0.7" mask="url(#B)"/><path d="M4 17l22 1v8H4v-9z" fill="#fff" opacity="0.7" mask="url(#A)"/><defs><mask id="A"><path fill="#000" d="M0 0h30v30H0z"/><circle cx="15" cy="15" r="10" fill="#fff" mask="url(#B)"/></mask><mask id="B"><path fill="#fff" d="M0 0h30v30H0z"/><path d="M15 9a3 3 0 0 1 3 3v.5M15 9a3 3 0 1 0 0 6c1.657 0 3 .843 3 2.5a3 3 0 0 1-3 3M15 9V7.5m0 13a3 3 0 0 1-3-3V17m3 3.5V22" stroke="#000" stroke-width="1.7" stroke-linecap="round"/></mask></defs></svg>
