<svg xmlns="http://www.w3.org/2000/svg" width="30" height="30" fill="none"><use href="#A" fill="#907ad6"/><use href="#A" mask="url(#B)" fill="#dabfff"/><path d="M15 8V22M8 15H22" stroke="#fff" stroke-width="2.5" stroke-linecap="round"/><g fill="#fff"><circle cx="10" cy="10" r="1"/><circle cx="20" cy="10" r="1"/><circle cx="10" cy="19" r="1"/><circle cx="20" cy="19" r="1"/></g><defs><path d="M1.346 16.391a2 2 0 0 1 0-2.782L13.563.985a2 2 0 0 1 2.874 0l12.217 12.624a2 2 0 0 1 0 2.782L16.437 29.015a2 2 0 0 1-2.874 0L1.346 16.391z" id="A"/><mask id="B"><path d="M16 8L8 1-6 15 8 29l8-8V8z" fill="#dabfff"/></mask></defs></svg>
