<!-- Generated by IcoMoon.io -->
<svg version="1.1" xmlns="http://www.w3.org/2000/svg" width="1024" height="1024" viewBox="0 0 1024 1024">
<g id="icomoon-ignore">
</g>
<path d="M68.266 273.067c0-102.4 102.4-170.667 170.667-170.667h546.133c68.267 0 170.667 68.267 170.667 170.667v341.333c0 102.4-102.4 170.667-170.667 170.667h-238.933c0 0-102.4 136.533-204.8 136.533-96.877 0.020-163.202-61.078-170.076-154.399-53.256-26.651-102.991-81.435-102.991-152.801v-341.333zM238.932 238.934c0 0-34.133 0-34.133 34.133v341.333c0 34.133 34.133 34.133 34.133 34.133h68.267v102.4c0 34.133 34.133 34.133 34.133 34.133 34.133 0 136.533-136.533 170.667-136.533h273.067c0 0 34.133 0 34.133-34.133v-341.333c0-34.133-34.133-34.133-34.133-34.133h-546.133zM365.499 377.803c28.882-24.235 71.941-20.467 96.176 8.415l26.302 33.64 73.908-88.269c24.235-28.882 67.295-32.649 96.176-8.414 28.885 24.235 32.646 67.295 8.415 96.176l-79.383 92.649c0 0-40.96 68.284-99.115 68.284-51.2 0-78.38-44.399-78.38-44.399l-52.513-61.905c-24.235-28.882-20.468-71.941 8.415-96.177z"></path>
</svg>
