<!-- Generated by IcoMoon.io -->
<svg version="1.1" xmlns="http://www.w3.org/2000/svg" width="1024" height="1024" viewBox="0 0 1024 1024">
<g id="icomoon-ignore">
</g>
<path d="M887.467 614.4c37.703 0 68.267 30.564 68.267 68.267v0 204.8c0 37.703-30.564 68.267-68.267 68.267v0h-750.933c-37.703 0-68.267-30.564-68.267-68.267v0-204.8c0-37.703 30.564-68.267 68.267-68.267s68.267 30.564 68.267 68.267v0 136.533h614.4v-136.533c0-37.703 30.564-68.267 68.267-68.267v0zM757.76 354.987c16.655 12.587 27.307 32.356 27.307 54.613 0 15.445-5.129 29.693-13.778 41.132l0.124-0.172-204.8 273.067c-12.587 16.655-32.356 27.307-54.613 27.307s-42.027-10.651-54.489-27.135l-0.124-0.172-204.8-273.067c-8.524-11.267-13.653-25.515-13.653-40.96 0-37.703 30.564-68.267 68.267-68.267 22.257 0 42.027 10.651 54.489 27.135l0.124 0.172 81.92 109.227v-307.2c0-37.703 30.564-68.267 68.267-68.267s68.267 30.564 68.267 68.267v0 307.2l81.92-109.227c12.587-16.655 32.356-27.307 54.613-27.307 15.445 0 29.693 5.129 41.132 13.778l-0.172-0.124z"></path>
</svg>
