<!-- Generated by IcoMoon.io -->
<svg version="1.1" xmlns="http://www.w3.org/2000/svg" width="1024" height="1024" viewBox="0 0 1024 1024">
<g id="icomoon-ignore">
</g>
<path d="M137.284 580.267c-34.543 0-69.018-34.133-69.018-68.267s34.475-68.267 69.018-68.267h313.276l-111.070-89.975c-26.419-22.187-30.925-70.519-8.943-96.666s70.315-30.106 96.734-7.919l255.386 210.739c16.043 13.107 27.307 32.631 27.307 52.087s-11.264 38.98-27.307 52.087l-255.386 212.924c-26.419 22.187-74.82 18.227-96.734-7.919s-17.476-74.479 8.943-96.666l111.070-92.16h-313.276zM546.133 68.267h341.333c36.565 2.701 65.566 31.702 68.252 68.023l0.014 0.243v750.933c-2.701 36.565-31.702 65.566-68.023 68.252l-0.243 0.014h-341.333c-37.703 0-68.267-30.564-68.267-68.267s30.564-68.267 68.267-68.267v0h273.067v-614.4h-273.067c-37.703 0-68.267-30.564-68.267-68.267s30.564-68.267 68.267-68.267v0z"></path>
</svg>
