<!-- Generated by IcoMoon.io -->
<svg version="1.1" xmlns="http://www.w3.org/2000/svg" width="1024" height="1024" viewBox="0 0 1024 1024">
<path d="M369.664 136.533c-186.846 0-301.397 157.628-301.397 294.639 0 116.736 60.416 214.699 120.491 285.696 61.781 73.045 138.513 135.509 202.138 182.955 71.885 53.589 170.325 53.589 242.21 0 63.625-47.514 140.425-109.978 202.138-182.955 60.075-70.997 120.491-168.96 120.491-285.696 0-136.943-114.483-294.639-301.397-294.639-57.481 0-105.677 19.797-142.336 42.394-36.659-22.596-84.924-42.394-142.336-42.394zM204.8 431.172c0-71.202 62.737-158.106 164.864-158.106 57.071 0 105.745 44.237 142.336 86.221 36.523-41.984 85.333-86.221 142.336-86.221 102.195 0 164.864 86.835 164.864 158.106 0 138.65-145.886 268.356-267.742 359.219-23.415 17.476-55.501 17.476-78.916 0-121.856-90.863-267.742-220.57-267.742-359.219z"></path>
</svg>
