<!-- Generated by IcoMoon.io -->
<svg version="1.1" xmlns="http://www.w3.org/2000/svg" width="1024" height="1024" viewBox="0 0 1024 1024">
<g id="icomoon-ignore">
</g>
<path d="M200.832 200.832c-18.432 18.432-30.165 54.869-30.165 140.501 0 23.564-19.103 42.667-42.667 42.667s-42.667-19.103-42.667-42.667v0c0-85.035 9.6-155.264 55.168-200.832s115.797-55.168 200.832-55.168c23.564 0 42.667 19.103 42.667 42.667s-19.103 42.667-42.667 42.667v0c-85.632 0-122.069 11.733-140.501 30.165zM640 128c0-23.564 19.103-42.667 42.667-42.667v0c85.035 0 155.264 9.6 200.832 55.168s55.168 115.797 55.168 200.832c0 23.564-19.103 42.667-42.667 42.667s-42.667-19.103-42.667-42.667v0c0-85.632-11.733-122.069-30.165-140.501s-54.869-30.165-140.501-30.165c-23.564 0-42.667-19.103-42.667-42.667v0zM512 320c23.564 0 42.667 19.103 42.667 42.667v0 225.963l99.925-87.424c7.514-6.745 17.5-10.87 28.45-10.87 23.564 0 42.667 19.103 42.667 42.667 0 12.945-5.765 24.544-14.868 32.369l-0.056 0.047-156.117 138.581c-16.085 14.080-69.248 14.080-85.333 0l-156.075-138.539c-9.159-7.872-14.925-19.471-14.925-32.416 0-23.564 19.103-42.667 42.667-42.667 10.95 0 20.936 4.125 28.49 10.905l99.843 87.346v-225.963c0-23.564 19.103-42.667 42.667-42.667v0zM128 640c23.564 0 42.667 19.103 42.667 42.667v0c0 85.632 11.733 122.069 30.165 140.501s54.869 30.165 140.501 30.165c23.564 0 42.667 19.103 42.667 42.667s-19.103 42.667-42.667 42.667v0c-85.035 0-155.264-9.6-200.832-55.168s-55.168-115.797-55.168-200.832c0-23.564 19.103-42.667 42.667-42.667v0zM896 640c23.564 0 42.667 19.103 42.667 42.667v0c0 85.035-9.6 155.264-55.168 200.832s-115.797 55.168-200.832 55.168c-23.564 0-42.667-19.103-42.667-42.667s19.103-42.667 42.667-42.667v0c85.632 0 122.069-11.733 140.501-30.165s30.165-54.869 30.165-140.501c0-23.564 19.103-42.667 42.667-42.667v0z"></path>
</svg>
