<svg xmlns="http://www.w3.org/2000/svg" width="63" height="12" viewBox="0 0 63 12" fill="none">
<mask id="mask0_1550_31" style="mask-type:luminance" maskUnits="userSpaceOnUse" x="0" y="0" width="12" height="12">
<path d="M12 0H0V12H12V0Z" fill="white"/>
</mask>
<g mask="url(#mask0_1550_31)">
<path fill-rule="evenodd" clip-rule="evenodd" d="M3.48745 5.46123C3.00038 5.46123 2.60539 5.85926 2.60539 6.35019C2.60539 6.84103 3.00038 7.23898 3.48745 7.23898C3.97452 7.23898 4.36952 6.84103 4.36952 6.35019C4.36952 5.85926 3.97452 5.46123 3.48745 5.46123ZM11.5535 3.74859C11.833 4.44373 11.9873 5.2037 11.9873 5.99996C11.9873 9.31359 9.32157 12 6.03338 12C2.74508 12 0.0793898 9.31368 0.0793898 5.99996C0.0793898 5.19819 0.235784 4.43345 0.519014 3.73434C0.796795 3.68208 1.0836 3.65443 1.37527 3.65443C1.39793 3.65443 1.4205 3.65495 1.44307 3.6552C1.0882 4.35937 0.887939 5.15604 0.887939 5.99988C0.887939 8.86353 3.19161 11.185 6.03338 11.185C8.87504 11.185 11.1787 8.86353 11.1787 5.99988C11.1787 5.1557 10.9784 4.35866 10.6233 3.65435H10.6247C10.9418 3.65435 11.2532 3.68705 11.5535 3.74859ZM0 3.11165C0.505557 2.03332 1.2894 1.12005 2.26082 0.456419C2.48434 0.592561 2.70044 0.740036 2.90845 0.897641C3.81259 0.328771 4.88087 0 6.02528 0C7.15804 0 8.21607 0.322162 9.11432 0.880301C9.31536 0.729221 9.52379 0.587583 9.73913 0.456419C10.7105 1.12005 11.4944 2.03332 12 3.11165C11.5667 2.97628 11.1022 2.90238 10.6247 2.90238C8.27494 2.90238 6.33432 4.66882 6.03899 6.9558C6.02213 7.14791 6.00876 7.34947 5.99997 7.56305C5.99487 7.39376 5.98643 7.23341 5.97535 7.07983C5.73539 4.73302 3.76735 2.90238 1.37527 2.90238C0.897736 2.90238 0.433236 2.97628 0 3.11165ZM8.40681 5.46123C8.89388 5.46123 9.28896 5.85926 9.28896 6.35019C9.28896 6.84103 8.89397 7.23898 8.40681 7.23898C7.91974 7.23898 7.52474 6.84103 7.52474 6.35019C7.52474 5.85926 7.91974 5.46123 8.40681 5.46123Z" fill="white" fill-opacity="0.5"/>
</g>
<path d="M16 2.3048H19.75V3.4048H17.16V5.4548H19.64V6.5448H17.16V9.69481H16V2.3048Z" fill="white" fill-opacity="0.5"/>
<path d="M20.7619 4.1748H21.8919V9.69481H20.7619V4.1748ZM20.7619 2.3048H21.8919V3.5548H20.7619V2.3048Z" fill="white" fill-opacity="0.5"/>
<path d="M23.0275 2.3048H24.1575V9.69481H23.0275V2.3048Z" fill="white" fill-opacity="0.5"/>
<path d="M25.2931 2.3048H26.4231V9.69481H25.2931V2.3048Z" fill="white" fill-opacity="0.5"/>
<path d="M27.5588 4.1748H28.6888V9.69481H27.5588V4.1748ZM27.5588 2.3048H28.6888V3.5548H27.5588V2.3048Z" fill="white" fill-opacity="0.5"/>
<path d="M29.8244 4.1748H30.8944V4.7648C31.1277 4.51147 31.371 4.32814 31.6244 4.2148C31.8777 4.10147 32.1744 4.04481 32.5144 4.04481C33.261 4.04481 33.8144 4.26814 34.1744 4.7148C34.5344 5.1548 34.7144 5.83481 34.7144 6.75481V9.69481H33.5844V6.9348C33.5844 6.28814 33.481 5.81814 33.2744 5.5248C33.0744 5.23147 32.7544 5.0848 32.3144 5.0848C31.8544 5.0848 31.511 5.23814 31.2844 5.5448C31.0644 5.8448 30.9544 6.3148 30.9544 6.9548V9.69481H29.8244V4.1748Z" fill="white" fill-opacity="0.5"/>
<path d="M42.94 7.67481C42.62 8.36147 42.1633 8.89147 41.57 9.2648C40.9833 9.63814 40.3067 9.82481 39.54 9.82481C39 9.82481 38.4933 9.72481 38.02 9.52481C37.5467 9.32481 37.1333 9.05481 36.78 8.71481C36.4333 8.36814 36.16 7.96147 35.96 7.4948C35.76 7.02814 35.66 6.52814 35.66 5.9948C35.66 5.46147 35.7567 4.9648 35.95 4.5048C36.15 4.03814 36.42 3.63147 36.76 3.2848C37.1067 2.93814 37.51 2.66814 37.97 2.4748C38.4367 2.2748 38.9367 2.1748 39.47 2.1748C39.8567 2.1748 40.2267 2.2248 40.58 2.3248C40.9333 2.4248 41.2567 2.56814 41.55 2.7548C41.85 2.94147 42.1167 3.17147 42.35 3.44481C42.5833 3.71147 42.7767 4.0148 42.93 4.3548H41.64C41.3733 3.98147 41.0667 3.71147 40.72 3.5448C40.38 3.37147 39.9733 3.2848 39.5 3.2848C39.12 3.2848 38.7667 3.3548 38.44 3.4948C38.1133 3.62814 37.83 3.8148 37.59 4.0548C37.3567 4.29481 37.17 4.58147 37.03 4.9148C36.8967 5.24147 36.83 5.59814 36.83 5.9848C36.83 6.3648 36.9 6.72147 37.04 7.0548C37.18 7.38147 37.3733 7.66814 37.62 7.9148C37.8667 8.16147 38.1533 8.35814 38.48 8.50481C38.8067 8.64481 39.1533 8.71481 39.52 8.71481C39.9333 8.71481 40.3 8.6348 40.62 8.4748C40.9467 8.3148 41.2733 8.04814 41.6 7.67481H42.94Z" fill="white" fill-opacity="0.5"/>
<path d="M43.6566 6.94481C43.6566 6.53147 43.73 6.14814 43.8766 5.7948C44.03 5.44147 44.2366 5.1348 44.4966 4.8748C44.7633 4.6148 45.0766 4.41147 45.4366 4.2648C45.7966 4.11814 46.1833 4.04481 46.5966 4.04481C46.9966 4.04481 47.3733 4.12147 47.7266 4.2748C48.08 4.42147 48.3866 4.62814 48.6466 4.8948C48.9066 5.1548 49.11 5.46147 49.2566 5.81481C49.41 6.16814 49.4866 6.54481 49.4866 6.94481C49.4866 7.34481 49.41 7.72147 49.2566 8.07481C49.11 8.42147 48.9066 8.72481 48.6466 8.98481C48.3866 9.24481 48.08 9.45147 47.7266 9.6048C47.3733 9.75147 46.9966 9.82481 46.5966 9.82481C46.1833 9.82481 45.7966 9.75147 45.4366 9.6048C45.0833 9.45147 44.7733 9.24481 44.5066 8.98481C44.24 8.72481 44.03 8.42147 43.8766 8.07481C43.73 7.72147 43.6566 7.34481 43.6566 6.94481ZM46.5766 8.7848C46.83 8.7848 47.0633 8.73814 47.2766 8.6448C47.49 8.55147 47.6733 8.42147 47.8266 8.25481C47.9866 8.08814 48.11 7.89481 48.1966 7.67481C48.29 7.45481 48.3366 7.2148 48.3366 6.9548C48.3366 6.68814 48.29 6.44147 48.1966 6.2148C48.11 5.98814 47.9866 5.79147 47.8266 5.6248C47.6666 5.45814 47.4766 5.32814 47.2566 5.2348C47.0366 5.1348 46.8 5.0848 46.5466 5.0848C46.3066 5.0848 46.08 5.1348 45.8666 5.2348C45.6533 5.32814 45.4666 5.45814 45.3066 5.6248C45.1466 5.79147 45.02 5.98814 44.9266 6.2148C44.84 6.44147 44.7966 6.68481 44.7966 6.94481C44.7966 7.20481 44.8433 7.44814 44.9366 7.67481C45.03 7.89481 45.1566 8.08814 45.3166 8.25481C45.4766 8.41481 45.6633 8.5448 45.8766 8.6448C46.0966 8.73814 46.33 8.7848 46.5766 8.7848Z" fill="white" fill-opacity="0.5"/>
<path d="M50.141 6.9348C50.141 6.52147 50.211 6.13814 50.351 5.7848C50.4977 5.4248 50.6977 5.1148 50.951 4.8548C51.2043 4.58814 51.501 4.38147 51.841 4.23481C52.1877 4.08147 52.5577 4.0048 52.951 4.0048C53.331 4.0048 53.681 4.0748 54.001 4.2148C54.3277 4.34814 54.601 4.54147 54.821 4.79481V2.3048H55.961V9.69481H54.901V8.88481C54.6277 9.21147 54.341 9.45147 54.041 9.6048C53.741 9.75147 53.3877 9.82481 52.981 9.82481C52.581 9.82481 52.2077 9.75147 51.861 9.6048C51.5143 9.45814 51.211 9.2548 50.951 8.9948C50.6977 8.7348 50.4977 8.42814 50.351 8.07481C50.211 7.72147 50.141 7.34147 50.141 6.9348ZM51.281 6.9048C51.281 7.1648 51.3277 7.41147 51.421 7.6448C51.521 7.87147 51.651 8.07147 51.811 8.2448C51.9777 8.41147 52.171 8.5448 52.391 8.6448C52.6177 8.73814 52.861 8.7848 53.121 8.7848C53.3677 8.7848 53.5977 8.73814 53.811 8.6448C54.031 8.5448 54.221 8.41147 54.381 8.2448C54.541 8.07147 54.6677 7.87147 54.761 7.6448C54.8543 7.41814 54.901 7.17481 54.901 6.9148C54.901 6.64814 54.8543 6.40147 54.761 6.1748C54.6677 5.94147 54.5377 5.74147 54.371 5.5748C54.211 5.40814 54.0177 5.27814 53.791 5.1848C53.5643 5.09147 53.3177 5.0448 53.051 5.0448C52.8043 5.0448 52.571 5.0948 52.351 5.1948C52.1377 5.28814 51.951 5.41814 51.791 5.58481C51.631 5.75147 51.5043 5.94814 51.411 6.1748C51.3243 6.40147 51.281 6.6448 51.281 6.9048Z" fill="white" fill-opacity="0.5"/>
<path d="M62.4698 8.00481C62.3831 8.27147 62.2498 8.51814 62.0698 8.7448C61.8964 8.9648 61.6931 9.15481 61.4598 9.31481C61.2264 9.47481 60.9698 9.60147 60.6898 9.69481C60.4098 9.78147 60.1198 9.82481 59.8198 9.82481C59.3998 9.82481 59.0098 9.75147 58.6498 9.6048C58.2898 9.45814 57.9764 9.2548 57.7098 8.9948C57.4498 8.7348 57.2431 8.43147 57.0898 8.08481C56.9364 7.73147 56.8598 7.35147 56.8598 6.94481C56.8598 6.53814 56.9331 6.15814 57.0798 5.8048C57.2331 5.45147 57.4398 5.1448 57.6998 4.8848C57.9598 4.6248 58.2631 4.42147 58.6098 4.2748C58.9631 4.12147 59.3431 4.04481 59.7498 4.04481C60.1564 4.04481 60.5331 4.12147 60.8798 4.2748C61.2331 4.42147 61.5364 4.6248 61.7898 4.8848C62.0498 5.1448 62.2531 5.4548 62.3998 5.81481C62.5464 6.16814 62.6198 6.55147 62.6198 6.96481C62.6198 7.05814 62.6131 7.13814 62.5998 7.2048C62.5931 7.2648 62.5831 7.3348 62.5698 7.4148H58.0598C58.1264 7.82147 58.3164 8.15147 58.6298 8.40481C58.9498 8.65814 59.3364 8.7848 59.7898 8.7848C60.4231 8.7848 60.9064 8.52481 61.2398 8.00481H62.4698ZM61.4898 6.4048C61.3898 5.9848 61.1898 5.66147 60.8898 5.4348C60.5898 5.20147 60.2131 5.0848 59.7598 5.0848C59.3198 5.0848 58.9498 5.20147 58.6498 5.4348C58.3498 5.66147 58.1464 5.9848 58.0398 6.4048H61.4898Z" fill="white" fill-opacity="0.5"/>
</svg>
