<svg width="20" height="20" viewBox="0 0 20 20" fill="none" xmlns="http://www.w3.org/2000/svg">
  <path d="M5.1421 15C5.48529 14.029 6.41132 13.3334 7.49984 13.3334C8.58834 13.3334 9.51442 14.029 9.85759 15H18.3332V16.6667H9.85759C9.51442 17.6377 8.58834 18.3334 7.49984 18.3334C6.41132 18.3334 5.48529 17.6377 5.1421 16.6667H1.6665V15H5.1421ZM10.1421 9.16669C10.4853 8.1957 11.4113 7.50002 12.4998 7.50002C13.5883 7.50002 14.5144 8.1957 14.8576 9.16669H18.3332V10.8334H14.8576C14.5144 11.8044 13.5883 12.5 12.4998 12.5C11.4113 12.5 10.4853 11.8044 10.1421 10.8334H1.6665V9.16669H10.1421ZM5.1421 3.33335C5.48529 2.36236 6.41132 1.66669 7.49984 1.66669C8.58834 1.66669 9.51442 2.36236 9.85759 3.33335H18.3332V5.00002H9.85759C9.51442 5.97101 8.58834 6.66669 7.49984 6.66669C6.41132 6.66669 5.48529 5.97101 5.1421 5.00002H1.6665V3.33335H5.1421ZM7.49984 5.00002C7.96007 5.00002 8.33317 4.62692 8.33317 4.16669C8.33317 3.70645 7.96007 3.33335 7.49984 3.33335C7.0396 3.33335 6.6665 3.70645 6.6665 4.16669C6.6665 4.62692 7.0396 5.00002 7.49984 5.00002ZM12.4998 10.8334C12.9601 10.8334 13.3332 10.4603 13.3332 10C13.3332 9.53977 12.9601 9.16669 12.4998 9.16669C12.0396 9.16669 11.6665 9.53977 11.6665 10C11.6665 10.4603 12.0396 10.8334 12.4998 10.8334ZM7.49984 16.6667C7.96007 16.6667 8.33317 16.2936 8.33317 15.8334C8.33317 15.3731 7.96007 15 7.49984 15C7.0396 15 6.6665 15.3731 6.6665 15.8334C6.6665 16.2936 7.0396 16.6667 7.49984 16.6667Z" fill="black" />
</svg>