<svg width="30" height="30" viewBox="0 0 30 30"><g>
  <path d="M0 15C0 6.716 6.716 0 15 0s15 6.716 15 15-6.716 15-15 15S0 23.284 0 15z" fill="#fff"></path><path d="M15 11.013c1.221 0 2.044.527 2.513.968l1.834-1.791C18.221 9.143 16.755 8.5 15 8.5c-2.542 0-4.738 1.459-5.807 3.582l2.102 1.632c.527-1.567 1.986-2.701 3.705-2.701z" fill="#ea4335"></path><path d="M21.24 15.145c0-.534-.043-.924-.137-1.329H15v2.412h3.582c-.072.599-.462 1.502-1.329 2.109l2.051 1.589c1.228-1.134 1.936-2.802 1.936-4.781z" fill="#4285f4"></path><path d="M11.302 16.285c-.137-.404-.217-.838-.217-1.286s.079-.881.209-1.286l-2.102-1.632C8.753 12.963 8.5 13.953 8.5 15s.253 2.037.693 2.918l2.109-1.632z" fill="#fbbc05"></path><path d="M15 21.5c1.755 0 3.228-.578 4.305-1.574l-2.051-1.589c-.549.383-1.285.65-2.253.65-1.719 0-3.178-1.134-3.698-2.701l-2.102 1.632C10.27 20.041 12.458 21.5 15 21.5z" fill="#34a853"></path>
</g></svg>