<svg
  width="20"
  height="20"
  viewBox="0 0 20 20"
  fill="none"
  xmlns="http://www.w3.org/2000/svg"
>
  <path
    d="M10.8318 16.6667H15.8318V13.3333H12.4985V11.6667H15.8318V5H14.1652V9.16667L10.8318 7.83333V16.6667ZM9.16516 16.6667V7.83333L5.83187 9.16667V5H4.1652V16.6667H9.16516ZM5.83187 3.33333V2.5H14.1652V3.33333H16.6652C17.1254 3.33333 17.4985 3.70643 17.4985 4.16667V17.5C17.4985 17.9602 17.1254 18.3333 16.6652 18.3333H3.33187C2.87163 18.3333 2.49854 17.9602 2.49854 17.5V4.16667C2.49854 3.70643 2.87163 3.33333 3.33187 3.33333H5.83187ZM9.99849 6.66667L12.9152 4.16667H7.08187L9.99849 6.66667Z"
    fill="black"
  />
</svg>