<svg width="193" height="49" viewBox="0 0 193 49" fill="none" xmlns="http://www.w3.org/2000/svg">
<g clip-path="url(#clip0_290_32421)">
<path d="M61.7798 26.192C65.5531 26.192 67.4342 24.8567 67.4342 22.1971C67.4342 21.0631 66.9222 20.1527 66.1963 19.6443C65.8272 19.3963 65.5531 19.2189 65.3746 19.1243C65.1848 19.0298 64.9817 18.9475 64.7679 18.8879C66.1128 18.4981 66.7914 17.4698 66.7914 15.8035C66.7914 14.2557 65.9223 13.1323 64.7554 12.7073C63.5894 12.2935 62.9109 12.1751 62.3873 12.1751H56.3878V26.192H61.7798ZM59.3398 20.3062H62.4346C63.7322 20.3062 64.4344 20.7316 64.4344 21.9608C64.4344 23.1426 63.7322 23.5803 62.4346 23.5803H59.3398V20.3062ZM63.851 16.2645C63.851 16.8201 63.5774 17.2334 63.3037 17.4108C63.1609 17.5053 63.006 17.576 62.8274 17.6238C62.4707 17.7184 62.3873 17.7183 62.2918 17.7183H59.3398V14.7874H62.2918L62.673 14.8346C62.9346 14.8697 63.1966 15.0115 63.4582 15.2479C63.7202 15.4959 63.851 15.8268 63.851 16.2645ZM72.91 20.6254H79.1233V18.0137H72.91V14.7874H79.659V12.1751H69.958V26.192H79.659V23.6036H72.91V20.6254ZM85.2423 20.6254H91.4556V18.0137H85.2423V14.7874H91.9917V12.1751H82.2899V26.192H91.9917V23.6036H85.2423V20.6254ZM101.669 22.5636V19.9753H94.6223V22.5636H101.669ZM105.883 17.245C104.753 18.2973 104.193 19.5737 104.193 21.0509C104.193 22.5403 104.753 23.8166 105.883 24.8683C107.002 25.9317 108.347 26.4634 109.93 26.4634C111.502 26.4634 112.847 25.9317 113.977 24.8683C115.097 23.8166 115.656 22.5403 115.656 21.0509C115.656 19.5737 115.097 18.2973 113.977 17.245C112.847 16.1933 111.502 15.6616 109.93 15.6616C108.347 15.6616 107.002 16.1933 105.883 17.245ZM107.93 23.0364C107.371 22.5047 107.097 21.8428 107.097 21.0509C107.097 20.2589 107.371 19.597 107.93 19.0653C108.478 18.5337 109.145 18.2734 109.93 18.2734C110.704 18.2734 111.371 18.5337 111.93 19.0653C112.478 19.597 112.752 20.2589 112.752 21.0509C112.752 21.8428 112.478 22.5047 111.93 23.0364C111.371 23.568 110.704 23.84 109.93 23.84C109.145 23.84 108.478 23.568 107.93 23.0364ZM128.131 26.192V19.5854C128.131 19.3607 128.131 18.9942 127.81 18.1433C127.643 17.7183 127.429 17.3279 127.178 16.9853C126.655 16.2879 125.524 15.6616 124.06 15.6616C122.786 15.6616 121.81 16.0515 121.132 16.8201V15.9336H118.18V26.192H121.132V20.6727C121.132 20.1766 121.298 19.656 121.631 19.1009C121.965 18.5453 122.512 18.2734 123.275 18.2734C124.548 18.2856 125.178 19.0181 125.178 20.4836V26.192H128.131ZM133.857 26.192V11.6907H130.905V26.192H133.857ZM137.166 14.586C137.487 14.9169 137.892 15.0827 138.356 15.0827C138.82 15.0827 139.225 14.9169 139.546 14.586C139.868 14.2556 140.034 13.8652 140.034 13.4042C140.034 12.9554 139.868 12.5649 139.546 12.2341C139.225 11.9036 138.82 11.738 138.356 11.738C137.892 11.738 137.487 11.9036 137.166 12.2341C136.845 12.5649 136.678 12.9554 136.678 13.4042C136.678 13.8652 136.845 14.2556 137.166 14.586ZM139.82 26.192V15.9336H136.868V26.192H139.82ZM152.783 26.192V19.5854C152.783 19.3607 152.783 18.9942 152.462 18.1433C152.296 17.7183 152.081 17.3279 151.831 16.9853C151.307 16.2879 150.176 15.6616 148.712 15.6616C147.439 15.6616 146.463 16.0515 145.784 16.8201V15.9336H142.832V26.192H145.784V20.6727C145.784 20.1766 145.951 19.656 146.284 19.1009C146.618 18.5453 147.165 18.2734 147.927 18.2734C149.2 18.2856 149.831 19.0181 149.831 20.4836V26.192H152.783ZM165.913 21.2756C165.913 19.5147 165.414 18.1433 164.401 17.151C163.39 16.1583 162.163 15.6616 160.723 15.6616C159.164 15.6616 157.842 16.1933 156.735 17.245C155.628 18.2973 155.069 19.5737 155.069 21.0509C155.069 22.5403 155.617 23.8166 156.724 24.8683C157.83 25.9317 159.164 26.4634 160.723 26.4634C162.14 26.4517 163.544 26.0502 164.937 25.2465L163.187 23.1665C162.39 23.6153 161.557 23.84 160.676 23.84C159.307 23.84 158.474 23.32 158.164 22.2683H165.913V21.2756ZM160.676 18.2734C161.866 18.2734 162.687 18.829 163.14 19.9519H158.212C158.652 18.829 159.473 18.2734 160.676 18.2734ZM168.258 25.979C168.58 26.2983 168.972 26.4634 169.437 26.4634C169.889 26.4634 170.282 26.2983 170.603 25.979C170.925 25.6603 171.092 25.2699 171.092 24.8094C171.092 24.36 170.925 23.9702 170.603 23.6509C170.282 23.3317 169.889 23.1665 169.437 23.1665C168.972 23.1665 168.58 23.3317 168.258 23.6509C167.937 23.9702 167.77 24.36 167.77 24.8094C167.77 25.2699 167.937 25.6603 168.258 25.979ZM176.567 26.192V21.7839C176.567 21.3701 176.674 20.909 176.876 20.4129C177.079 19.928 177.436 19.4675 177.96 19.0537C178.472 18.6399 179.091 18.4269 179.805 18.4269L180.614 18.4981V15.8624C180.436 15.8268 180.102 15.8035 179.638 15.8035C178.341 15.8152 177.317 16.3707 176.567 17.482V15.9336H173.615V26.192H176.567ZM189.888 26.0619C191.172 25.5302 191.78 24.7972 192.185 23.8044C192.589 22.8239 192.625 22.1971 192.625 21.5475V15.9336H189.685V21.6421C189.685 23.1075 189.007 23.84 187.637 23.84C186.269 23.84 185.59 23.1075 185.59 21.6421V15.9336H182.638V21.5475C182.638 21.8662 182.662 22.2093 182.709 22.5519C182.757 22.8945 182.887 23.32 183.091 23.8044C183.293 24.301 183.555 24.7382 183.9 25.1047C184.245 25.4712 184.733 25.7899 185.376 26.0619C186.018 26.3338 186.768 26.4634 187.637 26.4634C188.495 26.4634 189.244 26.3338 189.888 26.0619Z" fill="#2A1947"/>
<path d="M58.7787 37.3724C59.4495 37.3724 60.0269 37.1276 60.5112 36.6384C60.9952 36.1486 61.2371 35.5606 61.2371 34.8744C61.2371 34.1881 60.9943 33.6017 60.5084 33.1135C60.0225 32.6259 59.4459 32.3821 58.7787 32.3821C58.0672 32.3821 57.4899 32.584 57.0465 32.9882V30.5581H55.941V37.2471H57.0465V36.7664C57.4899 37.1706 58.0672 37.3724 58.7787 37.3724ZM57.4947 35.9282C57.1957 35.6536 57.0465 35.303 57.0465 34.877C57.0465 34.4515 57.1957 34.101 57.4947 33.8264C57.7932 33.5512 58.1607 33.4142 58.5973 33.4142C59.0266 33.4142 59.3894 33.5512 59.6863 33.8264C59.9832 34.101 60.1317 34.4515 60.1317 34.877C60.1317 35.303 59.9832 35.6536 59.6863 35.9282C59.3894 36.2033 59.0266 36.3403 58.5973 36.3403C58.1607 36.3403 57.7932 36.2033 57.4947 35.9282ZM66.4505 33.07C65.9666 32.611 65.3912 32.3821 64.7235 32.3821C64.0089 32.3821 63.4203 32.6222 62.9589 33.1029C62.4966 33.5831 62.2655 34.1748 62.2655 34.877C62.2655 35.6164 62.5038 36.2171 62.9805 36.6792C63.4568 37.1414 64.0603 37.3724 64.7901 37.3724C65.4277 37.3724 66.036 37.2306 66.6154 36.9464L65.9943 36.0732C65.6203 36.2511 65.2223 36.3403 64.8006 36.3403C64.0422 36.3403 63.5655 36.0095 63.3705 35.3466H67.1768V34.9753C67.1768 34.1637 66.9348 33.5284 66.4505 33.07ZM66.0601 34.4075H63.3818C63.4809 34.0803 63.6558 33.8327 63.9074 33.6649C64.1582 33.4976 64.4306 33.4142 64.7235 33.4142C65.0168 33.4142 65.2881 33.4976 65.5381 33.6649C65.7868 33.8327 65.961 34.0803 66.0601 34.4075ZM71.0095 33.5342V35.4231C71.0095 35.7657 71.06 36.062 71.1608 36.3133C71.2619 36.5645 71.3726 36.7472 71.4934 36.862C71.6146 36.9767 71.7646 37.0659 71.9444 37.1297C72.1241 37.1934 72.2554 37.229 72.3376 37.2359C72.4203 37.2433 72.511 37.2471 72.6101 37.2471C72.925 37.2471 73.1911 37.2359 73.4077 37.2141V36.2639C73.3082 36.2713 73.1654 36.275 72.9788 36.275C72.403 36.275 72.1153 35.9983 72.1153 35.4448V33.5342H73.4186V32.5075H72.1153V30.5581C71.9941 30.5873 71.8172 30.6367 71.5845 30.7058C71.3517 30.7748 71.1603 30.8279 71.0095 30.8641V32.5075H69.9811V33.5342H71.0095ZM74.4526 34.8744C74.4526 35.5681 74.7062 36.1577 75.2138 36.6437C75.7217 37.1297 76.3397 37.3724 77.0675 37.3724C77.7954 37.3724 78.4121 37.1297 78.9181 36.6437C79.4236 36.1577 79.6768 35.5681 79.6768 34.8744C79.6768 34.1812 79.4236 33.5926 78.9181 33.1082C78.4121 32.6244 77.7954 32.3821 77.0675 32.3821C76.3397 32.3821 75.7217 32.6244 75.2138 33.1082C74.7062 33.5926 74.4526 34.1812 74.4526 34.8744ZM75.558 34.877C75.558 34.4585 75.7045 34.11 75.9978 33.8317C76.2907 33.5533 76.6478 33.4142 77.0675 33.4142C77.4872 33.4142 77.8439 33.5533 78.1372 33.8317C78.4302 34.11 78.577 34.4585 78.577 34.877C78.577 35.2961 78.4302 35.6445 78.1372 35.9229C77.8439 36.2012 77.4872 36.3403 77.0675 36.3403C76.6478 36.3403 76.2907 36.2012 75.9978 35.9229C75.7045 35.6445 75.558 35.2961 75.558 34.877ZM84.745 37.7793C84.6399 37.9594 84.5074 38.0953 84.3457 38.1862C84.1848 38.277 84.0251 38.3429 83.8675 38.3827C83.7098 38.4225 83.5525 38.4427 83.3944 38.4427C82.8226 38.4427 82.3218 38.3115 81.8933 38.0496L81.3873 38.8905C81.9667 39.2798 82.632 39.4748 83.3832 39.4748C84.1166 39.4748 84.7374 39.258 85.2449 38.8246C85.7529 38.3917 86.0069 37.8367 86.0069 37.1594V32.5075H84.9015V32.9882C84.4613 32.584 83.8839 32.3821 83.1693 32.3821C82.498 32.3821 81.9206 32.6259 81.4371 33.1135C80.9528 33.6017 80.7108 34.1881 80.7108 34.8744C80.7108 35.5606 80.954 36.1486 81.4395 36.6384C81.9254 37.1276 82.5016 37.3724 83.1693 37.3724C83.8803 37.3724 84.4577 37.1706 84.9015 36.7664V37.1377C84.9015 37.3852 84.8493 37.5992 84.745 37.7793ZM82.2589 35.9282C81.9635 35.6536 81.8163 35.303 81.8163 34.877C81.8163 34.4515 81.9635 34.101 82.2589 33.8264C82.5542 33.5512 82.9161 33.4142 83.3454 33.4142C83.7812 33.4142 84.1499 33.5512 84.4505 33.8264C84.7514 34.101 84.9015 34.4515 84.9015 34.877C84.9015 35.303 84.7514 35.6536 84.4505 35.9282C84.1499 36.2033 83.7812 36.3403 83.3454 36.3403C82.9161 36.3403 82.5542 36.2033 82.2589 35.9282ZM91.4458 33.07C90.9619 32.611 90.3865 32.3821 89.7193 32.3821C89.0038 32.3821 88.4156 32.6222 87.9538 33.1029C87.4915 33.5831 87.2608 34.1748 87.2608 34.877C87.2608 35.6164 87.4991 36.2171 87.9758 36.6792C88.4525 37.1414 89.0552 37.3724 89.7851 37.3724C90.4226 37.3724 91.0317 37.2306 91.6111 36.9464L90.9892 36.0732C90.6152 36.2511 90.2172 36.3403 89.7959 36.3403C89.0371 36.3403 88.5604 36.0095 88.3662 35.3466H92.1717V34.9753C92.1717 34.1637 91.9297 33.5284 91.4458 33.07ZM91.055 34.4075H88.3771C88.4758 34.0803 88.6507 33.8327 88.9023 33.6649C89.1531 33.4976 89.4255 33.4142 89.7193 33.4142C90.0126 33.4142 90.2838 33.4976 90.533 33.6649C90.7822 33.8327 90.9563 34.0803 91.055 34.4075ZM93.9592 33.5342V35.4231C93.9592 35.7657 94.0094 36.062 94.1105 36.3133C94.2112 36.5645 94.322 36.7472 94.4431 36.862C94.5643 36.9767 94.7144 37.0659 94.8941 37.1297C95.0735 37.1934 95.2047 37.229 95.287 37.2359C95.37 37.2433 95.4603 37.2471 95.5594 37.2471C95.8744 37.2471 96.1404 37.2359 96.3571 37.2141V36.2639C96.258 36.2713 96.1151 36.275 95.9277 36.275C95.3524 36.275 95.0643 35.9983 95.0643 35.4448V33.5342H96.3675V32.5075H95.0643V30.5581C94.9435 30.5873 94.7665 30.6367 94.5338 30.7058C94.3011 30.7748 94.1093 30.8279 93.9592 30.8641V32.5075H92.9308V33.5342H93.9592ZM102.121 37.2471V34.1621C102.121 34.093 102.117 34.0176 102.109 33.9352C102.102 33.8535 102.064 33.7122 101.996 33.5119C101.928 33.3122 101.833 33.1353 101.711 32.9828C101.588 32.8299 101.394 32.6913 101.13 32.5675C100.866 32.4437 100.555 32.3821 100.195 32.3821C99.5502 32.3821 99.0623 32.584 98.7329 32.9882V30.5581H97.627V37.2471H98.7329V34.6863C98.7329 34.5881 98.7525 34.4738 98.7935 34.3448C98.8336 34.2157 98.895 34.0765 98.9772 33.9273C99.0599 33.778 99.1867 33.6553 99.3568 33.5587C99.5273 33.462 99.7211 33.4142 99.937 33.4142C100.659 33.4142 101.02 33.8088 101.02 34.5987V37.2471H102.121ZM107.455 33.07C106.971 32.611 106.395 32.3821 105.728 32.3821C105.013 32.3821 104.425 32.6222 103.962 33.1029C103.501 33.5831 103.27 34.1748 103.27 34.877C103.27 35.6164 103.508 36.2171 103.984 36.6792C104.461 37.1414 105.065 37.3724 105.794 37.3724C106.432 37.3724 107.04 37.2306 107.62 36.9464L106.999 36.0732C106.625 36.2511 106.227 36.3403 105.805 36.3403C105.046 36.3403 104.569 36.0095 104.376 35.3466H108.181V34.9753C108.181 34.1637 107.939 33.5284 107.455 33.07ZM107.064 34.4075H104.386C104.485 34.0803 104.66 33.8327 104.911 33.6649C105.162 33.4976 105.435 33.4142 105.728 33.4142C106.021 33.4142 106.292 33.4976 106.542 33.6649C106.792 33.8327 106.965 34.0803 107.064 34.4075ZM110.452 37.2471V35.4013C110.452 34.9535 110.605 34.5216 110.911 34.1047C111.218 33.6877 111.645 33.4795 112.196 33.4795L112.465 33.5119V32.4586C112.385 32.4512 112.265 32.4474 112.107 32.4474C111.385 32.4474 110.833 32.7205 110.452 33.2665V32.5075H109.347V37.2471H110.452Z" fill="#2A1947"/>
<path d="M34.416 6.39258H23.6508L18.2677 15.8744L23.6508 25.3557H34.416L39.7992 15.8744L34.416 6.39258Z" stroke="#6937A5" stroke-width="3.23651"/>
<path d="M34.5446 24.8042H23.7794L18.3962 34.2855L23.7794 43.7672H34.5446L39.9277 34.2855L34.5446 24.8042Z" stroke="#6937A5" stroke-width="3.23651"/>
<path d="M18.1545 15.3225H7.38936L2.00623 24.8043L7.38936 34.2856H18.1545L23.5377 24.8043L18.1545 15.3225Z" stroke="#6937A5" stroke-width="3.23651"/>
<path d="M48.0266 0V48.8789H49.6364V0H48.0266Z" fill="#6937A5"/>
</g>
<defs>
<clipPath id="clip0_290_32421">
<rect width="193" height="49" fill="white"/>
</clipPath>
</defs>
</svg>
