<svg width="40" height="40" viewBox="10 10 60 60"><g>
        <g fill="none" stroke-width="3" stroke="currentColor">
            <path d="M68.023 42.114L60.416 25.8l-5.438 2.536 7.607 16.314 5.438-2.536z"></path><path d="M44.116 34.956l11.667 11.667c2.121 2.121.53 3.712.53 3.712s-1.591 1.591-3.712-.53m0 0l-4.243-4.243m4.243 4.243c1.591 1.591 0 3.182 0 3.182s-1.591 1.591-3.712-.53m0 0l-3.182-3.182m3.182 3.182c1.591 1.591 0 3.182 0 3.182s-1.591 1.591-3.712-.53m0 0l-1.591-1.591m1.591 1.591c1.591 1.591 0 3.182 0 3.182s-1.591 1.591-3.182 0m-7.955-10.076s1.591-1.591 0-3.182-3.182 0-3.182 0l-4.243 4.243s-1.59 1.593 0 3.182 3.182 0 3.182 0m4.243-4.243l-4.243 4.243m4.243-4.243s1.591-1.591 3.182 0 0 3.182 0 3.182l-4.243 4.243m-3.182-3.182s-1.59 1.593 0 3.182 3.182 0 3.182 0m0 0l3.182-3.182s1.591-1.591 3.182 0 0 3.182 0 3.182l-3.182 3.182s-1.593 1.589-3.182 0 0-3.182 0-3.182zm-.53-27.047c-3.712 1.591-6.894.53-6.894.53m-3.712 14.319l-2.917-.692m22.009-9.914v1.061l-3.182 3.182c-1.061 1.061-3.712 1.591-5.302.002-2.123-2.123 5.832-10.078 6.362-9.547 2.652-.53 5.979-1.184 6.894-.53 2.652 1.591 6.786 2.998 9.968 2.998m3.291 15.564l3.459-1.314m-35.808-1.336s1.591-1.591 3.182 0 0 3.182 0 3.182l-3.182 3.182s-1.593 1.59-3.182 0 0-3.182 0-3.182l3.182-3.182z" stroke-linecap="round"></path><path d="M25.803 27.249l-5.481-2.44L13 41.252l5.481 2.44 7.321-16.444z"></path>
        </g>
    </g></svg>