<!-- Generated by IcoMoon.io -->
<svg version="1.1" xmlns="http://www.w3.org/2000/svg" width="1024" height="1024" viewBox="0 0 1024 1024">
<path d="M908.315 714.37c-26.726 63.611-89.020 104.83-157.819 104.83h-476.992c-68.803 0-131.097-41.213-157.826-104.837l-0.248-0.594c-26.556-64.053-11.758-137.727 37.429-186.599l53.552-53.217v-101.253c0-169.013 137.697-304.434 305.585-304.434s305.586 135.421 305.586 304.434v101.252l53.555 53.218c49.207 48.873 63.993 122.533 37.431 186.598l-0.253 0.601zM782.438 661.477c5.332-12.865 2.389-27.596-7.516-37.434l-93.878-93.284v-158.059c0-92.729-75.687-167.901-169.052-167.901s-169.051 75.172-169.051 167.901v158.059l-93.873 93.284c-9.905 9.838-12.852 24.569-7.518 37.434 5.384 12.814 17.982 21.189 31.951 21.189h476.989c13.967 0 26.563-8.374 31.949-21.189zM409.6 921.6c0-34.133 34.133-34.133 34.133-34.133h136.533c0 0 34.133 0 34.133 34.133s-34.133 34.133-34.133 34.133h-136.533c0 0-34.133 0-34.133-34.133z"></path>
</svg>
