<!-- Generated by IcoMoon.io -->
<svg version="1.1" xmlns="http://www.w3.org/2000/svg" width="960" height="1024" viewBox="0 0 960 1024">
<g id="icomoon-ignore">
</g>
<path d="M27.584 512c116.48-144.512 250.88-288 452.416-288s335.936 143.488 452.416 288c-116.736 144.192-250.944 288-452.416 288s-335.68-143.808-452.416-288zM480 352c-159.040 0-288 160-288 160s128.96 160 288 160 288-160 288-160-128.96-160-288-160zM640 448c0 88.366-71.634 160-160 160s-160-71.634-160-160c0-88.366 71.634-160 160-160s160 71.634 160 160z"></path>
</svg>
