<svg width="24" height="24" viewBox="0 0 24 24" fill="none" xmlns="http://www.w3.org/2000/svg">
  <path d="M0.390869 13.1665H6.78179C6.99061 16.9802 8.21696 20.5228 10.194 23.5277C4.98554 22.7183 0.916779 18.4635 0.390869 13.1665ZM0.390869 10.8332C0.916779 5.53627 4.98554 1.28153 10.194 0.472168C8.21696 3.47696 6.99061 7.01961 6.78179 10.8332H0.390869ZM23.609 10.8332H17.218C17.0092 7.01961 15.7829 3.47696 13.8059 0.472168C19.0143 1.28153 23.0831 5.53627 23.609 10.8332ZM23.609 13.1665C23.0831 18.4635 19.0143 22.7183 13.8059 23.5277C15.7829 20.5228 17.0092 16.9802 17.218 13.1665H23.609ZM9.11912 13.1665H14.8807C14.6805 16.4132 13.6504 19.4354 11.9999 22.0234C10.3494 19.4354 9.31933 16.4132 9.11912 13.1665ZM9.11912 10.8332C9.31933 7.58658 10.3494 4.56448 11.9999 1.97646C13.6504 4.56448 14.6805 7.58658 14.8807 10.8332H9.11912Z" fill="#A6ABAB" />
</svg>