<!-- Generated by IcoMoon.io -->
<svg version="1.1" xmlns="http://www.w3.org/2000/svg" width="1024" height="1024" viewBox="0 0 1024 1024">
<g id="icomoon-ignore">
</g>
<path d="M204.8 512c0-169.662 137.538-307.2 307.2-307.2v0c84.855 0 161.724 34.406 217.429 90.18l-115.029 80.486 341.333 34.133-68.267-341.333-67.721 124.109c-79.462-76.79-187.828-124.109-307.247-124.109-0.176 0-0.351 0-0.527 0h0.028c-245.067 0-443.733 198.666-443.733 443.733s198.666 443.733 443.733 443.733v0c217.566 0 398.473-156.535 436.429-363.11l-134.281-24.644c-26.283 142.882-151.62 251.221-302.148 251.221-169.662 0-307.2-137.538-307.2-307.2v0z"></path>
</svg>
