<svg width="40" height="40" viewBox="10 10 60 60"><g>
        <defs>
            <g id="box-star">
            <path d="M51.976 32.464a.5.5 0 0 0-.951 0l-.647 1.991a.5.5 0 0 1-.476.346h-2.094a.5.5 0 0 0-.294.904l1.694 1.231a.5.5 0 0 1 .182.559l-.647 1.991a.5.5 0 0 0 .769.559l1.694-1.231a.5.5 0 0 1 .588 0l1.694 1.231a.5.5 0 0 0 .769-.559l-.647-1.991a.5.5 0 0 1 .182-.559l1.694-1.231a.5.5 0 0 0-.294-.904h-2.094a.5.5 0 0 1-.476-.346l-.647-1.991z" fill="currentColor"></path>
            </g>
        </defs>
            
            
            
        <path d="M52.928 48.83c4.274-.778 7.572-3.954 7.572-8.279v-8.033c0-5.253-4.254-8.96-10.282-8.96H31.782c-6.027 0-10.282 3.708-10.282 8.96v8.033c0 3.399 2.017 7.045 6.5 7.949.889.179 3.191-.345 3.191 2.435v4.635c0 2.781.391 1.666 1.809.43 3.545-3.399 7.5-7 8.5-7h9.573a10.36 10.36 0 0 0 1.855-.17z" stroke="currentColor" stroke-width="3" stroke-linejoin="round" fill="none"></path>
    <g>
            <path d="M51.976 32.464a.5.5 0 0 0-.951 0l-.647 1.991a.5.5 0 0 1-.476.346h-2.094a.5.5 0 0 0-.294.904l1.694 1.231a.5.5 0 0 1 .182.559l-.647 1.991a.5.5 0 0 0 .769.559l1.694-1.231a.5.5 0 0 1 .588 0l1.694 1.231a.5.5 0 0 0 .769-.559l-.647-1.991a.5.5 0 0 1 .182-.559l1.694-1.231a.5.5 0 0 0-.294-.904h-2.094a.5.5 0 0 1-.476-.346l-.647-1.991z" fill="currentColor"></path>
            </g><g transform="translate(-11,0)">
            <path d="M51.976 32.464a.5.5 0 0 0-.951 0l-.647 1.991a.5.5 0 0 1-.476.346h-2.094a.5.5 0 0 0-.294.904l1.694 1.231a.5.5 0 0 1 .182.559l-.647 1.991a.5.5 0 0 0 .769.559l1.694-1.231a.5.5 0 0 1 .588 0l1.694 1.231a.5.5 0 0 0 .769-.559l-.647-1.991a.5.5 0 0 1 .182-.559l1.694-1.231a.5.5 0 0 0-.294-.904h-2.094a.5.5 0 0 1-.476-.346l-.647-1.991z" fill="currentColor"></path>
            </g><g transform="translate(-22,0)">
            <path d="M51.976 32.464a.5.5 0 0 0-.951 0l-.647 1.991a.5.5 0 0 1-.476.346h-2.094a.5.5 0 0 0-.294.904l1.694 1.231a.5.5 0 0 1 .182.559l-.647 1.991a.5.5 0 0 0 .769.559l1.694-1.231a.5.5 0 0 1 .588 0l1.694 1.231a.5.5 0 0 0 .769-.559l-.647-1.991a.5.5 0 0 1 .182-.559l1.694-1.231a.5.5 0 0 0-.294-.904h-2.094a.5.5 0 0 1-.476-.346l-.647-1.991z" fill="currentColor"></path>
            </g></g></svg>