<svg width="1024" height="1024" viewBox="0 0 1024 1024" fill="none" xmlns="http://www.w3.org/2000/svg">
<path d="M68.267 443.733c0-207.365 168.102-375.467 375.467-375.467s375.467 168.102 375.467 375.467v0c0 87.791-30.106 168.55-80.623 232.448l163.021 163.021c11.857 12.264 19.163 28.991 19.163 47.426 0 37.703-30.564 68.267-68.267 68.267-18.434 0-35.162-7.307-47.445-19.182l0.019 0.018-169.301-169.301c-56.183 33.519-121.856 52.77-192.034 52.77-207.365 0-375.467-168.102-375.467-375.467v0zM443.733 204.8c-131.959 0-238.933 106.974-238.933 238.933s106.974 238.933 238.933 238.933v0c131.959 0 238.933-106.974 238.933-238.933s-106.974-238.933-238.933-238.933v0z"/>
</svg>
