<svg width="40" height="40" viewBox="10 10 60 60"><g>
        <g fill="none" stroke-width="3" stroke="currentColor">
            <path d="M38.609 21.866l-1.367 1.367v4.268l-3.128 1.297-3.019-3.019h-1.932l-3.383 3.383v1.932l3.019 3.019-1.297 3.128h-4.268l-1.367 1.367v4.783l1.367 1.367h4.268l1.297 3.128-3.019 3.019v1.933l3.383 3.383h1.932l3.019-3.019 3.128 1.297v4.268l1.367 1.367h4.783l1.367-1.367v-4.268l3.128-1.297 3.019 3.019h1.932l3.383-3.383v-1.933l-3.019-3.019 1.297-3.128h4.268l1.367-1.367v-4.783l-1.367-1.367h-4.268l-1.297-3.128 3.019-3.019v-1.932l-3.383-3.383h-1.932l-3.019 3.019-3.128-1.297v-4.268l-1.367-1.367h-4.783z"></path><path d="M40.999 34.167c-1.812 0-3.55.72-4.832 2.001s-2.001 3.02-2.001 4.832.72 3.55 2.002 4.832 3.02 2.002 4.832 2.002 3.55-.72 4.832-2.001 2.002-3.02 2.002-4.832-.72-3.55-2.001-4.832-3.02-2.001-4.832-2.001z"></path>
        </g>
    </g></svg>