<svg width="40" height="40" viewBox="10 10 60 60"><g>
        <g fill="currentColor">
            <path d="M26 30a1.08 1.08 0 0 1 1-1h1a1.08 1.08 0 0 1 1 1v4a1.08 1.08 0 0 1-1 1h-1a1.08 1.08 0 0 1-1-1v-4zm21 0a1.08 1.08 0 0 1 1-1h1a1.08 1.08 0 0 1 1 1v1a1.08 1.08 0 0 1-1 1h-1a1.08 1.08 0 0 1-1-1v-1zm5 0a1.08 1.08 0 0 1 1-1h1a1.08 1.08 0 0 1 1 1v1a1.08 1.08 0 0 1-1 1h-1a1.08 1.08 0 0 1-1-1v-1z"></path>
            <path fill-rule="evenodd" d="M22 27c0-1.5 1.5-3 3-3h6c1.161 0 2.322.898 2.787 2H43v-1c0-1.5 1.5-3 3-3h10c1.5 0 3 1.5 3 3v1c1.5 0 3 1.5 3 3v5c0 1.5-1.5 3-3 3v10h1c1 0 2 1 2 2v9c0 1-1 2-2 2H22c-1 0-2-1-2-2v-9c0-1 1-2 2-2h21V37h-9v1c0 1.5-1.5 3-3 3h-1v2.5a1.5 1.5 0 1 1-3 0V41h-2c-1.5 0-3-1.5-3-3V27zm3 11V27h6l.5 2H46v-4h10v4h3v5h-3v13H46V34H31v4h-6zm-2 19v-7h36v7H23z"></path>
        </g>
    </g></svg>