<svg xmlns="http://www.w3.org/2000/svg" width="16" height="32" viewBox="0 0 16 32">
    <g fill="#C4C4C4">
        <use href="#star" transform="translate(0,0)"/>
    </g>

    <g fill="#FFE03A">
        <use href="#star" transform="translate(0,16)"/>
    </g>
    <defs>
        <g id="star">
            <path d="M7.089 2.017c.354-.784 1.468-.784 1.823 0l1.083 2.396a1 1 0 0 0 .801.582l2.614.289c.855.095 1.2 1.154.563 1.733l-1.944 1.77a1 1 0 0 0-.306.942l.532 2.575c.174.843-.727 1.497-1.474 1.071l-2.285-1.302a1 1 0 0 0-.99 0L5.22 13.376c-.748.426-1.649-.229-1.474-1.071l.532-2.575a1 1 0 0 0-.306-.942l-1.944-1.77c-.636-.579-.292-1.639.563-1.733l2.614-.289a1 1 0 0 0 .801-.582l1.083-2.396z"/>
        </g>
    </defs>
</svg>
