<!-- Generated by IcoMoon.io -->
<svg version="1.1" xmlns="http://www.w3.org/2000/svg" width="1024" height="1024" viewBox="0 0 1024 1024">
<g id="icomoon-ignore">
</g>
<path d="M273.067 409.6c0-136.533 102.4-204.8 204.8-204.8h68.267c102.4 0 204.8 68.267 204.8 204.8v273.067c0 68.267-68.267 136.533-136.533 136.533h-5.827c-14.057-39.772-51.988-68.267-96.573-68.267-56.554 0-102.4 45.848-102.4 102.4 0 6.001 0.515 11.872 1.505 17.585-0.971 5.018-1.505 10.513-1.505 16.548 0 68.267 68.267 68.267 68.267 68.267h136.533c136.533 0 273.067-102.4 273.067-273.067v-4.496c68.267-19.758 68.267-97.904 68.267-97.904v-136.533c0 0 0-83.121-74.889-99.585-29.607-146.271-156.235-275.881-334.711-275.881h-68.267c-178.474 0-305.104 129.61-334.71 275.881-74.89 16.464-74.89 99.586-74.89 99.586v136.533c0 0 0 102.4 102.4 102.4s102.4-102.4 102.4-102.4v-136.533c0 0 0-7.524-2.040-18.493 2.040-9.067 2.040-15.64 2.040-15.64z"></path>
</svg>
