<svg width="20" height="20" viewBox="0 0 20 20" fill="none" xmlns="http://www.w3.org/2000/svg">
<path d="M12.6795 0L14.255 2.63015L17.3205 2.67949L17.3699 5.74501L20 7.32051L18.51 10L20 12.6795L17.3699 14.255L17.3205 17.3205L14.255 17.3699L12.6795 20L10 18.51L7.32051 20L5.74501 17.3699L2.67949 17.3205L2.63015 14.255L1.20365e-07 12.6795L1.49003 10L0 7.32051L2.63015 5.74501L2.67949 2.67949L5.74501 2.63015L7.32051 1.20365e-07L10 1.49003L12.6795 0Z" fill="#3897F0"/>
<path d="M5.59668 9.43506L8.50819 12.3916L13.6423 7.6603" stroke="white" stroke-width="2.36635"/>
</svg>
