<!-- Generated by IcoMoon.io -->
<svg version="1.1" xmlns="http://www.w3.org/2000/svg" width="1024" height="1024" viewBox="0 0 1024 1024">
<g id="icomoon-ignore">
</g>
<path d="M512 307.2c-200.764 0-341.333 204.8-341.333 204.8s102.396 204.8 341.333 204.8c240.934 0 341.333-204.8 341.333-204.8s-138.534-204.8-341.333-204.8zM512 648.533c-76.404 0-136.533-63.949-136.533-136.533s60.129-136.533 136.533-136.533c76.404 0 136.533 63.949 136.533 136.533s-60.129 136.533-136.533 136.533zM512 580.267c37.702 0 68.267-30.564 68.267-68.267s-30.564-68.267-68.267-68.267c-37.702 0-68.267 30.564-68.267 68.267s30.564 68.267 68.267 68.267z"></path>
</svg>
