<svg width="20" height="16" viewBox="0 0 20 16" fill="none" xmlns="http://www.w3.org/2000/svg">
  <path d="M0.984711 8C1.76847 3.73313 5.50678 0.5 10.0003 0.5C14.4937 0.5 18.232 3.73313 19.0158 8C18.232 12.2668 14.4937 15.5 10.0003 15.5C5.50678 15.5 1.76847 12.2668 0.984711 8ZM10.0003 12.1667C12.3014 12.1667 14.1669 10.3012 14.1669 8C14.1669 5.69882 12.3014 3.83333 10.0003 3.83333C7.69904 3.83333 5.83356 5.69882 5.83356 8C5.83356 10.3012 7.69904 12.1667 10.0003 12.1667ZM10.0003 10.5C8.61951 10.5 7.50023 9.38075 7.50023 8C7.50023 6.61925 8.61951 5.5 10.0003 5.5C11.3809 5.5 12.5003 6.61925 12.5003 8C12.5003 9.38075 11.3809 10.5 10.0003 10.5Z" fill="#8E919D" />
</svg>