<svg width="30" height="30" viewBox="0 0 30 30"><g>
    <circle cx="15" cy="15" r="15" fill="#4c6c91" stroke-width="0"></circle><path fill-rule="evenodd" d="M9.351 11H7.6c-.5 0-.6.223-.6.469 0 .439.593 2.617 2.763 5.498C11.21 18.934 13.247 20 15.102 20c1.113 0 1.25-.237 1.25-.645v-1.487c0-.474.105-.568.458-.568.26 0 .705.123 1.743 1.071C19.74 19.496 19.936 20 20.603 20h1.75c.5 0 .75-.237.606-.704-.158-.466-.724-1.142-1.476-1.943-.408-.457-1.02-.948-1.205-1.194-.26-.316-.186-.457 0-.738 0 0 2.133-2.845 2.355-3.811.111-.351 0-.609-.529-.609h-1.75c-.445 0-.65.223-.762.469 0 0-.89 2.055-2.151 3.39-.408.386-.593.509-.816.509-.111 0-.272-.123-.272-.474v-3.284c0-.421-.129-.609-.5-.609h-2.751c-.278 0-.445.196-.445.381 0 .4.63.492.695 1.616v2.441c0 .535-.102.632-.325.632-.593 0-2.037-2.064-2.893-4.426-.168-.459-.336-.645-.783-.645h0z" fill="#fff"></path>
</g></svg>