<!-- Generated by IcoMoon.io -->
<svg version="1.1" xmlns="http://www.w3.org/2000/svg" width="1024" height="1024" viewBox="0 0 1024 1024">
<g id="icomoon-ignore">
</g>
<path d="M339.968 201.114c44.032-125.406 109.773-201.114 172.032-201.114s128 75.708 172.032 201.114h-344.064zM345.634 27.853c-95.3 32.905-178.859 93.184-240.026 173.261h157.286c19.446-66.014 47.695-123.607 83.986-175.128l-1.247 1.867zM219.341 512c-0.341-79.872 7.919-159.607 24.439-237.773h-185.071c-36.999 68.929-58.737 150.812-58.737 237.773s21.737 168.843 60.075 240.512l-1.338-2.739h185.071c-15.543-70.265-24.447-150.971-24.447-233.757 0-1.412 0.003-2.823 0.008-4.233l-0.001 0.218zM292.591 512c-0.012 1.818-0.018 3.97-0.018 6.123 0 82.152 9.636 162.054 27.838 238.636l-1.401-6.987h385.911c16.802-69.596 26.437-149.497 26.437-231.65 0-2.153-0.007-4.305-0.020-6.455l0.002 0.332c0.012-1.818 0.018-3.97 0.018-6.123 0-82.152-9.636-162.054-27.838-238.636l1.401 6.987h-385.843c-16.844 69.681-26.504 149.681-26.504 231.937 0 2.052 0.006 4.102 0.018 6.151l-0.001-0.315zM918.391 201.114c-61.167-80.077-144.657-140.356-240.026-173.329 35.039 49.675 63.288 107.291 81.674 169.151l1.066 4.178h157.286zM678.366 996.215c95.3-32.905 178.859-93.252 240.026-173.329h-157.218c-19.452 66.039-47.7 123.654-83.989 175.201l1.25-1.872zM105.609 822.886c61.167 80.077 144.725 140.356 240.026 173.329-35.039-49.675-63.288-107.291-81.674-169.151l-1.066-4.178h-157.286zM780.22 274.227c16.521 78.097 24.781 157.901 24.439 237.773 0.341 79.872-7.919 159.607-24.439 237.773h185.071c36.988-68.921 58.719-150.792 58.719-237.739s-21.731-168.819-60.057-240.48l1.339 2.741h-185.071zM339.968 822.886c44.032 125.406 109.773 201.114 172.032 201.114s128-75.708 172.032-201.114h-344.064z"></path>
</svg>
