<?xml version="1.0" encoding="utf-8" ?>
<svg xmlns="http://www.w3.org/2000/svg" xmlns:xlink="http://www.w3.org/1999/xlink" width="1024" height="1024">
	<defs>
		<linearGradient id="gradient_0" gradientUnits="userSpaceOnUse" x1="165.59506" y1="256.16016" x2="346.16205" y2="202.4543">
			<stop offset="0" stop-color="#3B0B67"/>
			<stop offset="1" stop-color="#733396"/>
		</linearGradient>
	</defs>
	<path fill="url(#gradient_0)" transform="scale(2 2)" d="M252.371 134.622C284.554 131.863 318.028 151.1 335.17 177.619C363.498 221.445 352.097 279.661 307.788 308.05C254.097 342.45 182.39 315.779 164.656 254.395C152.612 212.706 171.137 170.622 207.499 147.726C212.533 144.695 216.247 148.135 213.975 151.161C211.907 153.917 206.526 156.42 203.56 158.538C188.05 169.616 175.55 188.971 170.814 207.184C158.655 253.936 188.914 302.124 235.25 313.93C307.854 332.43 371.888 252.158 331.753 184.762C316.386 158.957 289.822 143.212 260.031 141.093C256.972 140.875 243.966 141.889 243.145 141.57C241.813 141.054 235.396 134.477 252.371 134.622Z"/>
	<defs>
		<linearGradient id="gradient_1" gradientUnits="userSpaceOnUse" x1="207.2148" y1="250.77821" x2="312.94281" y2="213.18306">
			<stop offset="0" stop-color="#32035E"/>
			<stop offset="1" stop-color="#713395"/>
		</linearGradient>
	</defs>
	<path fill="url(#gradient_1)" transform="scale(2 2)" d="M254.722 172.613C264.371 171.807 265.139 182.721 267.45 189.615C269.731 196.424 272.426 203.18 274.221 210.135C284.755 209.439 296.403 210.3 307.273 209.845C313.236 209.595 317.061 217.468 312.506 221.764C311.223 222.975 309.663 223.985 308.263 225.06L299.936 231.556C297.159 233.737 294.197 236.75 291.184 238.516C288.779 239.926 285.554 237.932 285.913 235.076C286.279 232.158 304.948 219.002 307.861 216.762C304.738 216.577 301.598 216.731 298.471 216.745L281.531 216.779C265.179 216.798 269.163 215.992 264.145 200.884C262.961 197.318 258.118 181.983 256.273 179.436C253.512 179.847 247.576 211.489 243.442 215.706C241.349 217.841 232.105 216.782 229.183 216.78L204.392 216.762C209.653 220.107 233.924 236.412 236.257 240.072C238.305 243.283 226.009 270.187 224.581 276.338C227.81 273.163 231.303 270.97 235.055 268.482L247.131 260.469C250.828 258.417 254.136 253.545 258.69 255.96C267.098 260.419 280.55 271.341 288.414 277.157C287.447 272.502 285.692 268.403 283.97 264.004L278.738 250.728C277.597 247.907 272.67 239.775 278.042 238.477C282.985 237.283 286.734 252.541 287.989 255.723L292.521 267.028C293.511 269.491 294.742 272.061 295.268 274.667C296.267 279.614 290.446 285.096 285.634 282.969C279.031 280.052 262.647 267.049 256.474 262.485C253.102 264.307 249.935 266.702 246.776 268.878L233.782 277.711C227.235 282.14 219.485 288.339 216.146 277.157C217.68 269.251 226.387 250.867 229.785 243.257L208.537 228.119C205.072 225.618 197.036 221.614 196.958 216.656C196.822 208.106 209.148 210.123 214.456 210.122L239.085 210.135C240.633 203.613 242.837 197.11 244.767 190.688C246.696 184.267 247.203 174.713 254.722 172.613Z"/>
	<defs>
		<linearGradient id="gradient_2" gradientUnits="userSpaceOnUse" x1="216.43431" y1="397.50226" x2="335.38614" y2="383.15903">
			<stop offset="0" stop-color="#42106A"/>
			<stop offset="1" stop-color="#64298A"/>
		</linearGradient>
	</defs>
	<path fill="url(#gradient_2)" transform="scale(2 2)" d="M317.111 313.764C322.111 313.453 322.347 319.65 323.395 323.373C333.785 360.271 338.665 396.981 340.352 435.31C341.285 456.506 343.702 458.72 323.936 447.824L256.474 411.075C245.75 416.613 235.196 422.597 224.581 428.355C221.783 429.479 218.509 427.97 219.66 424.479C221.019 420.358 229.367 417.741 232.826 415.857L246.353 408.581C249.709 406.755 253.024 404.792 256.474 403.15C260.383 404.758 264.127 407.188 267.826 409.254L318.223 436.809C323.369 439.642 328.811 442.164 333.597 445.581C333.963 437.783 333.21 429.667 332.717 421.877C330.719 390.283 326.148 357.473 317.224 326.989C316.223 323.571 314.99 320.14 314.272 316.654L314.195 316.266C315.054 315.194 315.937 314.474 317.111 313.764Z"/>
	<path fill="#341F58" transform="scale(2 2)" d="M174.528 416.291C182.464 415.31 179.131 426.194 178.875 431.151C178.627 435.945 178.723 440.781 178.717 445.581C187.055 441.254 199.207 433.011 207.306 429.805C210.856 428.4 216.579 432.518 208.625 437.219C202.851 440.418 196.967 443.416 191.197 446.613C188.375 448.177 172.599 459.643 171.508 452.212C170.754 447.079 170.054 419.616 174.528 416.291Z"/>
	<path fill="#341F58" transform="scale(2 2)" d="M167.187 325.725C182.142 324.478 152.504 350.05 150.838 351.798C143.236 359.773 132.085 372.693 123.684 379.472C112.937 378.011 124.655 368.319 127.335 365.606L158.211 334.106C160.995 331.284 163.77 327.721 167.187 325.725Z"/>
	<path fill="#341F58" transform="scale(2 2)" d="M191.666 317.054C199.823 317.676 193.47 328.886 192.008 334.021C189.571 342.58 187.541 351.241 185.922 359.993C184.785 366.143 184.905 381.883 179.58 383.754C173.121 383.656 175.967 376.163 176.571 372.212C177.591 365.539 185.29 319.511 191.666 317.054Z"/>
	<path fill="#341F58" transform="scale(2 2)" d="M350.551 327.496C354.821 327.152 374.105 349.47 378.395 353.787L392.055 367.674C394.902 370.588 402.722 375.85 396.525 379.472C392.43 380.092 387.296 372.635 384.719 369.95C380.148 365.187 375.487 360.48 370.843 355.787L355.938 340.718C352.238 336.934 343.895 331.442 350.551 327.496Z"/>
	<path fill="#341F58" transform="scale(2 2)" d="M123.684 107.236C126.87 107.155 130.934 112.794 133.118 114.94L162.804 144.154C165.741 147.056 169.959 150.126 171.479 154.077C170.647 155.917 170.064 156.521 168.302 157.503C164.794 157.554 161.13 152.46 158.862 150.219L128.776 120.142C124.898 116.281 116.47 111.05 123.684 107.236Z"/>
	<path fill="#341F58" transform="scale(2 2)" d="M69.7902 236.272C73.764 235.654 81.0896 236.265 85.3451 236.268L113.364 236.267C119.536 236.269 127.38 235.564 133.356 237.053C135.812 239.372 135.132 242.019 132.189 243.257C129.755 243.535 127.135 243.304 124.674 243.283L111.893 243.256C98.5709 243.253 85.1753 243.582 71.8616 243.211C67.5606 243.091 64.8335 238.081 69.7902 236.272Z"/>
	<path fill="#6D3494" transform="scale(2 2)" d="M394.045 107.236C396.605 107.042 399.006 108.732 397.726 111.618C396.914 113.449 356.818 153.351 352.261 155.558C349.944 155.494 347.528 153.809 348.514 151.164C348.842 150.286 389.367 109.3 394.045 107.236Z"/>
	<path fill="#6D3494" transform="scale(2 2)" d="M383.694 236.272C402.201 237.089 421.419 235.761 439.546 236.879C447.1 237.346 445.984 242.652 442.25 243.257C440.443 243.539 438.307 243.319 436.467 243.307L400.945 243.233C397.441 243.237 377.862 245.505 381.354 238.013C381.877 236.893 382.598 236.655 383.694 236.272Z"/>
	<path fill="#341F58" transform="scale(2 2)" d="M256.474 53.722C261.659 53.8831 260.319 59.5047 260.309 63.0948L260.295 114.303C259.396 115.47 258.749 116.049 257.341 116.543C253.91 116.52 253.596 114.587 253.478 111.717C253.24 105.986 253.028 57.713 253.864 55.6969C254.275 54.7064 255.59 54.1683 256.474 53.722Z"/>
	<path fill="#341F58" transform="scale(2 2)" d="M136.605 287.547C139.052 287.747 141.546 289.843 140.28 292.49C139.037 295.089 128.973 297.894 126.002 298.882C123.703 298.987 120.8 297.352 121.836 294.623C122.975 291.624 133.534 288.682 136.605 287.547Z"/>
	<path fill="#341F58" transform="scale(2 2)" d="M120.465 185.248C125.054 185.07 142.743 189.205 134.891 196.348C131.993 196.358 111.49 191.673 120.465 185.248Z"/>
	<path fill="#341F58" transform="scale(2 2)" d="M315.322 102.293C325.129 100.979 315.894 116.535 312.834 118.757C303.537 120.075 312.586 104.245 315.322 102.293Z"/>
	<path fill="#341F58" transform="scale(2 2)" d="M373.335 285.264C377.937 285.001 386.243 289.554 380.903 294.555C376.686 294.144 366.213 289.919 373.335 285.264Z"/>
	<path fill="#341F58" transform="scale(2 2)" d="M175.937 394.274C183.443 393.717 182.093 403.902 178.185 405.766C172.142 405.865 171.945 397.1 175.937 394.274Z"/>
	<path fill="#341F58" transform="scale(2 2)" d="M380.903 188.086C383.578 188.008 384.831 190.687 383.62 193.032C382.609 194.987 377.799 195.776 375.782 196.348C369.821 195.95 370.742 189.457 380.903 188.086Z"/>
	<path fill="#341F58" transform="scale(2 2)" d="M257.341 371.247C263.305 371.272 263.263 380.848 258.691 382.849C253.2 382.825 252.729 373.28 257.341 371.247Z"/>
	<path fill="#341F58" transform="scale(2 2)" d="M256.474 344.259C263.434 343.87 263.037 352.8 259.453 355.151C253.344 356.632 252.625 346.989 256.474 344.259Z"/>
	<path fill="#341F58" transform="scale(2 2)" d="M204.392 115.721C207.481 115.779 212.284 124.595 207.499 127.448C205.082 127.622 196.546 119.655 204.392 115.721Z"/>
	<path fill="#341F58" transform="scale(2 2)" d="M394.984 294.555C398.527 296.26 407.542 300.607 399.19 303.652C394.767 302.412 386.355 297.693 394.984 294.555Z"/>
	<path fill="#341F58" transform="scale(2 2)" d="M402.145 180.82C409.589 182.289 403.827 187.47 398.146 189.038C395.752 189.504 389.594 184.029 402.145 180.82Z"/>
	<path fill="#341F58" transform="scale(2 2)" d="M192.682 95.061C197.909 94.6643 201.543 102.967 196.573 105.404C192.29 105.483 188.304 97.4599 192.682 95.061Z"/>
	<path fill="#341F58" transform="scale(2 2)" d="M228.423 138.774C232.42 138.597 233.77 144.196 226.23 146.339C220.586 145.942 221.143 140.697 228.423 138.774Z"/>
</svg>
