<?xml version="1.0" encoding="utf-8" ?>
<svg xmlns="http://www.w3.org/2000/svg" xmlns:xlink="http://www.w3.org/1999/xlink" width="1024" height="1024">
	<path fill="#975ACF" transform="scale(1.6 1.6)" d="M307.951 360.368C314.115 359.974 320.795 360.102 326.942 360.672C331.226 361.07 338.651 361.095 335.724 367.445C334.888 369.259 334.343 369.64 332.518 370.305L318.41 370.044C312.327 369.975 302.731 372.248 303.826 362.821C305.107 361.467 306.177 360.959 307.951 360.368Z"/>
	<defs>
		<linearGradient id="gradient_0" gradientUnits="userSpaceOnUse" x1="550.59216" y1="399.31726" x2="437.6044" y2="463.63922">
			<stop offset="0" stop-color="#311D4E"/>
			<stop offset="1" stop-color="#612D95"/>
		</linearGradient>
	</defs>
	<path fill="url(#gradient_0)" transform="scale(1.6 1.6)" d="M425.106 472.47L550.727 471.543L550.494 442.919C549.17 410.668 544.421 395.836 513.941 383.995L497.7 377.653C491.267 375.033 484.972 371.983 478.885 368.642C468.94 373.94 458.834 381.89 449.256 386.519C443.484 389.309 439.791 382.311 444.602 378.136C448.769 374.521 454.099 371.661 458.736 368.674C465.063 364.599 474.326 355.798 482.234 359.038L499.169 366.759C526.97 378.062 551.35 383.521 558.542 417.835C562.095 434.785 561.39 453.012 561.27 470.203C561.177 483.535 551.755 481.527 542.031 481.272L430.322 481.284C427.905 480.866 425.135 481.244 422.661 481.258L405.156 480.784C406.66 481.337 421.237 480.966 423.125 480.861L445.781 480.938C446.47 480.933 446.951 480.802 447.689 480.899L447.505 480.057C445.309 479.195 445.133 475.106 445.171 473.166L433.742 473.283C428.795 473.34 423.992 472.888 418.998 472.931L406.562 472.842C405.228 472.832 403.746 473.136 402.465 472.713L425.106 472.47Z"/>
	<defs>
		<linearGradient id="gradient_1" gradientUnits="userSpaceOnUse" x1="250.05252" y1="250.81665" x2="138.35001" y2="306.41254">
			<stop offset="0" stop-color="#6C32A6"/>
			<stop offset="1" stop-color="#9F5AE2"/>
		</linearGradient>
	</defs>
	<path fill="url(#gradient_1)" transform="scale(1.6 1.6)" d="M235.097 238.065C233.006 233.252 231.531 238.579 229.443 240.781C225.909 244.509 220.5 247.233 215.469 248.072C209.602 249.051 206.33 245.54 201.46 242.865C191.944 237.638 180.272 238.224 170.9 243.386C167.824 245.08 165.288 247.095 161.875 248.152L161.506 248.271C157.133 249.612 154.017 246.66 152.362 243.07C167.744 228.583 193.47 225.664 211.604 236.284C216.871 239.369 225.033 225.81 236.183 226.452C249.268 233.937 240.308 273.739 243.701 279.776C246.182 284.191 248.47 282.864 249.157 289.08C251.385 309.229 239.047 303.933 237.94 309.255L236.898 314.099C231.933 332.952 220.048 349.689 200.357 355.094C174.169 362.282 148.243 332.843 146.078 307.962C129.825 304.856 131.586 286.759 142.33 277.579C141.095 263.584 133.732 239.545 142.079 229.739C145.67 225.521 151.422 224.686 155.938 221.906C158.048 220.606 159.807 218.377 161.561 216.623C177.121 201.055 198.267 208.396 215.495 215.888C225.471 220.226 227.677 220.721 221.1 232.275C213.326 226.391 202.849 219.302 192.969 217.768L192.511 217.69C174.767 214.889 173.565 219.567 162.286 228.031C145.061 240.956 145.924 231.848 149.846 255.869L152.218 271.114C153.557 278.658 157.041 284.628 146.811 287.166C142.187 288.313 144.406 293.665 145.137 297.829C156.149 297.987 154.435 300.528 156.309 310.84C164.523 356.045 220.455 359.789 228.446 305.781C229.063 301.612 229.845 299.739 234.375 298.438L234.886 298.285C236.673 297.776 238.487 297.705 240.331 297.602L239.914 286.648C239.169 286.202 238.156 285.744 237.631 285.065C228.107 284.503 229.914 282.302 230.021 274.068C230.156 263.755 227.088 260.07 226.392 252.121C225.966 247.263 233.132 244.315 235.927 240.938C235.768 239.956 235.405 239.009 235.097 238.065Z"/>
	<defs>
		<linearGradient id="gradient_2" gradientUnits="userSpaceOnUse" x1="505.04642" y1="262.71689" x2="389.86292" y2="297.81125">
			<stop offset="0" stop-color="#261544"/>
			<stop offset="1" stop-color="#8F50D0"/>
		</linearGradient>
	</defs>
	<path fill="url(#gradient_2)" transform="scale(1.6 1.6)" d="M398.21 274.176C397.613 270.843 397.655 267.459 397.169 264.113C395.866 255.137 392.499 245.161 394.262 236.1L394.993 233.335C397.099 226.628 408.788 223.34 414.154 219.772C418.69 216.756 421.823 212.455 426.874 209.984C441.155 203 461.309 208.346 473.746 216.541C475.817 217.907 477.682 219.555 479.742 220.941C492.27 229.373 503.661 236.961 497.995 255.388C497.467 257.106 497.819 260.001 497.821 261.847L497.855 277.949C503.011 283.49 505.601 288.081 505.315 295.777C504.848 308.302 496.068 306.761 494.174 308.783C494.16 308.799 492.395 317.413 492.031 318.612C486.868 335.607 472.252 352.963 453.688 355.018L453.37 355.117C443.022 357.593 431.261 353.34 422.892 347.372C409.963 340.386 401.599 321.791 401.158 307.852C392.915 307.867 389.88 301.898 389.759 294.123C389.641 286.482 393.206 281.131 398.281 275.831L398.21 274.176ZM404.962 250.284C406.852 257.981 407.579 265.863 408.783 273.681C409.686 279.547 411.655 283.536 403 285.493L400.913 285.933C399.536 290.187 399.484 294.351 400.581 298.686C407.147 298.828 408.821 298.64 410.053 305.492L411.603 313.52C414.113 324.317 419.428 332.714 428.061 339.597C434.503 343.584 441.089 345.826 448.77 345.658C467.574 343.068 480.148 327.205 483.605 309.039C484.439 304.659 484.881 298.198 490.588 297.827L495.728 297.428C497.69 283.11 492.337 289.091 488.327 286.499L487.313 285.815C482.544 282.218 487.493 273.311 486.442 266.688L486.366 266.25C484.555 254.681 477.321 254.261 488.973 244.988C488.707 243.703 488.406 242.487 487.926 241.263L487.734 240.781C487.103 239.13 486.24 238.202 485.034 236.955C480.258 242.152 475.703 246.293 468.609 248.068C457.72 250.793 453.064 237.461 435.427 239.294C428.036 241.589 422.217 246.326 416.559 247.773C413.187 248.635 405.501 243.965 408.518 240.469C411.918 236.529 429.508 230.153 436.657 230.024C443.909 229.935 450.135 230.529 456.929 233.274C465.456 236.721 465.3 241.289 473.18 233.189L475.209 231.027C474.605 229.825 472.88 228.879 471.775 228.106C459.84 219.765 443.146 212.662 428.963 220.02C424.961 222.097 422.686 225.68 419.193 228.254C407.299 237.022 402.294 230.461 404.962 250.284Z"/>
	<defs>
		<linearGradient id="gradient_3" gradientUnits="userSpaceOnUse" x1="442.3313" y1="352.68808" x2="424.92929" y2="338.30981">
			<stop offset="0" stop-color="#5C2990"/>
			<stop offset="1" stop-color="#894CC7"/>
		</linearGradient>
	</defs>
	<path fill="url(#gradient_3)" transform="scale(1.6 1.6)" d="M422.892 347.372C422.347 346.144 421.955 345.671 420.729 345.073L420.391 344.922C421.268 344.369 422.148 342.795 422.535 341.832L422.654 341.473C424.391 340.788 424.584 339.685 425.781 338.438L428.061 339.597C434.503 343.584 441.089 345.826 448.77 345.658L447.155 347.09C445.748 348.329 444.284 349.881 443.39 351.534C441.852 354.377 441.3 353.901 443.906 355L444.375 354.923C446.433 354.707 449.464 355.617 451.25 354.534L451.607 354.576C452.399 354.664 452.761 354.777 453.516 354.453L453.688 355.018L453.37 355.117C443.022 357.593 431.261 353.34 422.892 347.372Z"/>
	<path fill="#975ACF" transform="scale(1.6 1.6)" d="M430.322 481.284C427.172 481.783 423.203 481.275 419.95 481.274L95.4528 481.296C93.0768 481.363 90.6556 481.653 88.2919 481.33L87.8125 481.255C80.1526 480.101 80.0111 472.774 79.9908 466.885L80.9814 430.215C83.7268 399.564 95.1029 386.886 122.997 375.815L160.718 359.207C166.644 356.758 180.944 368.855 186.502 372.344C190.704 374.982 195.644 376.558 198.381 380.915C197.3 393.288 188.047 385.018 182.499 381.435L163.441 369.325L112.5 390.861C92.6838 401.054 90.7437 421.143 89.5933 440.932L89.002 472.543L184.146 472.504L185.318 451.719C188.285 417.26 191.013 388.648 224.684 370.415L275.148 344.51C288.058 336.95 285.752 339.439 291.65 350.674C298.809 364.308 305.621 379.198 319.335 387.431C330.678 382.345 339.754 368.179 345.265 357.188C355.713 336.352 352.537 338.905 370.469 347.323L415.05 369.033C439.245 382.644 446.559 394.325 451.938 422.5C454.051 433.569 455.631 444.615 456.294 455.875C456.486 459.138 457.659 471.598 449.74 466.456C445.06 463.418 446.35 454.597 445.837 449.873C443.644 429.697 442.334 403.829 427.005 388.785C423.128 384.98 417.916 382.058 413.23 379.378L393.523 368.918C388.978 366.673 383.503 364.53 379.343 361.702L379.119 361.547C376.92 363.756 375.315 367.101 373.751 369.809L330.54 450.278C329.534 452.304 328.698 454.406 327.969 456.547C326.9 459.683 323.613 471.246 317.576 465.621C315.603 463.783 314.767 459.721 313.483 457.292L282.154 398.438L261.542 362.367C258.299 364.359 255.314 366.396 251.905 368.129C204.077 392.453 201.677 393.051 195.927 444.688C194.903 453.889 193.864 462.946 193.525 472.21L425.106 472.47L402.465 472.713C403.746 473.136 405.228 472.832 406.562 472.842L418.998 472.931C423.992 472.888 428.795 473.34 433.742 473.283L445.171 473.166C445.133 475.106 445.309 479.195 447.505 480.057L447.689 480.899C446.951 480.802 446.47 480.933 445.781 480.938L423.125 480.861C421.237 480.966 406.66 481.337 405.156 480.784L422.661 481.258C425.135 481.244 427.905 480.866 430.322 481.284ZM280.834 352.135C277.503 353.873 273.446 356.188 270.679 358.721L311.616 434.075L315.135 439.989L315.281 397.07C302.812 388.682 294.574 376.379 287.43 363.422L282.954 355.131C282.411 354.118 281.866 352.732 280.834 352.135ZM359.551 352.346C352.706 366.958 339.046 388.809 325.027 395.804L325.144 420.963C325.146 427.159 324.963 433.341 325.913 439.485L329.231 432.725L370.237 356.876L362.878 353.672C361.842 353.219 360.672 352.508 359.551 352.346Z"/>
	<path fill="#975ACF" transform="scale(1.6 1.6)" d="M316.388 144.857C338.099 144.224 348.967 153.298 365.818 165.986C375.205 173.053 390.88 183.671 386.364 197.64L386.202 198.113C389.127 205.204 390.484 222.933 388.491 230.492C387.387 234.682 384.989 238.856 384.466 243.115L385.167 243.58C388.271 245.877 390.622 251.953 391.229 255.721L391.962 261.21C393.1 278.382 380.094 275.414 378.493 282.347L376.777 289.033C370.022 313.553 351.013 333.836 324.453 335.005C313.352 335.536 303.736 334.1 294.343 327.833C279.321 317.81 266.131 300.235 263.99 281.84C262.844 271.994 262.22 280.217 257.293 276.735L257.031 276.536C248.252 270.356 250.162 250.432 258.521 244.42L258.788 244.233C259.208 243.259 257.934 239.179 257.723 237.812L253.599 210.98C252.371 204.678 249.319 198.652 250.18 192.094C251.628 181.081 260.439 178.875 267.765 173.092L268.125 172.805C287.289 157.77 287.766 146.943 316.388 144.857ZM372.049 184.066C369.194 192.445 358.433 201.749 349.397 200.103C345.614 199.415 342.09 197.076 338.776 195.228C328.288 189.378 317.001 185.815 304.852 187.394L304.219 187.48C296.841 188.431 289.726 191.793 283.346 195.512C276.245 199.65 271.556 204.67 266.109 195.541L266.544 194.93C269.006 191.44 272.953 189.601 276.57 187.509C308.277 169.172 322.69 177.37 351.961 189.931C358.044 187.284 362.436 183.112 367.856 179.438C348.672 166.994 333.858 150.121 308.69 155.163C294.109 158.084 284.74 170.118 274.134 179.387C269.195 183.703 261.07 188.022 258.788 194.482C259.844 198.567 261.361 202.536 262.281 206.655C264.243 215.431 265.151 224.473 266.719 233.332C267.424 237.319 272.866 250.095 266.007 251.349L263.059 251.629C261.792 253.386 261.23 254.591 260.918 256.719L260.838 257.239C260.358 260.594 260.936 264.903 262.372 267.936L262.761 268.784C273.348 268.337 271.94 270.283 273.682 280.198C283.98 338.834 355.978 340.384 368.282 281.882C369.695 275.16 369.719 267.508 379.062 268.731C383.532 267.146 383.775 258.605 382.215 255.117C379.058 248.054 370.655 257.767 374.542 242.113C376.122 235.749 380.034 214.11 376.229 208.085C372.697 202.493 368.37 200.991 378.13 195.062L378.807 194.667C377.212 190.416 375.591 187.159 372.758 183.594L372.049 184.066Z"/>
</svg>
