<?xml version="1.0" encoding="utf-8" ?>
<svg xmlns="http://www.w3.org/2000/svg" xmlns:xlink="http://www.w3.org/1999/xlink" width="1024" height="1024">
	<defs>
		<linearGradient id="gradient_0" gradientUnits="userSpaceOnUse" x1="581.41528" y1="499.70435" x2="145.59889" y2="170.84003">
			<stop offset="0" stop-color="#1D1032"/>
			<stop offset="1" stop-color="#874DCB"/>
		</linearGradient>
	</defs>
	<path fill="url(#gradient_0)" transform="scale(1.6 1.6)" d="M119.375 258.092L119.313 257.771C118.668 252.748 119.293 247.368 119.683 242.344C126.721 151.49 218.316 90.5938 304.914 124.262C310.574 126.463 316.545 128.902 321.544 132.379C327.397 135.472 333.737 139.933 338.698 144.297C391.447 184.977 407.411 263.07 373.916 320.902C371.533 325.017 369.085 329.286 366.153 333.043C365.29 334.149 362.565 336.548 362.3 337.765L362.698 338.092C367.431 342.008 383.1 358.096 385.137 362.925C383.397 365.304 381.923 366.182 379.219 367.151C373.755 365.059 360.513 349.611 356.781 344.768L345.268 357.01C348.811 359.735 351.922 363.27 355.07 366.447L407.538 418.868C411.586 414.781 415.573 410.332 420.104 406.787L407.133 394.552C403.094 390.688 398.709 386.797 396.227 381.705C397.764 379.561 399.111 378.415 401.408 377.072C410.885 383.777 418.787 392.774 427.369 400.555C448.559 394.145 458.823 405.231 472.358 418.538L536.22 482.875C542.607 489.201 550.316 495.259 555.021 502.969C565.862 520.733 556.691 535.279 543.962 547.803C534.851 556.769 524.983 563.558 511.551 561.048L511.158 560.98C500.244 558.995 491.821 548.527 484.559 540.952L421.898 477.591C409.534 465.061 389.096 449.74 399.609 429.043C399.732 428.799 400.781 427.025 400.762 426.908C400.668 426.331 357.372 382.638 352.695 377.905L343.1 368.213C341.433 366.492 339.545 364.748 338.121 362.82C328.996 369.512 319.302 375.727 308.962 380.372C263.674 400.721 211.793 394.451 173.045 363.924C169.509 361.138 165.562 358.285 162.42 355.07L161.186 354.135C134.553 330.272 120.81 293.246 119.375 258.092ZM127.972 257.507C130.248 290.211 138.351 314.588 160.259 340.349C162.937 343.497 165.989 346.245 168.762 349.284C204.124 382.125 258.619 392.045 303.04 372.823C383.232 338.122 409.801 234.844 350.746 167.183C346.127 161.89 340.881 157.616 335.903 152.741L318.772 140.825C315.019 138.806 311.38 136.632 307.484 134.886C248.61 108.497 176.498 130.382 145.632 188.125C133.864 210.14 127.006 232.157 127.972 257.507ZM435.825 408.491C428.704 410.302 424.087 416.365 419.086 421.304C411.106 429.187 403.521 434.292 407.592 446.745L408.174 448.25C408.904 450.083 410.151 451.793 411.479 453.236L502.559 544.088C508.261 549.317 512.389 551.669 520.308 551.368C529.182 549.417 541.768 537.659 546.818 529.688C557.77 512.4 536.418 497.189 525.751 486.474L460.309 419.768C452.738 412.151 447.223 407.671 435.825 408.491Z"/>
	<defs>
		<linearGradient id="gradient_1" gradientUnits="userSpaceOnUse" x1="363.95938" y1="307.09698" x2="146.97942" y2="199.76862">
			<stop offset="0" stop-color="#43256E"/>
			<stop offset="1" stop-color="#AE5BF9"/>
		</linearGradient>
	</defs>
	<path fill="url(#gradient_1)" transform="scale(1.6 1.6)" d="M134.725 248.706C134.505 244.449 135.237 239.827 135.934 235.625C142.293 197.331 165.561 162.193 200.418 144.111C235.815 125.749 280.625 126.696 315.093 146.752L324.127 152.668C324.848 153.193 326.155 153.969 326.612 154.707C331.832 158.311 336.667 162.773 341.153 167.248C383.435 209.435 388.044 275.828 353.618 324.836C316.621 377.504 239.747 392.396 186.814 354.937L185.54 353.988C183.784 353.175 182.198 351.684 180.685 350.485C148.525 324.998 133.948 288.802 134.725 248.706ZM143.029 258.981C146.289 285.528 151.796 306.981 170.341 327.924C170.281 301.876 166.91 274.781 191.589 257.874C200.209 251.969 210.487 248.826 220.66 246.872C218.638 243.982 216.468 241.251 214.666 238.209C192.922 201.495 222.471 159.532 265.217 165.255C305.797 170.687 318.663 228.257 284.844 252.093C270.861 261.949 253.304 263.753 237.313 257.994C228.873 254.954 229.199 254.143 220.023 256.069C201.026 260.055 184.189 270.083 180.339 290.312C178.86 298.082 179.122 328.761 180.331 336.542L321.429 336.624L319.044 337.075C322.617 337.739 325.803 336.675 329.219 337.034L328.818 337.283C326.67 338.655 322.203 342.162 320.993 344.008C326.108 341.36 337.837 331.549 340.846 326.562C344.121 322.836 346.737 318.769 349.327 314.551C373.885 274.562 373.037 227.171 348.022 188.219C341.803 178.535 332.304 169.922 323.433 162.723L309.803 153.622C301.421 149.29 293.012 145.409 283.906 142.813C234.219 128.645 178.743 155.009 155.413 200.506C147.65 215.645 143.892 231.933 142.914 248.85C142.72 252.206 143.262 255.699 143.029 258.981ZM252.059 173.565C216.836 176.488 203.847 222.739 231.25 243.779C239.057 249.774 249.671 252.699 259.467 251.978C313.709 244.941 300.788 168.7 252.059 173.565ZM191.016 346.379C193.867 348.292 196.549 350.372 199.526 352.105C235.119 372.819 285.544 372.071 318.108 345.796C313.514 345.245 309.054 345.867 304.484 346.056L198.594 346.067C196.373 346.064 193.009 345.48 191.016 346.379Z"/>
	<path fill="#975ACF" transform="scale(1.6 1.6)" d="M321.429 336.624C332.718 336.493 332.235 335.778 332.25 324.828L332.215 299.168C332.194 295.066 332.268 290.341 331.038 286.406C329.753 282.3 326.279 279.627 324.487 275.807C321.899 270.294 331.363 262.99 338.102 279.272C344.461 294.636 341.349 310.554 340.846 326.562C337.837 331.549 326.108 341.36 320.993 344.008C322.203 342.162 326.67 338.655 328.818 337.283L329.219 337.034C325.803 336.675 322.617 337.739 319.044 337.075L321.429 336.624Z"/>
</svg>
