<?xml version="1.0" encoding="utf-8" ?>
<svg xmlns="http://www.w3.org/2000/svg" xmlns:xlink="http://www.w3.org/1999/xlink" width="1024" height="1024">
	<path fill="#341F58" transform="scale(1.6 1.6)" d="M522.681 199.726C524.324 199.672 526.136 199.507 527.694 200.112C541.512 205.477 542.715 245.778 542.718 257.492C542.723 272.556 542.114 288.467 536.54 302.656C531.104 316.495 519.067 319.004 513.429 304.573C510.427 295.75 508.568 286.66 507.137 277.471C506.171 277.849 505.129 278.327 504.105 278.494L503.75 278.548C500.143 279.141 495.729 279.638 492.1 279.152L491.562 279.069C485.582 278.192 485.925 273.12 485.95 268.281L485.756 237.338C485.859 233.193 488.426 232.49 491.859 232.594L507.462 233.533C509.337 222.728 510.564 203.493 522.681 199.726ZM524.38 208.808C515.643 220.665 515.972 244.064 515.979 258.437C515.982 265.525 518.111 301.912 525.28 304.795C528.553 300.917 529.663 295.915 530.75 291.066C534.506 274.309 537.149 222.163 524.38 208.808ZM505.43 242.656C502.298 242.743 498.992 242.621 495.906 243.17L495.413 265.816C495.379 266.839 495.175 267.868 495.591 268.817L496.484 268.973L506.57 269.063C506.57 265.631 507.077 243.979 506.221 242.656L505.43 242.656Z"/>
	<path fill="#341F58" transform="scale(1.6 1.6)" d="M424.333 479.53L461.194 479.465C482.414 478.865 492.02 489.978 492.983 510.389L493.566 522.88C490.165 529.429 483.197 527.262 476.9 527.263L147.969 527.273L82.1875 527.182C76.3159 526.622 78.2101 507.742 78.6816 503.387L78.7467 502.812C79.9478 491.688 89.7219 481.726 100.766 480.158C104.526 479.624 108.371 479.761 112.158 479.76L394.561 479.766C404.444 479.765 414.47 480.115 424.333 479.53ZM107.379 488.59C105.247 488.677 103.155 488.675 101.094 489.267L100.507 489.429C86.9617 493.233 87.1257 506.2 87.4719 517.734L462.969 517.841L477.301 517.936C479.256 517.927 481.777 518.197 483.653 517.754C483.784 512.651 484.262 506.777 482.775 501.875L482.62 501.346C478.489 487.616 463.293 488.56 451.842 488.55L107.379 488.59Z"/>
	<defs>
		<linearGradient id="gradient_0" gradientUnits="userSpaceOnUse" x1="448.12518" y1="475.14484" x2="168.00607" y2="179.61777">
			<stop offset="0" stop-color="#150D2F"/>
			<stop offset="1" stop-color="#854FC0"/>
		</linearGradient>
	</defs>
	<path fill="url(#gradient_0)" transform="scale(1.6 1.6)" d="M184.093 314.799C183.837 313.514 183.859 312.388 184.104 311.094L184.219 310.591C173.288 309.242 168.899 297.925 168.808 288.281L168.802 200.765C168.833 183.196 170.516 173.005 189.688 171.815L227.609 171.506L227.491 141.185C227.492 132.444 225.392 117.971 238.131 116.243L238.594 116.187C246.188 115.173 252.618 117.911 255.55 125.365L255.735 125.853C256.454 127.696 256.414 129.873 256.495 131.84L256.64 172.27L339.108 171.605L415.11 171.462C417.85 171.325 417.648 171.998 417.754 169.269L418.034 136.885C418.116 133.038 417.449 129.161 418.798 125.469C421.988 122.582 427.182 123.256 427.436 127.962C427.693 132.737 427.492 137.614 427.49 142.401L427.528 171.391L447.06 171.553C451.732 171.533 457.131 170.665 461.641 171.89C475.961 175.779 478.437 186.365 478.421 198.798L478.378 396.714C478.08 404.867 475.709 410.315 469.689 415.781L467.107 417.768C463.428 420.384 458.942 420.961 454.568 421.333L454.657 441.012L466.985 441.243C469.282 441.216 472.268 440.68 474.454 441.168C477.974 441.954 480.727 450.336 470.599 450.322L123.425 450.285C120.49 450.264 109.206 451.478 111.988 444.743C113.871 440.184 118.531 441.262 122.507 441.26L444.671 441.36L444.982 421.526L415.792 421.358C408.918 421.373 401.65 422.203 395.248 419.155L394.78 418.937C391.854 417.552 389.318 415.56 387.234 413.096L386.842 412.638C380.33 404.947 380.951 396.177 380.941 386.719L380.952 278.95C380.953 276.04 381.244 272.839 380.576 270L380.462 269.497C377.076 256.176 359.962 258.707 349.737 258.704L293.274 258.698C278.897 258.695 272.025 257.326 264.207 271.815L255.893 288.125C252.257 295.568 249.292 305.908 240.488 308.627L237.586 309.299C235.377 323.912 227.727 331.581 213.51 333.589L213.575 356.884C213.576 362.697 215.028 366.843 207.975 368.462C202.318 365.613 204.059 361.158 204.057 355.604L204.091 333.854C195.094 332.57 184.176 324.898 184.093 314.799ZM346.099 180.303C340.031 180.957 333.95 180.801 327.856 180.806L196.055 180.796C188.467 180.796 178.948 179.003 177.878 189.55C177.335 194.899 177.896 200.85 177.884 206.247L178.573 280.388C178.641 286.241 177.621 293.271 180.721 298.537C183.718 300.135 186.447 300.155 189.741 300.574C200.234 301.541 222.304 301.637 232.893 300.682C242.016 299.86 241.462 297.145 245.243 289.467L254.312 271.185C265.258 249.828 272.956 249.714 293.978 249.698L352.09 249.693C366.724 249.693 384.736 248.686 389.683 267.055L389.797 267.497C390.775 271.151 390.394 275.179 390.377 278.931L390.35 385.189C390.309 394.499 388.794 407.258 399.855 411.167L400.312 411.324C404.223 412.755 407.7 412.25 411.738 412.193L445.068 412.18C461.995 412.208 468.881 410.775 468.89 391.676L468.89 201.567C468.906 182.445 466.719 180.502 449.002 180.768L364.334 180.823C358.282 180.825 352.109 181.121 346.099 180.303ZM197.85 309.842C194.913 309.92 191.864 309.836 188.964 310.315C190.379 312.401 191.384 314.774 192.845 316.806C198.046 324.04 210.229 326.196 218.243 323.117C222.105 321.55 225.289 318.406 226.904 314.53L228.34 310.064L197.85 309.842ZM241.257 125.937C235.726 128.611 236.891 136.268 238.219 141.302L242.568 141.725C243.756 141.563 244.663 141.694 245.469 140.744C246.637 136.447 247.871 126.132 241.257 125.937ZM238.507 158.517L238.421 171.34L246.172 171.382L246.102 158.536L238.507 158.517Z"/>
	<path fill="#975ACF" transform="scale(1.6 1.6)" d="M411.41 281.11L436.937 280.925C448.395 280.92 457.698 277.223 452.188 293.438C450.868 294.644 447.913 294.437 446.206 294.505L422.49 294.355C418.14 294.347 412.835 294.83 408.637 293.855L407.498 293.567C401.515 291.738 403.189 281.899 411.41 281.11Z"/>
	<path fill="#975ACF" transform="scale(1.6 1.6)" d="M412.115 256.705C420.224 255.833 438.553 256.042 446.654 256.824C455.504 257.677 455.751 261.59 452.166 269.861C450.081 270.334 447.987 270.312 445.859 270.348C437.159 271 422.178 271.16 413.339 270.468C402.398 269.612 400.661 258.715 412.115 256.705Z"/>
	<path fill="#975ACF" transform="scale(1.6 1.6)" d="M431.979 330.782L444.799 330.852C447.531 330.883 450.75 330.537 453.281 331.682C455.117 334.31 454.49 341.686 452.412 343.737C450.067 346.051 430.332 345.219 426.262 345.214L415.873 345.229C413.811 345.263 411.422 345.538 409.401 345.116L409.062 345.038C402.133 343.53 402.473 333.222 409.214 331.203C411.636 330.477 414.822 330.796 417.353 330.79L431.979 330.782Z"/>
	<path fill="#975ACF" transform="scale(1.6 1.6)" d="M414.811 306.091L448.276 306.211C456.73 306.605 454.61 313.372 452.387 320.066C449.456 320.798 446.401 320.687 443.398 320.722L421.185 320.577C417.326 320.563 412.794 320.888 409.03 320.101C404.026 319.056 402.443 311.696 405.769 308.174C407.899 305.918 411.946 306.221 414.811 306.091Z"/>
	<path fill="#975ACF" transform="scale(1.6 1.6)" d="M412.193 356.415L440.903 356.264C443.766 356.268 446.689 356.158 449.546 356.327C456.276 356.724 454.991 367.708 452.782 369.844C451.327 371.251 448.191 370.937 446.328 370.937L424.575 370.647C420.479 370.625 409.847 371.606 406.677 369.391C401.154 365.532 402.38 356.935 412.193 356.415Z"/>
	<path fill="#975ACF" transform="scale(1.6 1.6)" d="M424.591 205.744C447.553 202.959 456.937 241.527 429.765 244.965C427.11 245.169 424.262 245.307 421.635 244.795L421.25 244.715C402.001 241.021 400.218 209.077 424.591 205.744ZM425.729 215.08C416.715 217.91 412.98 229.723 421.88 233.854L422.751 234.252C424.486 235.024 426.697 234.996 428.546 234.764C438.352 231.134 439.725 220.886 430.625 215.93L430.326 215.76C429.068 215.08 427.137 214.944 425.729 215.08Z"/>
</svg>
