<svg width="30" height="30" viewBox="0 0 30 30">
  <g>
    <circle cx="15" cy="15" r="15" fill="#FF0000" stroke-width="0"></circle>
    <path d="M21.251 9.843c.688.189 1.231.746 1.415 1.452C23 12.577 23 15.25 23 15.25s0 2.673-.334 3.954c-.184.707-.726 1.264-1.415 1.453C20.003 21 15 21 15 21s-5.003 0-6.251-.343c-.688-.189-1.231-.746-1.415-1.453C7 17.923 7 15.25 7 15.25s0-2.673.334-3.954c.184-.707.726-1.264 1.415-1.452C9.997 9.5 15 9.5 15 9.5s5.003 0 6.251.343zM13.5 13v5l4-2.5-4-2.5z" fill="#fff"></path>
  </g>
</svg>