<svg width="16" height="17" viewBox="0 0 16 17" fill="none" xmlns="http://www.w3.org/2000/svg">
<g clip-path="url(#clip0_290_32416)">
<path d="M12.2427 12.0759L8 16.3185L3.75736 12.0759C1.41421 9.73272 1.41421 5.93376 3.75736 3.59061C6.10051 1.24747 9.89947 1.24747 12.2427 3.59061C14.5858 5.93376 14.5858 9.73272 12.2427 12.0759ZM8 10.4999C9.47273 10.4999 10.6667 9.30599 10.6667 7.83325C10.6667 6.36049 9.47273 5.16659 8 5.16659C6.52724 5.16659 5.33333 6.36049 5.33333 7.83325C5.33333 9.30599 6.52724 10.4999 8 10.4999ZM8 9.16659C7.2636 9.16659 6.66667 8.56965 6.66667 7.83325C6.66667 7.09687 7.2636 6.49992 8 6.49992C8.7364 6.49992 9.33333 7.09687 9.33333 7.83325C9.33333 8.56965 8.7364 9.16659 8 9.16659Z" fill="#6937A5"/>
</g>
<defs>
<clipPath id="clip0_290_32416">
<rect width="16" height="16" fill="white" transform="translate(0 0.5)"/>
</clipPath>
</defs>
</svg>
