<svg width="20" height="21" viewBox="0 0 20 21" fill="none" xmlns="http://www.w3.org/2000/svg">
<path d="M9.16675 2.16675C13.3067 2.16675 16.6667 5.52675 16.6667 9.66675C16.6667 13.8067 13.3067 17.1667 9.16675 17.1667C5.02675 17.1667 1.66675 13.8067 1.66675 9.66675C1.66675 5.52675 5.02675 2.16675 9.16675 2.16675ZM9.16675 15.5001C12.3897 15.5001 15.0001 12.8897 15.0001 9.66675C15.0001 6.44383 12.3897 3.83341 9.16675 3.83341C5.94383 3.83341 3.33341 6.44383 3.33341 9.66675C3.33341 12.8897 5.94383 15.5001 9.16675 15.5001ZM16.2378 15.5593L18.5948 17.9163L17.4163 19.0948L15.0593 16.7378L16.2378 15.5593Z" fill="#2A1947"/>
</svg>
