<svg width="193" height="49" viewBox="0 0 193 49" fill="none" xmlns="http://www.w3.org/2000/svg">
<g clip-path="url(#clip0_2167_21874)">
<path d="M61.7797 26.1927C65.5531 26.1927 67.4341 24.8574 67.4341 22.1978C67.4341 21.0638 66.9221 20.1534 66.1963 19.6451C65.8271 19.397 65.5531 19.2196 65.3745 19.1251C65.1847 19.0305 64.9817 18.9482 64.7678 18.8887C66.1128 18.4988 66.7913 17.4705 66.7913 15.8042C66.7913 14.2564 65.9222 13.133 64.7554 12.7081C63.5894 12.2943 62.9109 12.1758 62.3872 12.1758H56.3878V26.1927H61.7797ZM59.3398 20.3069H62.4346C63.7322 20.3069 64.4344 20.7323 64.4344 21.9615C64.4344 23.1433 63.7322 23.581 62.4346 23.581H59.3398V20.3069ZM63.851 16.2653C63.851 16.8208 63.5773 17.2341 63.3037 17.4115C63.1608 17.5061 63.006 17.5767 62.8274 17.6245C62.4707 17.7191 62.3872 17.719 62.2917 17.719H59.3398V14.7881H62.2917L62.6729 14.8354C62.9345 14.8704 63.1965 15.0123 63.4582 15.2486C63.7202 15.4967 63.851 15.8276 63.851 16.2653ZM72.9099 20.6261H79.1233V18.0144H72.9099V14.7881H79.6589V12.1758H69.958V26.1927H79.6589V23.6043H72.9099V20.6261ZM85.2423 20.6261H91.4556V18.0144H85.2423V14.7881H91.9917V12.1758H82.2899V26.1927H91.9917V23.6043H85.2423V20.6261ZM101.669 22.5643V19.976H94.6223V22.5643H101.669ZM105.883 17.2458C104.753 18.298 104.193 19.5744 104.193 21.0516C104.193 22.541 104.753 23.8174 105.883 24.8691C107.002 25.9324 108.347 26.4641 109.93 26.4641C111.502 26.4641 112.847 25.9324 113.977 24.8691C115.097 23.8174 115.656 22.541 115.656 21.0516C115.656 19.5744 115.097 18.298 113.977 17.2458C112.847 16.1941 111.502 15.6624 109.93 15.6624C108.347 15.6624 107.002 16.1941 105.883 17.2458ZM107.93 23.0371C107.371 22.5054 107.097 21.8436 107.097 21.0516C107.097 20.2596 107.371 19.5978 107.93 19.0661C108.478 18.5344 109.145 18.2741 109.93 18.2741C110.704 18.2741 111.371 18.5344 111.93 19.0661C112.478 19.5978 112.752 20.2596 112.752 21.0516C112.752 21.8436 112.478 22.5054 111.93 23.0371C111.371 23.5688 110.704 23.8407 109.93 23.8407C109.145 23.8407 108.478 23.5688 107.93 23.0371ZM128.131 26.1927V19.5861C128.131 19.3614 128.131 18.9949 127.81 18.144C127.643 17.719 127.429 17.3287 127.178 16.9861C126.655 16.2886 125.524 15.6624 124.06 15.6624C122.786 15.6624 121.81 16.0522 121.132 16.8208V15.9343H118.18V26.1927H121.132V20.6734C121.132 20.1773 121.298 19.6567 121.631 19.1017C121.965 18.5461 122.512 18.2741 123.275 18.2741C124.548 18.2864 125.178 19.0188 125.178 20.4843V26.1927H128.131ZM133.857 26.1927V11.6914H130.905V26.1927H133.857ZM137.166 14.5867C137.487 14.9177 137.892 15.0834 138.356 15.0834C138.82 15.0834 139.225 14.9177 139.546 14.5867C139.868 14.2564 140.034 13.866 140.034 13.4049C140.034 12.9561 139.868 12.5657 139.546 12.2348C139.225 11.9044 138.82 11.7387 138.356 11.7387C137.892 11.7387 137.487 11.9044 137.166 12.2348C136.845 12.5657 136.678 12.9561 136.678 13.4049C136.678 13.866 136.845 14.2564 137.166 14.5867ZM139.82 26.1927V15.9343H136.868V26.1927H139.82ZM152.783 26.1927V19.5861C152.783 19.3614 152.783 18.9949 152.462 18.144C152.296 17.719 152.081 17.3287 151.831 16.9861C151.307 16.2886 150.176 15.6624 148.712 15.6624C147.439 15.6624 146.463 16.0522 145.784 16.8208V15.9343H142.832V26.1927H145.784V20.6734C145.784 20.1773 145.951 19.6567 146.284 19.1017C146.617 18.5461 147.165 18.2741 147.927 18.2741C149.2 18.2864 149.831 19.0188 149.831 20.4843V26.1927H152.783ZM165.913 21.2763C165.913 19.5155 165.414 18.144 164.401 17.1518C163.39 16.159 162.163 15.6624 160.723 15.6624C159.164 15.6624 157.842 16.1941 156.735 17.2458C155.628 18.298 155.069 19.5744 155.069 21.0516C155.069 22.541 155.617 23.8174 156.724 24.8691C157.83 25.9324 159.164 26.4641 160.723 26.4641C162.14 26.4525 163.544 26.0509 164.937 25.2473L163.187 23.1672C162.39 23.6161 161.557 23.8407 160.676 23.8407C159.307 23.8407 158.474 23.3207 158.164 22.269H165.913V21.2763ZM160.676 18.2741C161.866 18.2741 162.687 18.8297 163.14 19.9526H158.212C158.652 18.8297 159.473 18.2741 160.676 18.2741ZM168.258 25.9797C168.58 26.299 168.972 26.4641 169.437 26.4641C169.889 26.4641 170.282 26.299 170.603 25.9797C170.925 25.661 171.092 25.2706 171.092 24.8101C171.092 24.3607 170.925 23.9709 170.603 23.6516C170.282 23.3324 169.889 23.1672 169.437 23.1672C168.972 23.1672 168.58 23.3324 168.258 23.6516C167.937 23.9709 167.77 24.3607 167.77 24.8101C167.77 25.2706 167.937 25.661 168.258 25.9797ZM176.567 26.1927V21.7846C176.567 21.3708 176.674 20.9098 176.876 20.4136C177.079 19.9287 177.436 19.4682 177.96 19.0544C178.472 18.6406 179.091 18.4276 179.805 18.4276L180.614 18.4988V15.8632C180.436 15.8276 180.102 15.8042 179.638 15.8042C178.341 15.8159 177.317 16.3715 176.567 17.4827V15.9343H173.615V26.1927H176.567ZM189.888 26.0626C191.172 25.5309 191.78 24.7979 192.185 23.8052C192.589 22.8246 192.625 22.1978 192.625 21.5482V15.9343H189.685V21.6428C189.685 23.1082 189.006 23.8407 187.637 23.8407C186.269 23.8407 185.59 23.1082 185.59 21.6428V15.9343H182.638V21.5482C182.638 21.8669 182.662 22.2101 182.709 22.5527C182.757 22.8953 182.887 23.3207 183.09 23.8052C183.293 24.3018 183.555 24.7389 183.9 25.1055C184.245 25.472 184.733 25.7907 185.376 26.0626C186.018 26.3346 186.768 26.4641 187.637 26.4641C188.494 26.4641 189.244 26.3346 189.888 26.0626Z" fill="#242424"/>
<path d="M58.7787 37.3729C59.4496 37.3729 60.027 37.1281 60.5113 36.6389C60.9952 36.1491 61.2372 35.5611 61.2372 34.8749C61.2372 34.1886 60.9944 33.6022 60.5085 33.114C60.0226 32.6264 59.446 32.3826 58.7787 32.3826C58.0673 32.3826 57.4899 32.5844 57.0465 32.9887V30.5586H55.9411V37.2476H57.0465V36.7669C57.4899 37.171 58.0673 37.3729 58.7787 37.3729ZM57.4947 35.9287C57.1958 35.6541 57.0465 35.3035 57.0465 34.8775C57.0465 34.452 57.1958 34.1015 57.4947 33.8269C57.7933 33.5517 58.1608 33.4147 58.5974 33.4147C59.0267 33.4147 59.3894 33.5517 59.6863 33.8269C59.9833 34.1015 60.1317 34.452 60.1317 34.8775C60.1317 35.3035 59.9833 35.6541 59.6863 35.9287C59.3894 36.2038 59.0267 36.3408 58.5974 36.3408C58.1608 36.3408 57.7933 36.2038 57.4947 35.9287ZM66.4506 33.0705C65.9667 32.6115 65.3913 32.3826 64.7236 32.3826C64.009 32.3826 63.4203 32.6227 62.9589 33.1034C62.4967 33.5836 62.2656 34.1753 62.2656 34.8775C62.2656 35.6169 62.5039 36.2176 62.9806 36.6797C63.4569 37.1418 64.0603 37.3729 64.7902 37.3729C65.4278 37.3729 66.0361 37.2311 66.6155 36.9469L65.9944 36.0737C65.6204 36.2516 65.2223 36.3408 64.8006 36.3408C64.0423 36.3408 63.5656 36.0099 63.3706 35.3471H67.1768V34.9758C67.1768 34.1642 66.9349 33.5289 66.4506 33.0705ZM66.0602 34.408H63.3818C63.4809 34.0807 63.6559 33.8332 63.9075 33.6654C64.1582 33.4981 64.4307 33.4147 64.7236 33.4147C65.0169 33.4147 65.2882 33.4981 65.5381 33.6654C65.7869 33.8332 65.961 34.0807 66.0602 34.408ZM71.0095 33.5347V35.4235C71.0095 35.7661 71.0601 36.0625 71.1608 36.3138C71.2619 36.565 71.3727 36.7477 71.4934 36.8625C71.6146 36.9772 71.7647 37.0664 71.9444 37.1302C72.1242 37.1939 72.2554 37.2295 72.3377 37.2364C72.4203 37.2438 72.511 37.2476 72.6101 37.2476C72.9251 37.2476 73.1911 37.2364 73.4078 37.2146V36.2643C73.3083 36.2718 73.1654 36.2755 72.9789 36.2755C72.4031 36.2755 72.1154 35.9988 72.1154 35.4453V33.5347H73.4186V32.508H72.1154V30.5586C71.9942 30.5878 71.8173 30.6372 71.5845 30.7063C71.3518 30.7753 71.1604 30.8284 71.0095 30.8645V32.508H69.9811V33.5347H71.0095ZM74.4526 34.8749C74.4526 35.5685 74.7062 36.1581 75.2138 36.6442C75.7218 37.1302 76.3397 37.3729 77.0676 37.3729C77.7954 37.3729 78.4122 37.1302 78.9181 36.6442C79.4237 36.1581 79.6769 35.5685 79.6769 34.8749C79.6769 34.1817 79.4237 33.5931 78.9181 33.1087C78.4122 32.6248 77.7954 32.3826 77.0676 32.3826C76.3397 32.3826 75.7218 32.6248 75.2138 33.1087C74.7062 33.5931 74.4526 34.1817 74.4526 34.8749ZM75.5581 34.8775C75.5581 34.459 75.7045 34.1105 75.9979 33.8322C76.2908 33.5538 76.6479 33.4147 77.0676 33.4147C77.4873 33.4147 77.844 33.5538 78.1373 33.8322C78.4302 34.1105 78.5771 34.459 78.5771 34.8775C78.5771 35.2966 78.4302 35.645 78.1373 35.9233C77.844 36.2017 77.4873 36.3408 77.0676 36.3408C76.6479 36.3408 76.2908 36.2017 75.9979 35.9233C75.7045 35.645 75.5581 35.2966 75.5581 34.8775ZM84.745 37.7798C84.6399 37.9599 84.5075 38.0958 84.3458 38.1867C84.1849 38.2775 84.0252 38.3433 83.8675 38.3832C83.7098 38.423 83.5525 38.4432 83.3944 38.4432C82.8227 38.4432 82.3219 38.312 81.8934 38.0501L81.3874 38.891C81.9668 39.2803 82.6321 39.4753 83.3832 39.4753C84.1167 39.4753 84.7374 39.2585 85.245 38.8251C85.753 38.3922 86.007 37.8372 86.007 37.1599V32.508H84.9015V32.9887C84.4614 32.5844 83.884 32.3826 83.1693 32.3826C82.4981 32.3826 81.9207 32.6264 81.4372 33.114C80.9529 33.6022 80.7109 34.1886 80.7109 34.8749C80.7109 35.5611 80.9541 36.1491 81.4396 36.6389C81.9255 37.1281 82.5017 37.3729 83.1693 37.3729C83.8804 37.3729 84.4578 37.171 84.9015 36.7669V37.1381C84.9015 37.3857 84.8494 37.5997 84.745 37.7798ZM82.2589 35.9287C81.9636 35.6541 81.8163 35.3035 81.8163 34.8775C81.8163 34.452 81.9636 34.1015 82.2589 33.8269C82.5542 33.5517 82.9162 33.4147 83.3455 33.4147C83.7812 33.4147 84.15 33.5517 84.4505 33.8269C84.7515 34.1015 84.9015 34.452 84.9015 34.8775C84.9015 35.3035 84.7515 35.6541 84.4505 35.9287C84.15 36.2038 83.7812 36.3408 83.3455 36.3408C82.9162 36.3408 82.5542 36.2038 82.2589 35.9287ZM91.4459 33.0705C90.962 32.6115 90.3866 32.3826 89.7193 32.3826C89.0039 32.3826 88.4157 32.6227 87.9538 33.1034C87.4916 33.5836 87.2609 34.1753 87.2609 34.8775C87.2609 35.6169 87.4992 36.2176 87.9759 36.6797C88.4526 37.1418 89.0552 37.3729 89.7851 37.3729C90.4227 37.3729 91.0318 37.2311 91.6112 36.9469L90.9893 36.0737C90.6153 36.2516 90.2173 36.3408 89.7959 36.3408C89.0372 36.3408 88.5605 36.0099 88.3663 35.3471H92.1717V34.9758C92.1717 34.1642 91.9298 33.5289 91.4459 33.0705ZM91.0551 34.408H88.3771C88.4758 34.0807 88.6508 33.8332 88.9024 33.6654C89.1531 33.4981 89.4256 33.4147 89.7193 33.4147C90.0126 33.4147 90.2839 33.4981 90.533 33.6654C90.7822 33.8332 90.9564 34.0807 91.0551 34.408ZM93.9593 33.5347V35.4235C93.9593 35.7661 94.0094 36.0625 94.1106 36.3138C94.2113 36.565 94.322 36.7477 94.4432 36.8625C94.5644 36.9772 94.7144 37.0664 94.8942 37.1302C95.0736 37.1939 95.2048 37.2295 95.287 37.2364C95.3701 37.2438 95.4604 37.2476 95.5595 37.2476C95.8744 37.2476 96.1405 37.2364 96.3571 37.2146V36.2643C96.258 36.2718 96.1152 36.2755 95.9278 36.2755C95.3524 36.2755 95.0643 35.9988 95.0643 35.4453V33.5347H96.3676V32.508H95.0643V30.5586C94.9436 30.5878 94.7666 30.6372 94.5339 30.7063C94.3012 30.7753 94.1094 30.8284 93.9593 30.8645V32.508H92.9309V33.5347H93.9593ZM102.121 37.2476V34.1626C102.121 34.0935 102.117 34.0181 102.109 33.9357C102.102 33.8539 102.064 33.7126 101.996 33.5124C101.928 33.3127 101.833 33.1358 101.711 32.9833C101.588 32.8304 101.394 32.6918 101.13 32.568C100.866 32.4442 100.555 32.3826 100.195 32.3826C99.5503 32.3826 99.0624 32.5844 98.7329 32.9887V30.5586H97.6271V37.2476H98.7329V34.6868C98.7329 34.5885 98.7526 34.4743 98.7935 34.3453C98.8336 34.2162 98.895 34.077 98.9773 33.9278C99.0599 33.7785 99.1867 33.6558 99.3569 33.5591C99.5274 33.4625 99.7212 33.4147 99.9371 33.4147C100.659 33.4147 101.02 33.8093 101.02 34.5991V37.2476H102.121ZM107.455 33.0705C106.971 32.6115 106.395 32.3826 105.728 32.3826C105.013 32.3826 104.425 32.6227 103.962 33.1034C103.501 33.5836 103.27 34.1753 103.27 34.8775C103.27 35.6169 103.508 36.2176 103.984 36.6797C104.461 37.1418 105.065 37.3729 105.794 37.3729C106.432 37.3729 107.04 37.2311 107.62 36.9469L106.999 36.0737C106.625 36.2516 106.227 36.3408 105.805 36.3408C105.046 36.3408 104.569 36.0099 104.376 35.3471H108.181V34.9758C108.181 34.1642 107.939 33.5289 107.455 33.0705ZM107.064 34.408H104.386C104.485 34.0807 104.66 33.8332 104.911 33.6654C105.163 33.4981 105.435 33.4147 105.728 33.4147C106.021 33.4147 106.292 33.4981 106.542 33.6654C106.792 33.8332 106.965 34.0807 107.064 34.408ZM110.452 37.2476V35.4017C110.452 34.954 110.605 34.5221 110.911 34.1052C111.218 33.6882 111.645 33.48 112.196 33.48L112.465 33.5124V32.4591C112.385 32.4517 112.265 32.4479 112.107 32.4479C111.385 32.4479 110.833 32.721 110.452 33.267V32.508H109.347V37.2476H110.452Z" fill="#242424"/>
<path d="M34.4161 6.39453H23.6509L18.2677 15.8764L23.6509 25.3577H34.4161L39.7992 15.8764L34.4161 6.39453Z" stroke="#7E47C4" stroke-width="3.23651"/>
<path d="M34.5446 24.8047H23.7794L18.3962 34.286L23.7794 43.7677H34.5446L39.9277 34.286L34.5446 24.8047Z" stroke="#7E47C4" stroke-width="3.23651"/>
<path d="M18.1545 15.3242H7.38936L2.00623 24.806L7.38936 34.2873H18.1545L23.5377 24.806L18.1545 15.3242Z" stroke="#7E47C4" stroke-width="3.23651"/>
<path d="M48.0266 0V48.8789H49.6364V0H48.0266Z" fill="#7E47C4"/>
</g>
<defs>
<clipPath id="clip0_2167_21874">
<rect width="193" height="49" fill="white"/>
</clipPath>
</defs>
</svg>
