<svg width="303" height="307" viewBox="0 0 303 307" fill="none" xmlns="http://www.w3.org/2000/svg">
<g opacity="0.3">
<path d="M184.625 74H151.913L135.556 102.812L151.913 131.622H184.625L200.982 102.812L184.625 74Z" stroke="#6937A5" stroke-width="8"/>
<path d="M185.016 129.949H152.305L135.947 158.759L152.305 187.571H185.016L201.373 158.759L185.016 129.949Z" stroke="#6937A5" stroke-width="8"/>
<path d="M135.211 101.133H102.5L86.1426 129.945L102.5 158.755H135.211L151.569 129.945L135.211 101.133Z" stroke="#6937A5" stroke-width="8"/>
</g>
<path d="M81.0554 233.706C85.293 233.706 87.4055 232.26 87.4055 229.379C87.4055 228.151 86.8305 227.165 86.0153 226.614C85.6008 226.346 85.293 226.154 85.0925 226.051C84.8793 225.949 84.6513 225.86 84.4111 225.795C85.9216 225.373 86.6836 224.259 86.6836 222.454C86.6836 220.778 85.7076 219.561 84.3972 219.101C83.0877 218.653 82.3257 218.525 81.7376 218.525H75V233.706H81.0554ZM78.3152 227.331H81.7908C83.2481 227.331 84.0367 227.792 84.0367 229.123C84.0367 230.403 83.2481 230.877 81.7908 230.877H78.3152V227.331ZM83.3815 222.954C83.3815 223.556 83.0742 224.003 82.7668 224.195C82.6064 224.298 82.4325 224.374 82.232 224.426C81.8314 224.528 81.7376 224.528 81.6304 224.528H78.3152V221.354H81.6304L82.0585 221.405C82.3523 221.443 82.6465 221.597 82.9403 221.853C83.2346 222.121 83.3815 222.48 83.3815 222.954ZM93.5551 227.677H100.533V224.848H93.5551V221.354H101.134V218.525H90.2399V233.706H101.134V230.903H93.5551V227.677ZM107.405 227.677H114.383V224.848H107.405V221.354H114.985V218.525H104.089V233.706H114.985V230.903H107.405V227.677ZM125.853 229.776V226.973H117.939V229.776H125.853ZM130.585 224.016C129.316 225.155 128.687 226.538 128.687 228.138C128.687 229.751 129.316 231.133 130.585 232.272C131.842 233.424 133.352 234 135.13 234C136.895 234 138.406 233.424 139.675 232.272C140.933 231.133 141.56 229.751 141.56 228.138C141.56 226.538 140.933 225.155 139.675 224.016C138.406 222.877 136.895 222.301 135.13 222.301C133.352 222.301 131.842 222.877 130.585 224.016ZM132.885 230.288C132.256 229.712 131.949 228.996 131.949 228.138C131.949 227.28 132.256 226.563 132.885 225.987C133.5 225.411 134.248 225.13 135.13 225.13C136 225.13 136.748 225.411 137.376 225.987C137.991 226.563 138.299 227.28 138.299 228.138C138.299 228.996 137.991 229.712 137.376 230.288C136.748 230.864 136 231.159 135.13 231.159C134.248 231.159 133.5 230.864 132.885 230.288ZM155.57 233.706V226.551C155.57 226.307 155.57 225.91 155.21 224.989C155.022 224.528 154.782 224.106 154.501 223.735C153.913 222.979 152.643 222.301 150.998 222.301C149.568 222.301 148.472 222.723 147.71 223.556V222.595H144.395V233.706H147.71V227.728C147.71 227.191 147.897 226.627 148.271 226.026C148.646 225.424 149.26 225.13 150.117 225.13C151.546 225.143 152.255 225.936 152.255 227.523V233.706H155.57ZM162.001 233.706V218H158.686V233.706H162.001ZM165.717 221.136C166.078 221.494 166.532 221.674 167.054 221.674C167.575 221.674 168.03 221.494 168.39 221.136C168.752 220.778 168.938 220.355 168.938 219.856C168.938 219.37 168.752 218.947 168.39 218.589C168.03 218.231 167.575 218.051 167.054 218.051C166.532 218.051 166.078 218.231 165.717 218.589C165.356 218.947 165.169 219.37 165.169 219.856C165.169 220.355 165.356 220.778 165.717 221.136ZM168.698 233.706V222.595H165.383V233.706H168.698ZM183.256 233.706V226.551C183.256 226.307 183.256 225.91 182.895 224.989C182.708 224.528 182.468 224.106 182.187 223.735C181.599 222.979 180.328 222.301 178.684 222.301C177.254 222.301 176.158 222.723 175.396 223.556V222.595H172.08V233.706H175.396V227.728C175.396 227.191 175.583 226.627 175.957 226.026C176.332 225.424 176.946 225.13 177.802 225.13C179.232 225.143 179.941 225.936 179.941 227.523V233.706H183.256ZM198.001 228.381C198.001 226.474 197.44 224.989 196.304 223.914C195.168 222.839 193.79 222.301 192.173 222.301C190.422 222.301 188.938 222.877 187.695 224.016C186.451 225.155 185.823 226.538 185.823 228.138C185.823 229.751 186.438 231.133 187.681 232.272C188.924 233.424 190.422 234 192.173 234C193.764 233.987 195.341 233.552 196.906 232.682L194.94 230.429C194.045 230.915 193.109 231.159 192.12 231.159C190.582 231.159 189.647 230.595 189.299 229.456H198.001V228.381ZM192.12 225.13C193.457 225.13 194.379 225.731 194.887 226.948H189.352C189.847 225.731 190.77 225.13 192.12 225.13ZM200.635 233.475C200.996 233.821 201.437 234 201.959 234C202.467 234 202.908 233.821 203.268 233.475C203.63 233.13 203.817 232.707 203.817 232.209C203.817 231.722 203.63 231.3 203.268 230.954C202.908 230.608 202.467 230.429 201.959 230.429C201.437 230.429 200.996 230.608 200.635 230.954C200.274 231.3 200.087 231.722 200.087 232.209C200.087 232.707 200.274 233.13 200.635 233.475ZM209.966 233.706V228.932C209.966 228.484 210.087 227.984 210.314 227.447C210.541 226.922 210.942 226.423 211.53 225.975C212.105 225.527 212.801 225.296 213.603 225.296L214.512 225.373V222.518C214.311 222.48 213.937 222.454 213.415 222.454C211.958 222.467 210.809 223.069 209.966 224.272V222.595H206.651V233.706H209.966ZM224.926 233.565C226.369 232.989 227.051 232.195 227.506 231.12C227.96 230.058 228 229.379 228 228.676V222.595H224.698V228.778C224.698 230.365 223.936 231.159 222.399 231.159C220.862 231.159 220.099 230.365 220.099 228.778V222.595H216.784V228.676C216.784 229.021 216.811 229.393 216.864 229.764C216.918 230.135 217.064 230.595 217.292 231.12C217.52 231.658 217.814 232.131 218.201 232.528C218.589 232.925 219.137 233.271 219.859 233.565C220.581 233.86 221.423 234 222.399 234C223.361 234 224.204 233.86 224.926 233.565Z" fill="#C5B6DA"/>
</svg>
