<svg width="165" height="169" viewBox="0 0 165 169" fill="none" xmlns="http://www.w3.org/2000/svg">
<path d="M83.1436 105.996C76.1886 105.996 69.2336 105.996 62.2785 105.996C61.9388 105.996 61.5947 105.996 61.2535 105.961C59.5123 105.798 58.8123 104.62 59.5547 103.028C60.1991 101.653 60.902 100.314 61.5844 98.954C64.8061 92.5508 68.0279 86.1486 71.2496 79.7474C71.3492 79.5519 71.4532 79.3563 71.5688 79.1696C72.3801 77.8641 73.6981 77.6803 74.7364 78.8065C75.4686 79.5945 76.088 80.4796 76.7412 81.3337C80.0605 85.6884 83.3799 90.0451 86.6992 94.4037C88.149 96.3003 89.9752 96.4032 91.6783 94.6978C92.5233 93.851 93.3492 92.9821 94.2044 92.1426C95.7464 90.6283 97.4964 90.7194 98.7558 92.4851C101.283 96.0283 103.748 99.6185 106.224 103.197C106.418 103.478 106.566 103.787 106.664 104.114C106.904 104.936 106.564 105.598 105.734 105.817C105.213 105.942 104.679 106 104.143 105.989C97.1474 106.001 90.1475 106.003 83.1436 105.996Z" fill="#D4D2E3"/>
<path d="M98.7412 70.9101C98.7394 72.2768 98.3334 73.6122 97.5748 74.747C96.8161 75.8818 95.7389 76.7649 94.4797 77.2843C93.2205 77.8038 91.836 77.9361 90.5018 77.6647C89.1676 77.3932 87.9437 76.7301 86.9853 75.7595C86.0269 74.7888 85.3772 73.5544 85.1184 72.2125C84.8597 70.8707 85.0037 69.482 85.5321 68.2225C86.0605 66.9629 86.9495 65.8892 88.0865 65.1375C89.2234 64.3858 90.5571 63.99 91.9184 64.0002C93.7312 64.0233 95.4622 64.7606 96.7385 66.0532C98.0148 67.3458 98.734 69.0901 98.7412 70.9101Z" fill="#D4D2E3"/>
</svg>
