<svg xmlns="http://www.w3.org/2000/svg" xmlns:xlink="http://www.w3.org/1999/xlink">
	<symbol id="google" viewBox="0 0 30 30">
		<path d="M0 15C0 6.716 6.716 0 15 0s15 6.716 15 15-6.716 15-15 15S0 23.284 0 15z" fill="#fff"/><path d="M15 11.013c1.221 0 2.044.527 2.513.968l1.834-1.791C18.221 9.143 16.755 8.5 15 8.5c-2.542 0-4.738 1.459-5.807 3.582l2.102 1.632c.527-1.567 1.986-2.701 3.705-2.701z" fill="#ea4335"/><path d="M21.24 15.145c0-.534-.043-.924-.137-1.329H15v2.412h3.582c-.072.599-.462 1.502-1.329 2.109l2.051 1.589c1.228-1.134 1.936-2.802 1.936-4.781z" fill="#4285f4"/><path d="M11.302 16.285c-.137-.404-.217-.838-.217-1.286s.079-.881.209-1.286l-2.102-1.632C8.753 12.963 8.5 13.953 8.5 15s.253 2.037.693 2.918l2.109-1.632z" fill="#fbbc05"/><path d="M15 21.5c1.755 0 3.228-.578 4.305-1.574l-2.051-1.589c-.549.383-1.285.65-2.253.65-1.719 0-3.178-1.134-3.698-2.701l-2.102 1.632C10.27 20.041 12.458 21.5 15 21.5z" fill="#34a853"/>
	</symbol>
	<symbol id="ok" viewBox="0 0 159 159">
		<circle cx="79.5" cy="79.5" r="79.5" fill="#f80"/>
		<path d="M79.654 81.068c13.263 0 24.075-10.812 24.075-24.075S92.917 32.918 79.654 32.918c-13.407 0-24.219 10.812-24.219 24.075s10.812 24.075 24.219 24.075zm0-34.022a9.97 9.97 0 0 1 9.947 9.947 9.97 9.97 0 0 1-9.947 9.947 9.97 9.97 0 0 1-9.947-9.947c-.144-5.478 4.325-9.947 9.947-9.947zm9.659 53.772c4.901-1.153 9.659-3.028 13.983-5.767 3.316-2.018 4.325-6.487 2.163-9.803-2.018-3.316-6.487-4.325-9.803-2.163-9.803 6.199-22.633 6.199-32.436 0-3.316-2.018-7.64-1.153-9.803 2.163-1.874 3.316-.865 7.64 2.451 9.659 4.325 2.739 9.082 4.613 13.984 5.767l-13.407 13.407a7.05 7.05 0 0 0 0 9.947c1.442 1.441 3.172 2.018 5.046 2.018s3.604-.721 5.046-2.018L79.8 110.765l13.263 13.263a7.05 7.05 0 0 0 9.947 0 7.05 7.05 0 0 0 0-9.947l-13.695-13.263z" fill="#fff"/>
	</symbol>
	<symbol id="verified" viewBox="0 0 20 20">
		<path d="M12.68 0l1.576 2.63 3.065.049.049 3.066L20 7.321 18.51 10 20 12.68l-2.63 1.576-.049 3.065-3.065.049L12.68 20 10 18.51 7.321 20l-1.575-2.63-3.066-.049-.049-3.065L0 12.68 1.49 10 0 7.321l2.63-1.575.049-3.066 3.066-.049L7.321 0 10 1.49 12.68 0z" fill="#3897f0"/><path d="M5.597 9.436l2.912 2.957 5.134-4.731" stroke="#fff" stroke-width="2.366" fill="none"/>
	</symbol>
	<symbol id="important" viewBox="0 0 40 40">
		<path d="M12 10.5c-1.5 2-2.5 5-2.5 8s1 6 2.5 8M11 30c-3-2.5-5-7-5-11.5s2-9 5-11.5m17 3.5c1.5 2 2.5 5 2.5 8s-1 6-2.5 8m1 3.5c3-2.5 5-7 5-11.5s-2-9-5-11.5m-9 17.5c2 0 2.45-1.5 2.5-2 .6-6 1-11 1-14C23.5 7 24 5 20 5s-3.5 2-3.5 3.5c0 3 .4 8 1 14 .05.5.5 2 2.5 2zm-3.5 7A3.5 3.5 0 0 1 20 28a3.5 3.5 0 0 1 3.5 3.5A3.5 3.5 0 0 1 20 35a3.5 3.5 0 0 1-3.5-3.5z" stroke="currentColor" stroke-width="2" stroke-linecap="round" fill="none"/>
	</symbol>
    <symbol id="chat" viewBox="0 0 100 100">
        <path d="M64.5 35.5V35c0-8-5.5-14.5-14.5-14.5H24C15 20.5 9.5 27 9.5 35v13c0 9 8.5 14.5 14.5 14.5.5.5.5 2.5.5 2.5v9.5a1 1 0 0 0 1 1C27 75.5 37.5 62 41 62h10a12.12 12.12 0 0 0 2.956-.367M64.5 35.5H80c7.5 0 10.5 5.5 10.5 10.5v9c0 6-5 9.5-9.5 9.5-1.138 0-1.5 2.5-1.5 2.5v7.5L68 64.5h-8c-5 0-6.044-2.867-6.044-2.867M64.5 35.5v13c0 5.619-4.484 11.612-10.544 13.133" stroke="currentColor" stroke-width="3" stroke-linejoin="round" fill="none"/>
    </symbol>
    <symbol id="notify_message" viewBox="0 0 82 82">
        <path d="M23.2339 29.3835L39.6339 42.3669L41.0005 43.0502L42.3672 42.3669L58.7672 29.3835M21.8672 30.0669V51.9335L23.2339 53.3002H58.7672L60.1339 51.9335V30.0669L58.7672 28.7002H23.2339L21.8672 30.0669Z" stroke="currentColor" stroke-width="2.7333" stroke-linejoin="round" fill="none"/>
    </symbol>
    <symbol id="notify_system" viewBox="0 0 82 82">
        <g fill="none" stroke-width="3" stroke="currentColor">
            <path d="M38.609 21.866l-1.367 1.367v4.268l-3.128 1.297-3.019-3.019h-1.932l-3.383 3.383v1.932l3.019 3.019-1.297 3.128h-4.268l-1.367 1.367v4.783l1.367 1.367h4.268l1.297 3.128-3.019 3.019v1.933l3.383 3.383h1.932l3.019-3.019 3.128 1.297v4.268l1.367 1.367h4.783l1.367-1.367v-4.268l3.128-1.297 3.019 3.019h1.932l3.383-3.383v-1.933l-3.019-3.019 1.297-3.128h4.268l1.367-1.367v-4.783l-1.367-1.367h-4.268l-1.297-3.128 3.019-3.019v-1.932l-3.383-3.383h-1.932l-3.019 3.019-3.128-1.297v-4.268l-1.367-1.367h-4.783z"/><path d="M40.999 34.167c-1.812 0-3.55.72-4.832 2.001s-2.001 3.02-2.001 4.832.72 3.55 2.002 4.832 3.02 2.002 4.832 2.002 3.55-.72 4.832-2.001 2.002-3.02 2.002-4.832-.72-3.55-2.001-4.832-3.02-2.001-4.832-2.001z"/>
        </g>
    </symbol>
    <symbol id="notify_deal" viewBox="0 0 60 60">
        <g fill="none" stroke-width="3" stroke="currentColor">
            <path d="M68.023 42.114L60.416 25.8l-5.438 2.536 7.607 16.314 5.438-2.536z"/><path d="M44.116 34.956l11.667 11.667c2.121 2.121.53 3.712.53 3.712s-1.591 1.591-3.712-.53m0 0l-4.243-4.243m4.243 4.243c1.591 1.591 0 3.182 0 3.182s-1.591 1.591-3.712-.53m0 0l-3.182-3.182m3.182 3.182c1.591 1.591 0 3.182 0 3.182s-1.591 1.591-3.712-.53m0 0l-1.591-1.591m1.591 1.591c1.591 1.591 0 3.182 0 3.182s-1.591 1.591-3.182 0m-7.955-10.076s1.591-1.591 0-3.182-3.182 0-3.182 0l-4.243 4.243s-1.59 1.593 0 3.182 3.182 0 3.182 0m4.243-4.243l-4.243 4.243m4.243-4.243s1.591-1.591 3.182 0 0 3.182 0 3.182l-4.243 4.243m-3.182-3.182s-1.59 1.593 0 3.182 3.182 0 3.182 0m0 0l3.182-3.182s1.591-1.591 3.182 0 0 3.182 0 3.182l-3.182 3.182s-1.593 1.589-3.182 0 0-3.182 0-3.182zm-.53-27.047c-3.712 1.591-6.894.53-6.894.53m-3.712 14.319l-2.917-.692m22.009-9.914v1.061l-3.182 3.182c-1.061 1.061-3.712 1.591-5.302.002-2.123-2.123 5.832-10.078 6.362-9.547 2.652-.53 5.979-1.184 6.894-.53 2.652 1.591 6.786 2.998 9.968 2.998m3.291 15.564l3.459-1.314m-35.808-1.336s1.591-1.591 3.182 0 0 3.182 0 3.182l-3.182 3.182s-1.593 1.59-3.182 0 0-3.182 0-3.182l3.182-3.182z" stroke-linecap="round"/><path d="M25.803 27.249l-5.481-2.44L13 41.252l5.481 2.44 7.321-16.444z"/>
        </g>
    </symbol>
    <symbol id="invalid" viewBox="0 0 12 12">
        <g fill='none' stroke="currentColor">
            <circle cx='6' cy='6' r='4.5'/>
            <path stroke-linejoin='round' d='M5.8 3.6h.4L6 6.5z'/>
            <circle cx='6' cy='8.2' r='.6' fill="currentColor" stroke='none'/>
        </g>
    </symbol>
    <symbol id="valid" viewBox="0 0 15 15">
        <path stroke="currentColor" stroke-width='2' stroke-linecap='round' stroke-linejoin='round' d='M2 8l3.5 3.5 7-7' fill='none'/>
    </symbol>
    <symbol id="fav" viewBox="0 0 15 15">
        <path d="M5.415 3C3.298 3 2 4.791 2 6.316c0 1.363.71 2.572 1.528 3.539.831.982 1.883 1.844 2.796 2.525.698.521 1.654.52 2.352 0 .912-.681 1.965-1.542 2.796-2.525C12.29 8.888 13 7.679 13 6.316 13 4.791 11.703 3 9.585 3c-.684 0-1.266.265-1.719.575a4.64 4.64 0 0 0-.366.279l-.366-.279C6.68 3.265 6.098 3 5.415 3z" stroke="currentColor" stroke-width="2" fill="none"/>
    </symbol>
    <symbol id="doc" viewBox="0 0 50 50">
        <path d="M13 23V6h17m0 0l7 7m-7-7v7h7m0 0v10M13 36v8h24v-8" fill="none" stroke="currentColor" stroke-width="2" stroke-linecap="round" stroke-linejoin="round"/>
    </symbol>
    <symbol id="play" viewBox="0 0 40 40">
        <circle cx="20" cy="20" r="19" fill="currentColor" stroke="#fff" stroke-width="2"/><path d="M28.688 18.757a1 1 0 0 1 0 1.732l-11.717 6.765a1 1 0 0 1-1.5-.866v-13.53a1 1 0 0 1 1.5-.866l11.717 6.765z" fill="#fff"/>
    </symbol>
    <symbol id="add_file" viewBox="0 0 36 36">
        <path d="M14.345 23.194l1.896-1.896 2.936-2.936.832-.804-.207.162c.182-.138.379-.256.589-.346l-.246.103c.228-.094.466-.162.712-.195l-.272.036a2.85 2.85 0 0 1 .699 0l-.272-.036a2.73 2.73 0 0 1 .712.195l-.246-.103a2.83 2.83 0 0 1 .589.346l-.207-.162c.176.138.333.295.471.471l-.162-.207c.138.182.256.379.346.589l-.102-.246c.094.228.162.466.195.712l-.036-.272a2.85 2.85 0 0 1 0 .699l.036-.272a2.73 2.73 0 0 1-.195.712l.102-.246a2.83 2.83 0 0 1-.346.589l.162-.207c-.217.277-.49.518-.738.769l-1.412 1.412-3.118 3.118-1.071 1.007.207-.162c-.368.275-.765.505-1.185.685l.246-.102a5.58 5.58 0 0 1-1.394.381l.272-.036a5.69 5.69 0 0 1-1.471 0l.272.036a5.61 5.61 0 0 1-1.394-.381l.246.102c-.422-.179-.818-.41-1.184-.689l.207.162a5.56 5.56 0 0 1-.996-.996l.162.207a5.33 5.33 0 0 1-.693-1.185l.102.246c-.187-.446-.316-.915-.381-1.394l.036.272c-.064-.49-.064-.984 0-1.471l-.036.272a5.61 5.61 0 0 1 .381-1.394l-.102.246a5.49 5.49 0 0 1 .689-1.184l-.162.207c.369-.477.825-.892 1.25-1.314l2.257-2.257 2.782-2.782 2.373-2.373.999-.999c.166-.166.343-.32.531-.466l-.207.162a5.42 5.42 0 0 1 1.184-.689l-.246.102c.446-.187.915-.316 1.394-.381l-.272.036c.49-.064.984-.064 1.471 0l-.272-.036a5.61 5.61 0 0 1 1.394.381l-.246-.102a5.49 5.49 0 0 1 1.184.689l-.207-.162c.374.289.707.623.996.996l-.162-.207a5.42 5.42 0 0 1 .689 1.184l-.102-.246a5.58 5.58 0 0 1 .381 1.394l-.036-.272c.064.49.064.984 0 1.471l.036-.272a5.61 5.61 0 0 1-.381 1.394l.102-.246c-.179.422-.41.818-.689 1.184l.162-.207c-.143.187-.299.364-.466.531" stroke="currentColor" stroke-width="2" stroke-linecap="round" fill="none"/>
    </symbol>
    <symbol id="calendar" viewBox="0 0 36 36">
        <path d="M12 9v4m4-4v4m4-4v4m4-4v4M8 12h20v15H8V12z" fill="none" stroke="currentColor" stroke-width="2" stroke-linecap="round" stroke-linejoin="round"/><g fill="currentColor"><circle cx="12" cy="17" r="1"/><circle cx="12" cy="20" r="1"/><circle cx="12" cy="23" r="1"/><circle cx="16" cy="17" r="1"/><circle cx="16" cy="20" r="1"/><circle cx="16" cy="23" r="1"/><circle cx="20" cy="17" r="1"/><circle cx="20" cy="20" r="1"/><circle cx="20" cy="23" r="1"/><circle cx="24" cy="17" r="1"/><circle cx="24" cy="20" r="1"/><circle cx="24" cy="23" r="1"/></g>
    </symbol>
    <symbol id="notify_product" viewBox="0 0 82 82">
        <g fill="currentColor">
            <path d="M26 30a1.08 1.08 0 0 1 1-1h1a1.08 1.08 0 0 1 1 1v4a1.08 1.08 0 0 1-1 1h-1a1.08 1.08 0 0 1-1-1v-4zm21 0a1.08 1.08 0 0 1 1-1h1a1.08 1.08 0 0 1 1 1v1a1.08 1.08 0 0 1-1 1h-1a1.08 1.08 0 0 1-1-1v-1zm5 0a1.08 1.08 0 0 1 1-1h1a1.08 1.08 0 0 1 1 1v1a1.08 1.08 0 0 1-1 1h-1a1.08 1.08 0 0 1-1-1v-1z"/>
            <path fill-rule="evenodd" d="M22 27c0-1.5 1.5-3 3-3h6c1.161 0 2.322.898 2.787 2H43v-1c0-1.5 1.5-3 3-3h10c1.5 0 3 1.5 3 3v1c1.5 0 3 1.5 3 3v5c0 1.5-1.5 3-3 3v10h1c1 0 2 1 2 2v9c0 1-1 2-2 2H22c-1 0-2-1-2-2v-9c0-1 1-2 2-2h21V37h-9v1c0 1.5-1.5 3-3 3h-1v2.5a1.5 1.5 0 1 1-3 0V41h-2c-1.5 0-3-1.5-3-3V27zm3 11V27h6l.5 2H46v-4h10v4h3v5h-3v13H46V34H31v4h-6zm-2 19v-7h36v7H23z"/>
        </g>
    </symbol>
    <symbol id="notify_reply" viewBox="0 0 82 82">
        <defs>
            <g id="box-star">
            <path d="M51.976 32.464a.5.5 0 0 0-.951 0l-.647 1.991a.5.5 0 0 1-.476.346h-2.094a.5.5 0 0 0-.294.904l1.694 1.231a.5.5 0 0 1 .182.559l-.647 1.991a.5.5 0 0 0 .769.559l1.694-1.231a.5.5 0 0 1 .588 0l1.694 1.231a.5.5 0 0 0 .769-.559l-.647-1.991a.5.5 0 0 1 .182-.559l1.694-1.231a.5.5 0 0 0-.294-.904h-2.094a.5.5 0 0 1-.476-.346l-.647-1.991z" fill="currentColor"/>
            </g>
        </defs>
            <use href="#box-star"/>
            <use href="#box-star" transform="translate(-11,0)"/>
            <use href="#box-star" transform="translate(-22,0)"/>
        <path d="M52.928 48.83c4.274-.778 7.572-3.954 7.572-8.279v-8.033c0-5.253-4.254-8.96-10.282-8.96H31.782c-6.027 0-10.282 3.708-10.282 8.96v8.033c0 3.399 2.017 7.045 6.5 7.949.889.179 3.191-.345 3.191 2.435v4.635c0 2.781.391 1.666 1.809.43 3.545-3.399 7.5-7 8.5-7h9.573a10.36 10.36 0 0 0 1.855-.17z" stroke="currentColor" stroke-width="3" stroke-linejoin="round" fill="none"/>
    </symbol>
    <symbol id="box-order" viewBox="0 0 82 82">
        <path fill-rule="evenodd" d="M20 27c0-1.5 1.5-3 3-3h36c1.5 0 3 1.5 3 3v27c0 1.5-1.5 3-3 3H23c-1.5 0-3-1.5-3-3V27zm3 5v-5h11v5H23zm25 0v-5h11v5H48zM23 54V35h11v3c0 2 2 1.5 4.5 1l2.5-.5 2.5.5c2 .5 4.5 1 4.5-1v-3h11v19H23zm14-18v-9h8v9l-4-.5-4 .5z" fill="currentColor"/>
    </symbol>
    <symbol id="box-save" viewBox="0 0 82 82">
        <g fill="none" stroke="currentColor" stroke-width="3">
            <rect x="23.5" y="22.5" width="35" height="36" rx="1.5"/>
            <rect x="30.5" y="22.5" width="21" height="18" rx="1.5"/>
        </g>
        <path fill="currentColor" d="M43 26h5v10h-5z"/>
    </symbol>
    <symbol id="box-search" viewBox="0 0 82 82">
        <path d="M29.5 53l-6.501 7m18-34c6.627 0 12 4.925 12 11M41.5 20.5c-9.353-.004-17.005 7.571-17.001 17s7.651 16.996 17.001 17 17.004-7.571 17-17-7.651-16.996-17-17z" fill="none" stroke="currentColor" stroke-width="3" stroke-linecap="round" stroke-linejoin="round"/>
    </symbol>
    <symbol id="telegram" viewBox="0 0 128 128">
        <circle cx="64" cy="64" r="64" fill="#2AABEE" stroke-width="0"/>
        <path fill="#FFF" fill-rule="nonzero" d="M28.9700376,63.3244248 C47.6273373,55.1957357 60.0684594,49.8368063 66.2934036,47.2476366 C84.0668845,39.855031 87.7600616,38.5708563 90.1672227,38.528 C90.6966555,38.5191258 91.8804274,38.6503351 92.6472251,39.2725385 C93.294694,39.7979149 93.4728387,40.5076237 93.5580865,41.0057381 C93.6433345,41.5038525 93.7494885,42.63857 93.6651041,43.5252052 C92.7019529,53.6451182 88.5344133,78.2034783 86.4142057,89.5379542 C85.5170662,94.3339958 83.750571,95.9420841 82.0403991,96.0994568 C78.3237996,96.4414641 75.5015827,93.6432685 71.9018743,91.2836143 C66.2690414,87.5912212 63.0868492,85.2926952 57.6192095,81.6896017 C51.3004058,77.5256038 55.3966232,75.2369981 58.9976911,71.4967761 C59.9401076,70.5179421 76.3155302,55.6232293 76.6324771,54.2720454 C76.6721165,54.1030573 76.7089039,53.4731496 76.3346867,53.1405352 C75.9604695,52.8079208 75.4081573,52.921662 75.0095933,53.0121213 C74.444641,53.1403447 65.4461175,59.0880351 48.0140228,70.8551922 C45.4598218,72.6091037 43.1463059,73.4636682 41.0734751,73.4188859 C38.7883453,73.3695169 34.3926725,72.1268388 31.1249416,71.0646282 C27.1169366,69.7617838 23.931454,69.0729605 24.208838,66.8603276 C24.3533167,65.7078514 25.9403832,64.5292172 28.9700376,63.3244248 Z"/>
    </symbol>
    <symbol id="youtube" viewBox="0 0 30 30">
        <circle cx="15" cy="15" r="15" fill="#FF0000" stroke-width="0"/>
        <path d="M21.251 9.843c.688.189 1.231.746 1.415 1.452C23 12.577 23 15.25 23 15.25s0 2.673-.334 3.954c-.184.707-.726 1.264-1.415 1.453C20.003 21 15 21 15 21s-5.003 0-6.251-.343c-.688-.189-1.231-.746-1.415-1.453C7 17.923 7 15.25 7 15.25s0-2.673.334-3.954c.184-.707.726-1.264 1.415-1.452C9.997 9.5 15 9.5 15 9.5s5.003 0 6.251.343zM13.5 13v5l4-2.5-4-2.5z" fill="#fff"/>
    </symbol>
    <symbol id="instagram" viewBox="0 0 30 30">
        <circle cx="15" cy="15" r="14.5" fill="#fff" stroke-width="1" stroke="#D9D9D9"/><path d="M15 7l-3.312.063c-.851.039-1.429.146-1.937.344-.526.204-.961.493-1.406.938s-.733.88-.937 1.406c-.198.509-.305 1.086-.344 1.938L7 15l.063 3.313c.039.852.146 1.429.344 1.938.204.526.493.962.938 1.406s.88.733 1.406.938c.509.198 1.086.305 1.938.344L15 23l3.313-.062c.852-.039 1.429-.146 1.938-.344.526-.205.962-.493 1.406-.938s.733-.88.938-1.406c.198-.509.305-1.086.344-1.937L23 15l-.062-3.312c-.039-.851-.146-1.429-.344-1.937-.205-.526-.493-.961-.938-1.406s-.88-.733-1.406-.937c-.509-.198-1.086-.305-1.937-.344L15 7zm0 1.438l3.219.063c.78.036 1.218.14 1.5.25.373.145.626.345.906.625s.48.533.625.906c.11.282.214.72.25 1.5L21.563 15l-.062 3.219c-.036.78-.14 1.218-.25 1.5-.145.373-.345.626-.625.906s-.533.48-.906.625c-.282.11-.72.214-1.5.25L15 21.563c-2.136 0-2.375-.024-3.219-.062-.78-.036-1.218-.14-1.5-.25-.373-.145-.626-.345-.906-.625s-.48-.533-.625-.906c-.11-.282-.214-.72-.25-1.5L8.438 15l.063-3.219c.036-.78.14-1.218.25-1.5.145-.373.345-.626.625-.906s.533-.48.906-.625c.282-.11.72-.214 1.5-.25L15 8.438zm4.281 1.344c-.53 0-.969.407-.969.938s.439.969.969.969.938-.439.938-.969a.92.92 0 0 0-.938-.938zM15 10.906c-2.269 0-4.094 1.825-4.094 4.094s1.825 4.094 4.094 4.094 4.094-1.825 4.094-4.094-1.825-4.094-4.094-4.094zm0 1.438a2.65 2.65 0 1 1 0 5.312 2.65 2.65 0 1 1 0-5.312z" fill="#000"/>
    </symbol>
    <symbol id="vk" viewBox="0 0 30 30">
        <circle cx="15" cy="15" r="15" fill="#4c6c91" stroke-width="0"/><path fill-rule="evenodd" d="M9.351 11H7.6c-.5 0-.6.223-.6.469 0 .439.593 2.617 2.763 5.498C11.21 18.934 13.247 20 15.102 20c1.113 0 1.25-.237 1.25-.645v-1.487c0-.474.105-.568.458-.568.26 0 .705.123 1.743 1.071C19.74 19.496 19.936 20 20.603 20h1.75c.5 0 .75-.237.606-.704-.158-.466-.724-1.142-1.476-1.943-.408-.457-1.02-.948-1.205-1.194-.26-.316-.186-.457 0-.738 0 0 2.133-2.845 2.355-3.811.111-.351 0-.609-.529-.609h-1.75c-.445 0-.65.223-.762.469 0 0-.89 2.055-2.151 3.39-.408.386-.593.509-.816.509-.111 0-.272-.123-.272-.474v-3.284c0-.421-.129-.609-.5-.609h-2.751c-.278 0-.445.196-.445.381 0 .4.63.492.695 1.616v2.441c0 .535-.102.632-.325.632-.593 0-2.037-2.064-2.893-4.426-.168-.459-.336-.645-.783-.645h0z" fill="#fff"/>
    </symbol>
    <symbol id="facebook" viewBox="0 0 30 30">
        <circle cx="15" cy="15" r="15" fill="#3B5998" stroke-width="0"/>
        <path fill-rule="evenodd" clip-rule="evenodd" d="M16.5635 23.8197V15.6589H18.8162L19.1147 12.8466H16.5635L16.5673 11.4391C16.5673 10.7056 16.637 10.3126 17.6905 10.3126H19.0988V7.5H16.8457C14.1395 7.5 13.1869 8.86425 13.1869 11.1585V12.8469H11.5V15.6592H13.1869V23.8197H16.5635Z" fill="white"/>
    </symbol>
    <symbol id="logo" viewBox="0 0 196 50">
        <g fill="currentColor">
            <path d="M48 0v49.997h2V0h-2z"/>
            <path d="M62.739 26.791c3.832 0 5.742-1.366 5.742-4.086 0-1.16-.52-2.091-1.257-2.611l-.834-.532a3.46 3.46 0 0 0-.616-.242c1.366-.399 2.055-1.451 2.055-3.155 0-1.583-.883-2.732-2.068-3.167-1.184-.423-1.873-.544-2.405-.544h-6.093v14.338h5.476zm-2.478-6.02h3.143c1.318 0 2.031.435 2.031 1.692 0 1.209-.713 1.656-2.031 1.656h-3.143V20.77zm4.581-4.134c0 .568-.278.991-.556 1.172-.145.097-.302.169-.484.218-.362.097-.447.097-.544.097H60.26v-2.998h2.998l.387.048c.266.036.532.181.797.423.266.254.399.592.399 1.04zm9.2 4.461h6.31v-2.672h-6.31v-3.3h6.854v-2.672h-9.852v14.338h9.852v-2.648h-6.854v-3.046zm12.524 0h6.31v-2.672h-6.31v-3.3h6.854v-2.672h-9.853v14.338h9.853v-2.648h-6.854v-3.046zm16.682 1.982v-2.648h-7.156v2.648h7.156zm4.279-5.44c-1.148 1.076-1.716 2.382-1.716 3.893 0 1.523.568 2.829 1.716 3.905a5.72 5.72 0 0 0 4.11 1.632 5.76 5.76 0 0 0 4.11-1.632c1.137-1.076 1.705-2.381 1.705-3.905 0-1.511-.568-2.817-1.705-3.893a5.8 5.8 0 0 0-4.11-1.62 5.76 5.76 0 0 0-4.11 1.62zm2.079 5.924c-.568-.544-.845-1.221-.845-2.031s.277-1.487.845-2.031c.557-.544 1.234-.81 2.031-.81a2.83 2.83 0 0 1 2.031.81c.557.544.835 1.221.835 2.031s-.278 1.487-.835 2.031a2.84 2.84 0 0 1-2.031.822c-.797 0-1.474-.278-2.031-.822zm20.515 3.228v-6.758c0-.23 0-.605-.326-1.475-.17-.435-.387-.834-.641-1.184-.532-.713-1.68-1.354-3.167-1.354-1.294 0-2.285.399-2.974 1.185v-.907h-2.998v10.493h2.998v-5.646c0-.507.169-1.04.507-1.608s.895-.846 1.669-.846c1.293.013 1.934.762 1.934 2.261v5.839h2.998zm5.815 0V11.958h-2.998v14.833h2.998zm3.36-11.871c.327.338.737.508 1.209.508a1.62 1.62 0 0 0 1.209-.508 1.68 1.68 0 0 0 .495-1.209 1.67 1.67 0 0 0-.495-1.197c-.326-.338-.737-.507-1.209-.507s-.882.169-1.209.507a1.67 1.67 0 0 0-.495 1.197 1.68 1.68 0 0 0 .495 1.209zm2.696 11.871V16.298h-2.998v10.493h2.998zm13.165 0v-6.758c0-.23 0-.605-.327-1.475-.169-.435-.386-.834-.641-1.184-.531-.713-1.68-1.354-3.167-1.354-1.293 0-2.284.399-2.973 1.185v-.907h-2.999v10.493h2.999v-5.646c0-.507.169-1.04.507-1.608s.895-.846 1.669-.846c1.293.013 1.933.762 1.933 2.261v5.839h2.999zm13.333-5.029c0-1.801-.507-3.204-1.535-4.219s-2.273-1.523-3.735-1.523c-1.584 0-2.926.544-4.05 1.62s-1.692 2.382-1.692 3.893c0 1.523.556 2.829 1.68 3.905 1.124 1.088 2.478 1.632 4.062 1.632 1.438-.012 2.865-.423 4.279-1.245l-1.777-2.128c-.81.459-1.656.689-2.55.689-1.391 0-2.237-.532-2.551-1.608h7.869v-1.015zm-5.318-3.071c1.209 0 2.042.568 2.502 1.717h-5.005c.448-1.149 1.282-1.717 2.503-1.717zm7.7 7.882a1.63 1.63 0 0 0 1.197.495 1.62 1.62 0 0 0 1.184-.495 1.63 1.63 0 0 0 .496-1.196c0-.46-.169-.858-.496-1.185a1.62 1.62 0 0 0-1.184-.495 1.63 1.63 0 0 0-1.197.495c-.327.327-.496.725-.496 1.185a1.63 1.63 0 0 0 .496 1.196zm8.438.218v-4.509c0-.423.109-.895.314-1.402.206-.496.569-.967 1.1-1.39.52-.423 1.149-.641 1.874-.641l.822.073v-2.696c-.181-.036-.52-.06-.991-.06-1.318.012-2.357.58-3.119 1.717V16.3h-2.998v10.493h2.998zm13.528-.133c1.304-.544 1.921-1.294 2.332-2.309.411-1.003.447-1.644.447-2.309v-5.742h-2.986v5.839c0 1.499-.688 2.248-2.079 2.248s-2.079-.749-2.079-2.248v-5.839h-2.998v5.742a7.67 7.67 0 0 0 .073 1.027c.048.35.181.786.387 1.281.205.508.471.955.822 1.33s.846.701 1.499.979 1.414.411 2.296.411c.871 0 1.632-.133 2.286-.411zM59.692 38.227a2.38 2.38 0 0 0 1.759-.751c.491-.501.737-1.102.737-1.804s-.246-1.302-.74-1.801-1.079-.748-1.757-.748c-.723 0-1.309.206-1.759.62v-2.486h-1.123v6.842h1.123v-.492c.45.413 1.037.62 1.759.62zm-1.304-1.477c-.304-.281-.455-.639-.455-1.075s.151-.794.455-1.075.676-.422 1.12-.422a1.56 1.56 0 0 1 1.106.422c.302.281.452.639.452 1.075s-.151.794-.452 1.075a1.56 1.56 0 0 1-1.106.422c-.443 0-.817-.14-1.12-.422zm9.095-2.924a2.45 2.45 0 0 0-1.754-.704c-.726 0-1.324.246-1.792.737s-.704 1.096-.704 1.815c0 .756.242 1.371.726 1.843s1.097.709 1.838.709c.647 0 1.265-.145 1.854-.436l-.631-.893a2.77 2.77 0 0 1-1.212.273c-.77 0-1.254-.338-1.452-1.017h3.865v-.38c0-.83-.246-1.48-.737-1.949zm-.397 1.368h-2.72c.101-.335.278-.588.534-.76s.531-.257.829-.257a1.45 1.45 0 0 1 .827.257c.253.172.429.425.53.76zm5.026-.893v1.932a2.44 2.44 0 0 0 .154.911c.103.257.215.444.338.561a1.27 1.27 0 0 0 .458.274 1.83 1.83 0 0 0 .399.109l.277.011.81-.034v-.972l-.436.011c-.585 0-.877-.283-.877-.849v-1.954h1.324v-1.05h-1.324v-1.994l-.539.151-.584.162v1.681h-1.044v1.05h1.044zm3.497 1.371a2.42 2.42 0 0 0 .773 1.81 2.61 2.61 0 0 0 1.883.745 2.6 2.6 0 0 0 1.879-.745c.513-.497.771-1.1.771-1.81a2.41 2.41 0 0 0-.771-1.806c-.514-.495-1.14-.743-1.879-.743s-1.367.248-1.883.743a2.41 2.41 0 0 0-.773 1.806zm1.123.003c0-.428.149-.785.447-1.069s.66-.427 1.086-.427.788.142 1.086.427.447.641.447 1.069a1.42 1.42 0 0 1-.447 1.07c-.298.285-.66.427-1.086.427a1.51 1.51 0 0 1-1.086-.427 1.42 1.42 0 0 1-.447-1.07zm9.33 2.969a1.09 1.09 0 0 1-.405.416 1.97 1.97 0 0 1-.486.201c-.16.041-.32.061-.48.061-.581 0-1.089-.134-1.524-.402l-.514.86a3.53 3.53 0 0 0 2.027.598c.745 0 1.375-.222 1.891-.665a2.14 2.14 0 0 0 .774-1.703v-4.758h-1.123v.492c-.447-.413-1.033-.62-1.759-.62a2.38 2.38 0 0 0-1.759.748 2.47 2.47 0 0 0-.737 1.801 2.48 2.48 0 0 0 .74 1.804c.493.5 1.079.751 1.757.751.722 0 1.308-.206 1.759-.62v.38c0 .253-.053.472-.159.656zm-2.525-1.894c-.3-.281-.449-.639-.449-1.075a1.41 1.41 0 0 1 .449-1.075 1.55 1.55 0 0 1 1.103-.422c.442 0 .817.14 1.122.422s.458.639.458 1.075-.152.794-.458 1.075-.68.422-1.122.422a1.55 1.55 0 0 1-1.103-.422zm9.33-2.924a2.45 2.45 0 0 0-1.753-.704c-.727 0-1.324.246-1.793.737s-.704 1.096-.704 1.815c0 .756.242 1.371.726 1.843s1.096.709 1.837.709c.648 0 1.266-.145 1.855-.436l-.632-.893a2.77 2.77 0 0 1-1.212.273c-.77 0-1.255-.338-1.452-1.017h3.864v-.38c0-.83-.246-1.48-.737-1.949zm-.397 1.368h-2.719a1.34 1.34 0 0 1 .533-.76 1.46 1.46 0 0 1 .83-.257c.299 0 .573.085.826.257s.43.425.53.76zm2.949-.893v1.932a2.44 2.44 0 0 0 .154.911c.103.257.215.444.338.561a1.27 1.27 0 0 0 .458.274c.183.065.315.102.399.109l.277.011.81-.034v-.972l-.436.011c-.584 0-.877-.283-.877-.849v-1.954h1.323v-1.05h-1.323v-1.994l-.539.151-.584.162v1.681h-1.044v1.05h1.044zm8.288 3.798v-3.156l-.011-.232c-.008-.084-.046-.228-.115-.433s-.166-.385-.291-.541-.321-.298-.589-.425-.584-.19-.949-.19c-.655 0-1.151.206-1.485.62v-2.486h-1.124v6.842h1.124V35.48a1.16 1.16 0 0 1 .061-.349 2.41 2.41 0 0 1 .187-.427.98.98 0 0 1 .385-.377c.173-.099.37-.148.589-.148.734 0 1.101.404 1.101 1.212V38.1h1.117zm5.417-4.273a2.45 2.45 0 0 0-1.754-.704c-.726 0-1.323.246-1.793.737s-.703 1.096-.703 1.815c0 .756.242 1.371.726 1.843s1.097.709 1.837.709a4.13 4.13 0 0 0 1.854-.436l-.63-.893a2.77 2.77 0 0 1-1.213.273c-.771 0-1.255-.338-1.451-1.017h3.865v-.38c0-.83-.247-1.48-.738-1.949zm-.396 1.368h-2.72c.1-.335.278-.588.533-.76a1.46 1.46 0 0 1 .829-.257 1.44 1.44 0 0 1 .827.257c.253.172.43.425.531.76zm3.44 2.905v-1.888c0-.458.155-.9.466-1.326s.746-.64 1.304-.64l.274.033v-1.077c-.082-.008-.203-.011-.363-.011-.734 0-1.294.279-1.681.838v-.776h-1.123V38.1h1.123z"/>
        </g>
        <g fill="none" stroke="#de5434" stroke-width="3.25">
            <path d="M35 25H24l-5.5 9.75L24 44.5H35l5.5-9.75L35 25z"/>
            <path d="M35 6H24l-5.5 9.75L24 25.5H35l5.5-9.75L35 6z"/>
            <path d="M18.5 15.5H7.5L2 25.25 7.5 35H18.5l5.5-9.75-5.5-9.75z"/>
        </g>
    </symbol>
    <symbol id="lang_ru" viewBox="0 0 15 15">
        <rect width="15" height="5" fill="#F5F5F5"/>
        <rect y="5" width="15" height="5" fill="#0039A6"/>
        <rect y="10" width="15" height="5" fill="#D52B1E"/>
    </symbol>
    <symbol id="lang_de" viewBox="0 0 15 15">
        <rect width="15" height="5" fill="#000"/>
        <rect y="5" width="15" height="5" fill="#DD0000"/>
        <rect y="10" width="15" height="5" fill="#FFCE00"/>
    </symbol>
    <symbol id="lang_en" viewBox="0 0 38 38">
        <rect width="38" height="38" fill="#FFF"/>
        <path d="M15 0v15H0v8h15v15h8V23h15v-8H23V0h-8zM7 13H0V9.5L7 13zm19-.5l12-6v3l-6 3h-6zM31 25h7v3.5L31 25zm-19 .5H6l-6 3v3l12-6z" fill="#cf142b"/><path d="M12.5 11.5V0H0v5l12.5 6.5zm13 0V0H38v5l-12.5 6.5zm0 15V38H38v-5l-12.5-6.5zm-13 0V38H0v-5l12.5-6.5z" fill="#00247d"/>
    </symbol>
	<symbol id="lang_it" viewBox="0 0 15 15">
        <rect width="5" height="15" fill="#009246"/>
		<rect x="5" width="5" height="15" fill="#FFFFFF"/>
		<rect x="10" width="5" height="15" fill="#CE2B37"/>
    </symbol>
    <symbol id="lang_fr" viewBox="0 0 15 15">
        <rect width="5" height="15" fill="#002395"/>
        <rect x="5" width="5" height="15" fill="#FFFFFF"/>
        <rect x="10" width="5" height="15" fill="#ED2939"/>
    </symbol>

    <symbol id="country_russia" viewBox="0 0 15 15">
        <rect width="15" height="5" fill="#F5F5F5"/>
        <rect y="5" width="15" height="5" fill="#0039A6"/>
        <rect y="10" width="15" height="5" fill="#D52B1E"/>
    </symbol>
    <symbol id="country_uzbekistan" viewBox="0 0 15 15">
        <rect width="15" height="5" fill="#3398FF"/>
        <rect y="5.00044" width="15" height="5" fill="white"/>
        <rect y="9.99956" width="15" height="5" fill="#01CC00"/>
    </symbol>
    <symbol id="country_armenia" viewBox="0 0 15 15">
        <rect width="15" height="5" fill="#FF1512"/>
        <rect y="5.00044" width="15" height="5" fill="#063FAA"/>
        <rect y="9.99956" width="15" height="5" fill="#FFD220"/>
    </symbol>
    <symbol id="country_belarus" viewBox="0 0 15 15">
        <path fill-rule="evenodd" clip-rule="evenodd" d="M0 0H29.9955V9.96223H0V0Z" fill="#FF0000"/>
        <path fill-rule="evenodd" clip-rule="evenodd" d="M0 9.96223H29.9955V14.9993H0V9.96223Z" fill="#429F00"/>
    </symbol>
    <symbol id="country_kyrgyzstan" viewBox="0 0 15 15">
        <rect width="15" height="15" fill="#FF0000"/>
        <path fill-rule="evenodd" clip-rule="evenodd" d="M3.08948 7.65027C3.48947 7.1638 4.31828 7.63946 4.99574 7.28992C4.19216 7.33316 3.75613 6.90434 3.12191 6.9656C3.77775 6.56201 4.3363 7.09533 5.07141 6.87912C4.09846 6.79984 4.14171 6.36381 3.25885 6.30255C4.04441 5.96743 4.42999 6.64849 5.20114 6.49354C4.29305 6.28454 4.17414 5.75122 3.50028 5.6359C4.48404 5.48816 4.41918 6.06833 5.38492 6.1404C4.40476 5.72239 4.66422 5.35483 3.84261 5.03772C4.76151 5.0161 4.70025 5.65032 5.62636 5.81608C4.83358 5.31159 4.93088 4.85034 4.27504 4.48999C5.0534 4.5044 5.12907 5.30078 5.92184 5.54582C5.21555 4.98727 5.39933 4.51161 4.79034 4.01072C5.56149 4.19089 5.44978 4.87917 6.25337 5.31519C5.65879 4.65575 5.88581 4.18008 5.3669 3.63595C6.10923 3.87739 5.82815 4.52962 6.5993 5.14943C6.15607 4.42152 6.42994 3.95667 5.99391 3.34046C6.68579 3.70082 6.35066 4.36386 6.99209 5.02691C6.68939 4.28098 6.99209 3.81613 6.68219 3.15308C7.27316 3.59631 6.92362 4.30621 7.39928 4.98727C7.22632 4.05036 7.62991 3.89541 7.50379 3.07741C7.95062 3.62875 7.44973 4.18008 7.79207 4.98727C7.75603 4.06837 8.24251 3.85216 8.15602 3.11344C8.60286 3.77649 7.90738 4.35305 8.19927 5.06295C8.27134 4.18729 8.8479 3.96387 8.85871 3.28281C9.20825 3.90622 8.4443 4.35666 8.57043 5.18546C8.81907 4.27017 9.43167 4.15846 9.50734 3.54226C9.71635 4.26296 8.88033 4.60169 8.93078 5.40168C9.17942 4.59088 9.94337 4.49359 10.1019 3.89541C10.1956 4.65935 9.44248 4.79628 9.23347 5.63951C9.62986 4.95484 10.3217 4.89358 10.6316 4.34945C10.6064 5.10619 9.75598 5.20348 9.49653 5.91338C9.98661 5.31159 10.5992 5.41609 11.0893 4.88277C11.0388 5.56744 10.174 5.5278 9.71274 6.23409C10.2461 5.74401 11.046 5.89175 11.4532 5.47014C11.4316 6.07193 10.3722 6.02869 9.86769 6.56561C10.4875 6.23048 11.2695 6.42868 11.7235 6.11157C11.637 6.64129 10.5199 6.52237 9.9794 6.93317C10.7181 6.72777 11.2875 7.04128 11.8893 6.81425C11.5974 7.32956 10.5812 7.00524 10.0407 7.34037C10.6821 7.23226 11.3632 7.61784 11.9469 7.49532C11.7559 7.93855 10.6424 7.46649 10.0371 7.74756C10.7578 7.73675 11.2262 8.198 11.8893 8.16557C11.5289 8.56917 10.5488 8.01423 9.9794 8.10792C10.6749 8.25206 11.2046 8.82862 11.7343 8.85745C11.3019 9.18897 10.4911 8.43223 9.83166 8.52953C10.5091 8.7097 11.0785 9.48086 11.4677 9.49887C11.0496 9.78716 10.2208 8.83943 9.65509 8.87186C10.3398 9.18537 10.6569 9.97093 11.1109 10.0826C10.5524 10.2628 10.001 9.22861 9.39924 9.19258C10.0947 9.6322 10.1344 10.3025 10.6713 10.5979C10.1091 10.7421 9.70553 9.57094 9.11095 9.47365C9.68391 9.89166 9.7668 10.7889 10.1488 11.0736C9.57221 11.1024 9.3668 9.88085 8.77943 9.70427C9.28392 10.1259 9.1614 11.0376 9.55058 11.4304C8.956 11.3078 9.03168 10.2412 8.40827 9.88085C8.85511 10.4502 8.62448 11.2538 8.91997 11.7078C8.3362 11.4736 8.59205 10.5187 8.0335 9.97814C8.3362 10.5835 8.01188 11.2862 8.24971 11.87C7.72 11.6105 8.07675 10.4826 7.66955 10.0322C7.85693 10.7313 7.51099 11.3078 7.65153 11.9312C7.1074 11.3006 7.73441 10.67 7.26235 10.0214C7.38487 10.7637 6.86957 11.2754 6.95245 11.8952C6.52003 11.3907 7.18307 10.5799 6.84795 9.94571C6.92002 10.67 6.25337 11.3042 6.30021 11.7619C5.95067 11.1781 6.68939 10.4862 6.4912 9.81959C6.44796 10.5115 5.7777 10.8862 5.65158 11.5132C5.42456 10.8214 6.22454 10.3205 6.15607 9.63941C5.92545 10.288 5.27681 10.5475 5.04619 11.1745C4.85881 10.4826 5.80653 10.1151 5.83176 9.38716C5.53987 10.0718 4.76151 10.2196 4.50566 10.7421C4.40837 10.0574 5.49663 9.74752 5.53627 9.09528C5.18673 9.72229 4.3363 9.74391 4.04081 10.2448C3.99757 9.56013 5.14348 9.47365 5.32366 8.75655C4.97412 9.28987 4.04081 9.22501 3.65523 9.65743C3.71649 9.01961 4.9525 8.97997 5.15069 8.41061C4.68944 8.85384 3.83541 8.67006 3.34893 9.02321C3.6192 8.3962 4.78313 8.52953 5.04259 8.07549C4.53089 8.34575 3.6192 8.0863 3.16876 8.35296C3.57956 7.76198 4.48404 8.11512 4.99574 7.70432C4.16333 7.82684 3.66244 7.49532 3.08588 7.65027H3.08948Z" fill="#FFFF00"/>
        <path fill-rule="evenodd" clip-rule="evenodd" d="M10.4262 7.50252C10.44 7.89279 10.375 8.28182 10.2351 8.64642C10.0953 9.01102 9.8834 9.34371 9.61217 9.62466C9.34095 9.9056 9.01592 10.129 8.65647 10.2817C8.29702 10.4343 7.91051 10.5129 7.52001 10.5129C7.1295 10.5129 6.743 10.4343 6.38355 10.2817C6.0241 10.129 5.69907 9.9056 5.42784 9.62466C5.15661 9.34371 4.94475 9.01102 4.80489 8.64642C4.66502 8.28182 4.60003 7.89279 4.61377 7.50252C4.64029 6.74945 4.9581 6.03608 5.50022 5.51271C6.04235 4.98934 6.76647 4.69684 7.52001 4.69684C8.27354 4.69684 8.99766 4.98934 9.53979 5.51271C10.0819 6.03608 10.3997 6.74945 10.4262 7.50252Z" fill="#FFFF00"/>
        <path fill-rule="evenodd" clip-rule="evenodd" d="M10.0515 7.50974C10.0515 7.84147 9.98612 8.16995 9.85917 8.47642C9.73222 8.7829 9.54616 9.06137 9.31159 9.29594C9.07702 9.53051 8.79855 9.71658 8.49208 9.84352C8.1856 9.97047 7.85712 10.0358 7.52539 10.0358C7.19367 10.0358 6.86519 9.97047 6.55871 9.84352C6.25223 9.71658 5.97376 9.53051 5.7392 9.29594C5.50463 9.06137 5.31856 8.7829 5.19161 8.47642C5.06467 8.16995 4.99933 7.84147 4.99933 7.50974C4.99933 6.83931 5.26566 6.19634 5.73972 5.72227C6.21379 5.2482 6.85676 4.98187 7.52719 4.98187C8.19763 4.98187 8.8406 5.2482 9.31467 5.72227C9.78873 6.19634 10.0551 6.83931 10.0551 7.50974H10.0515Z" fill="#FF0000"/>
        <path fill-rule="evenodd" clip-rule="evenodd" d="M9.70191 7.51334C9.70191 8.08916 9.47317 8.64139 9.06601 9.04855C8.65885 9.45572 8.10661 9.68446 7.5308 9.68446C6.95498 9.68446 6.40275 9.45572 5.99559 9.04855C5.58842 8.64139 5.35968 8.08916 5.35968 7.51334C5.35968 6.93753 5.58842 6.38529 5.99559 5.97813C6.40275 5.57097 6.95498 5.34222 7.5308 5.34222C8.10661 5.34222 8.65885 5.57097 9.06601 5.97813C9.47317 6.38529 9.70191 6.93753 9.70191 7.51334V7.51334Z" fill="#FFFF00"/>
        <path fill-rule="evenodd" clip-rule="evenodd" d="M5.68402 6.08995C6.28581 6.07914 7.03173 6.13319 7.52542 6.52958C8.05423 6.19857 8.67714 6.05044 9.29835 6.10797L9.62266 6.69895C9.1542 6.6521 8.69656 6.71696 8.15603 6.93678C8.48457 7.17917 8.74868 7.49841 8.92521 7.86655C9.10174 8.23469 9.18532 8.6405 9.16862 9.04844C9.08934 9.14934 8.96682 9.25744 8.88755 9.35474C9.00286 8.52232 8.56323 7.58901 7.9218 7.09894C8.44071 7.85207 8.75061 8.52593 8.66413 9.45924L8.36864 9.64302C8.50557 8.82142 8.31459 7.85928 7.70559 7.30073C7.93825 7.64469 8.10067 8.03122 8.18354 8.43812C8.2664 8.84503 8.26808 9.26429 8.18846 9.67184C8.09477 9.70067 7.95063 9.77995 7.85334 9.80878C7.96829 9.42402 7.99947 9.0191 7.94477 8.62128C7.89007 8.22346 7.75076 7.84198 7.53623 7.50253C7.32573 7.8397 7.18954 8.21786 7.13672 8.61181C7.0839 9.00577 7.11568 9.40645 7.22993 9.78716L6.92003 9.69707C6.75426 8.81421 6.98489 7.82324 7.38488 7.30434C6.97768 7.54217 6.59211 8.55476 6.70021 9.58896L6.42634 9.46284C6.29301 8.69169 6.64256 7.68631 7.14705 7.10614C6.57769 7.46649 6.11284 8.34575 6.19572 9.29348C6.10924 9.2178 6.02635 9.17816 5.93987 9.10249C5.83897 8.27368 6.31824 7.44127 6.87678 6.94038C6.4152 6.74488 5.91369 6.66212 5.41376 6.69895C5.50385 6.50796 5.59393 6.28454 5.68402 6.09356V6.08995Z" fill="#FF0000"/>
    </symbol>
    <symbol id="country_kazakhstan" viewBox="0 0 15 15">
        <path fill-rule="evenodd" clip-rule="evenodd" d="M0 0H15V15H0V0Z" fill="#6FDCFF"/>
        <path fill-rule="evenodd" clip-rule="evenodd" d="M1.25977 14.5898C1.3623 14.6865 1.32715 14.8535 1.61133 14.833C2.04199 14.833 2.05371 14.5693 2.05371 14.3848C2.05371 14.2002 1.40918 13.9453 1.37988 13.6729C1.35059 13.4004 1.5293 13.3272 1.67871 13.3272C1.8252 13.3272 1.93066 13.415 1.93066 13.4883C1.93066 13.5615 1.85742 13.585 1.75488 13.585C1.65234 13.585 1.79883 13.5322 1.70801 13.4883C1.61719 13.4443 1.56152 13.5527 1.56152 13.6201C1.56152 13.6846 1.78418 13.7051 1.93066 13.6582C1.95996 13.8047 1.97754 13.8135 1.7666 14.0625C1.91602 13.9658 1.93066 13.9453 2.09473 13.998C1.93066 13.8574 2.05371 13.5703 2.05957 13.4971C2.06543 13.4238 2.03027 13.3359 1.96289 13.292C1.84277 13.1865 1.58203 13.1807 1.42676 13.251C1.19824 13.3506 1.18652 13.6494 1.24805 13.749L1.87793 14.3936C1.92188 14.4697 1.93652 14.6807 1.66992 14.6924C1.38574 14.7129 1.28906 14.3291 1.23926 14.2002C1.17188 14.3408 1.09863 14.7275 0.814453 14.7041C0.547852 14.6953 0.495117 14.4844 0.539063 14.4082L1.18652 13.749C1.24512 13.6494 1.23633 13.3506 1.01074 13.251C0.852539 13.1807 0.591797 13.1865 0.47168 13.2949C0.407227 13.3359 0.369141 13.4238 0.375 13.4971C0.380859 13.5703 0.503906 13.8574 0.339844 13.9951C0.503906 13.9424 0.515625 13.9658 0.665039 14.0625C0.459961 13.8135 0.47168 13.8018 0.503906 13.6553C0.650391 13.7051 0.875977 13.6846 0.875977 13.6201C0.875977 13.5527 0.817383 13.4443 0.726563 13.4883C0.638672 13.5322 0.785156 13.585 0.682617 13.585C0.577148 13.585 0.503906 13.5645 0.503906 13.4883C0.503906 13.4121 0.606445 13.3272 0.755859 13.3272C0.905274 13.3272 1.08398 13.4033 1.05176 13.6729C1.02246 13.9424 0.363281 14.2383 0.363281 14.4229C0.363281 14.6074 0.410156 14.833 0.84082 14.833C1.125 14.8535 1.15723 14.6865 1.25977 14.5869V14.5898Z" fill="#FFE400"/>
        <path fill-rule="evenodd" clip-rule="evenodd" d="M1.22461 10.7227C1.32715 10.623 1.40918 10.3271 1.69336 10.3506C2.12402 10.3506 2.28809 10.5879 2.28809 10.7725C2.28809 10.957 1.40918 12.4629 1.37988 12.7353C1.35059 13.0049 1.5293 13.0811 1.67871 13.0811C1.8252 13.0811 1.93066 12.9932 1.93066 12.917C1.93066 12.8408 1.85742 12.8203 1.75488 12.8203C1.65234 12.8203 1.7959 12.873 1.70801 12.917C1.62012 12.9609 1.56152 12.8525 1.56152 12.7881C1.56152 12.7207 1.78125 12.7002 1.93066 12.75C1.95996 12.6035 1.97461 12.5918 1.7666 12.3428C1.91602 12.4395 1.93066 12.46 2.09473 12.4072C1.93066 12.5478 2.05371 12.835 2.05957 12.9082C2.06543 12.9814 2.03027 13.0693 1.95996 13.1133C1.84277 13.2217 1.5791 13.2246 1.42676 13.1543C1.19824 13.0547 1.18652 12.7559 1.24805 12.6562L2.09473 10.8252C2.13867 10.749 2.02148 10.5029 1.75195 10.4912C1.4707 10.4678 1.37109 10.7637 1.32422 10.8926L1.70801 10.8633C1.70801 10.8633 1.72266 10.9219 1.70801 10.9629C1.50879 10.9746 1.32422 11.0127 1.32422 11.0127L1.30957 11.2061H1.5L1.48242 11.2939C1.48242 11.2939 1.32422 11.2822 1.30664 11.2939C1.29199 11.3057 1.27734 11.4902 1.27734 11.4902C1.27734 11.4902 1.24805 11.499 1.21875 11.499C1.18359 11.499 1.1543 11.4902 1.1543 11.4902C1.1543 11.4902 1.13965 11.3057 1.125 11.2939C1.11035 11.2822 0.949219 11.2939 0.949219 11.2939L0.93457 11.2061H1.125L1.11035 11.0127C1.11035 11.0127 0.922852 10.9746 0.723633 10.9629C0.708984 10.9248 0.723633 10.8662 0.723633 10.8662L1.11035 10.8955C1.06055 10.7637 0.963867 10.4678 0.679688 10.4912C0.413086 10.5 0.292969 10.749 0.336914 10.8252L1.18652 12.6562C1.24512 12.7559 1.2334 13.0547 1.00781 13.1543C0.852539 13.2246 0.591797 13.2217 0.47168 13.1133C0.404297 13.0693 0.369141 12.9814 0.375 12.9082C0.380859 12.835 0.500977 12.5478 0.336914 12.4102C0.500977 12.4629 0.515625 12.4395 0.665039 12.3428C0.459961 12.5918 0.47168 12.6035 0.500977 12.75C0.650391 12.7002 0.873047 12.7207 0.873047 12.7881C0.873047 12.8525 0.814453 12.9609 0.726563 12.917C0.635742 12.873 0.785156 12.8203 0.679688 12.8203C0.577148 12.8203 0.503906 12.8408 0.503906 12.917C0.503906 12.9932 0.606445 13.0811 0.755859 13.0811C0.905273 13.0811 1.08105 13.0049 1.05176 12.7324C1.02246 12.4629 0.143555 10.957 0.143555 10.7695C0.143555 10.5879 0.307617 10.3506 0.738281 10.3506C1.02246 10.3271 1.12207 10.623 1.22461 10.7227V10.7227Z" fill="#FFE400"/>
        <path fill-rule="evenodd" clip-rule="evenodd" d="M1.22461 9.97558C1.32715 10.0752 1.40918 10.3711 1.69336 10.3477C2.12402 10.3477 2.28809 10.1103 2.28809 9.92578C2.28809 9.74121 1.40918 8.23535 1.37988 7.96289C1.35059 7.69336 1.5293 7.61719 1.67871 7.61719C1.8252 7.61719 1.93066 7.70508 1.93066 7.78125C1.93066 7.85742 1.85742 7.87793 1.75488 7.87793C1.65234 7.87793 1.79883 7.8252 1.70801 7.78125C1.61719 7.73731 1.56152 7.8457 1.56152 7.91016C1.56152 7.97754 1.78125 7.99805 1.93066 7.94824C1.95996 8.09473 1.97461 8.10645 1.7666 8.35547C1.91602 8.25879 1.93066 8.23828 2.09473 8.29102C1.93066 8.15039 2.05371 7.86328 2.05957 7.79004C2.06543 7.7168 2.03027 7.62891 1.95996 7.58496C1.84277 7.47656 1.5791 7.47363 1.42676 7.54395C1.19824 7.64355 1.18652 7.94238 1.24805 8.04199L2.09473 9.87305C2.13867 9.94922 2.02148 10.1953 1.75195 10.207C1.4707 10.2305 1.37109 9.93457 1.32422 9.80566L1.70801 9.83496C1.70801 9.83496 1.72266 9.77637 1.70801 9.73535C1.50879 9.7207 1.32422 9.68555 1.32422 9.68555L1.30957 9.49219H1.49414L1.47949 9.4043C1.47949 9.4043 1.32129 9.41601 1.30371 9.4043C1.29199 9.39258 1.27441 9.20801 1.27441 9.20801C1.27441 9.20801 1.24512 9.19922 1.21582 9.19922C1.18066 9.19922 1.15137 9.20801 1.15137 9.20801C1.15137 9.20801 1.13672 9.39258 1.12207 9.4043C1.10742 9.41601 0.946289 9.4043 0.946289 9.4043L0.931641 9.49219H1.12207L1.10742 9.68555C1.10742 9.68555 0.919922 9.7207 0.720703 9.73535C0.706055 9.77344 0.720703 9.83203 0.720703 9.83203L1.10742 9.80273C1.05762 9.93457 0.960938 10.2305 0.676758 10.207C0.410156 10.1982 0.290039 9.94922 0.336914 9.87305L1.18359 8.04199C1.24219 7.94238 1.23047 7.64355 1.00488 7.54395C0.84961 7.47363 0.588867 7.47656 0.46875 7.58496C0.401367 7.62891 0.366211 7.7168 0.37207 7.79004C0.37793 7.86328 0.498047 8.15039 0.333984 8.28809C0.498047 8.23535 0.512695 8.25879 0.662109 8.35547C0.454102 8.10645 0.46875 8.09473 0.498047 7.94824C0.647461 7.99805 0.870117 7.97754 0.870117 7.91016C0.870117 7.84277 0.811524 7.73731 0.723633 7.78125C0.635742 7.8252 0.782227 7.87793 0.676758 7.87793C0.574219 7.87793 0.500977 7.85742 0.500977 7.78125C0.500977 7.70508 0.603516 7.62012 0.75293 7.62012C0.902344 7.62012 1.07813 7.69336 1.04883 7.96582C1.01953 8.23535 0.140625 9.74121 0.140625 9.92871C0.140625 10.1103 0.304688 10.3477 0.735352 10.3477C1.01953 10.3711 1.11914 10.0752 1.22168 9.97558H1.22461Z" fill="#FFE400"/>
        <path fill-rule="evenodd" clip-rule="evenodd" d="M1.22461 5.01563C1.32715 4.91602 1.40918 4.62012 1.69336 4.64063C2.12402 4.64063 2.28809 4.88086 2.28809 5.06543C2.28809 5.24707 1.40918 6.75293 1.37988 7.02539C1.35059 7.29492 1.5293 7.37109 1.67871 7.37109C1.8252 7.37109 1.93066 7.2832 1.93066 7.20996C1.93066 7.13672 1.85742 7.11035 1.75488 7.11035C1.65234 7.11035 1.7959 7.16602 1.70801 7.20996C1.62012 7.25391 1.56152 7.14551 1.56152 7.07813C1.56152 7.01367 1.78125 6.99024 1.93066 7.04004C1.95996 6.89356 1.97461 6.88477 1.7666 6.63574C1.91602 6.73242 1.93066 6.75293 2.09473 6.7002C1.93066 6.84082 2.05371 7.12793 2.05957 7.19824C2.06543 7.26856 2.03027 7.35938 1.95996 7.40332C1.84277 7.51172 1.5791 7.51758 1.42676 7.44727C1.19824 7.34473 1.18652 7.0459 1.24805 6.94922L2.09473 5.11816C2.13867 5.04199 2.02148 4.79297 1.75195 4.78125C1.4707 4.76074 1.37109 5.05664 1.32422 5.18555L1.70801 5.15625C1.70801 5.15625 1.72266 5.21484 1.70801 5.25586C1.50879 5.26758 1.32422 5.30274 1.32422 5.30274L1.30957 5.49902H1.5L1.48242 5.58691C1.48242 5.58691 1.32422 5.5752 1.30664 5.58691C1.29199 5.5957 1.27734 5.78027 1.27734 5.78027C1.27734 5.78027 1.24805 5.79199 1.21875 5.79199C1.18359 5.79199 1.1543 5.78027 1.1543 5.78027C1.1543 5.78027 1.13965 5.5957 1.125 5.58691C1.11035 5.5752 0.949219 5.58691 0.949219 5.58691L0.93457 5.49902H1.125L1.11035 5.30274C1.11035 5.30274 0.922852 5.26758 0.723633 5.25586C0.708984 5.21777 0.723633 5.15625 0.723633 5.15625L1.11035 5.18555C1.06055 5.05664 0.963867 4.76074 0.679688 4.78125C0.413086 4.79297 0.292969 5.04199 0.336914 5.11816L1.18652 6.94922C1.24512 7.0459 1.2334 7.34473 1.00781 7.44727C0.852539 7.51758 0.591797 7.51172 0.47168 7.40332C0.404297 7.36231 0.369141 7.27441 0.375 7.19824C0.380859 7.12207 0.500977 6.84082 0.336914 6.7002C0.500977 6.75293 0.515625 6.73242 0.665039 6.63574C0.459961 6.88477 0.47168 6.89649 0.500977 7.04004C0.650391 6.99317 0.873047 7.01367 0.873047 7.07813C0.873047 7.14258 0.814453 7.25391 0.726563 7.20996C0.635742 7.16602 0.785156 7.11035 0.679688 7.11035C0.577148 7.11035 0.503906 7.13379 0.503906 7.20996C0.503906 7.28613 0.606445 7.37109 0.755859 7.37109C0.905273 7.37109 1.08105 7.29492 1.05176 7.02539C1.02246 6.75293 0.143555 5.24707 0.143555 5.0625C0.143555 4.88086 0.307617 4.64063 0.738281 4.64063C1.02246 4.62012 1.12207 4.91602 1.22461 5.01563V5.01563Z" fill="#FFE400"/>
        <path fill-rule="evenodd" clip-rule="evenodd" d="M1.22461 4.26856C1.32715 4.36816 1.40918 4.66113 1.69336 4.64063C2.12402 4.64063 2.28809 4.40332 2.28809 4.21875C2.28809 4.03418 1.40918 2.52832 1.37988 2.25586C1.35059 1.98633 1.5293 1.91016 1.67871 1.91016C1.8252 1.91016 1.93066 1.99805 1.93066 2.07129C1.93066 2.14453 1.85742 2.1709 1.75488 2.1709C1.65234 2.1709 1.79883 2.11523 1.70801 2.07129C1.61719 2.02734 1.56152 2.13867 1.56152 2.20313C1.56152 2.26758 1.78125 2.29102 1.93066 2.24121C1.95996 2.3877 1.97461 2.39648 1.7666 2.64551C1.91602 2.54883 1.93066 2.52832 2.09473 2.58105C1.93066 2.44043 2.05371 2.15332 2.05957 2.08301C2.06543 2.0127 2.03027 1.92187 1.95996 1.87793C1.84277 1.76953 1.5791 1.76367 1.42676 1.83398C1.19824 1.93652 1.18652 2.23535 1.24805 2.33203L2.09473 4.16309C2.13867 4.23926 2.02148 4.48828 1.75195 4.5C1.4707 4.52051 1.37109 4.22461 1.32422 4.0957L1.70801 4.125C1.70801 4.125 1.72266 4.06641 1.70801 4.02539C1.5793 4.017 1.45116 4.00135 1.32422 3.97852L1.30957 3.78223H1.49414L1.47949 3.69434C1.47949 3.69434 1.32129 3.70606 1.30371 3.69434C1.29199 3.68555 1.27441 3.50098 1.27441 3.50098C1.27441 3.50098 1.24512 3.48926 1.21582 3.48926C1.18066 3.48926 1.15137 3.50098 1.15137 3.50098C1.15137 3.50098 1.13672 3.68555 1.12207 3.69727C1.10742 3.70605 0.946289 3.69727 0.946289 3.69727L0.931641 3.78516H1.12207L1.10742 3.97852C1.10742 3.97852 0.919922 4.01367 0.720703 4.02539C0.712517 4.05809 0.712517 4.0923 0.720703 4.125L1.10742 4.0957C1.05762 4.22461 0.960938 4.52051 0.676758 4.5C0.410156 4.48828 0.290039 4.23926 0.336914 4.16309L1.18359 2.33203C1.24219 2.23535 1.23047 1.93652 1.00488 1.83398C0.849609 1.76367 0.588867 1.76953 0.46875 1.87793C0.401367 1.92187 0.366211 2.00684 0.37207 2.08301C0.37793 2.15918 0.498047 2.44043 0.333984 2.58105C0.498047 2.52832 0.512695 2.55176 0.662109 2.64551C0.454102 2.39648 0.46875 2.3877 0.498047 2.24121C0.647461 2.28809 0.870117 2.27051 0.870117 2.20313C0.870117 2.13574 0.811524 2.02734 0.723633 2.07129C0.635742 2.11523 0.782227 2.1709 0.676758 2.1709C0.574219 2.1709 0.500977 2.14746 0.500977 2.07129C0.500977 1.99512 0.603516 1.91016 0.75293 1.91016C0.902344 1.91016 1.08105 1.98633 1.05176 2.25586C1.02246 2.52832 0.143555 4.03418 0.143555 4.21875C0.143555 4.40332 0.307617 4.64063 0.738281 4.64063C1.02246 4.66113 1.12207 4.36816 1.22461 4.26856V4.26856Z" fill="#FFE400"/>
        <path fill-rule="evenodd" clip-rule="evenodd" d="M1.25977 0.401367C1.3623 0.301758 1.32715 0.137695 1.61133 0.155273C2.04199 0.155273 2.05371 0.418945 2.05371 0.603516C2.05371 0.788086 1.40918 1.0459 1.37988 1.31543C1.35059 1.58789 1.5293 1.66406 1.67871 1.66406C1.8252 1.66406 1.93066 1.57617 1.93066 1.5C1.93066 1.42383 1.85742 1.40625 1.75781 1.40625C1.6582 1.40625 1.80176 1.46191 1.71094 1.50293C1.62012 1.54395 1.56445 1.43848 1.56445 1.37402C1.56445 1.30957 1.78711 1.28613 1.93359 1.33594C1.96289 1.18945 1.98047 1.17773 1.76953 0.928711C1.91602 1.02539 1.93359 1.0459 2.09473 0.996094C1.93066 1.13672 2.05371 1.42383 2.05957 1.49414C2.06543 1.56445 2.03027 1.65527 1.96289 1.69922C1.84277 1.80762 1.58203 1.81348 1.42676 1.74316C1.19824 1.64063 1.18652 1.3418 1.24805 1.24512L1.87793 0.600586C1.92188 0.521484 1.93652 0.310547 1.66992 0.298828C1.38574 0.27832 1.28906 0.665039 1.23926 0.791016C1.17188 0.650391 1.09863 0.263672 0.814453 0.28418C0.547852 0.295898 0.495117 0.506836 0.539063 0.583008L1.18652 1.24219C1.24512 1.33887 1.23633 1.6377 1.01074 1.74023C0.852539 1.81055 0.591797 1.80469 0.47168 1.69629C0.407227 1.65234 0.369141 1.56738 0.375 1.49121C0.380859 1.41504 0.503906 1.13379 0.339844 0.993164C0.503906 1.0459 0.515625 1.02246 0.665039 0.925781C0.459961 1.1748 0.47168 1.18945 0.503906 1.33301C0.650391 1.2832 0.875977 1.30371 0.875977 1.37109C0.875977 1.43555 0.817383 1.54688 0.726563 1.5C0.638672 1.45898 0.785156 1.40332 0.682617 1.40332C0.577148 1.40332 0.503906 1.42676 0.503906 1.5C0.503906 1.57324 0.606445 1.66406 0.755859 1.66406C0.905274 1.66406 1.08398 1.58789 1.05176 1.31543C1.02246 1.0459 0.363281 0.75 0.363281 0.56543C0.363281 0.380859 0.410156 0.155273 0.84082 0.155273C1.125 0.134765 1.15723 0.301758 1.25977 0.401367V0.401367Z" fill="#FFE400"/>
        <path d="M11.0186 6.59619C11.0186 5.29126 9.90233 4.2334 8.52539 4.2334C7.14845 4.2334 6.03223 5.29126 6.03223 6.59619C6.03223 7.90113 7.14845 8.95898 8.52539 8.95898C9.90233 8.95898 11.0186 7.90113 11.0186 6.59619Z" fill="#FFE400"/>
        <path fill-rule="evenodd" clip-rule="evenodd" d="M8.4082 2.82422C8.38477 2.82422 8.27344 3.60938 8.23242 3.78516C8.19141 4.18066 8.75976 4.16602 8.66601 3.77051L8.4082 2.82129V2.82422ZM8.60742 10.4355C8.62793 10.4355 8.79785 9.65918 8.85352 9.48633C8.9209 9.09668 8.35254 9.07617 8.41406 9.47461L8.60742 10.4355V10.4355ZM4.63477 6.58008C4.63477 6.60059 5.45215 6.76465 5.63379 6.81738C6.04394 6.88477 6.07324 6.34863 5.65137 6.40723L4.63477 6.58301V6.58008ZM12.5947 6.67383C12.5947 6.65332 11.7686 6.51855 11.584 6.47168C11.1709 6.42188 11.168 6.95801 11.584 6.88477L12.5947 6.67383ZM5.47266 4.08984C5.45801 4.10449 5.99707 4.71387 6.10547 4.86328C6.38672 5.15625 6.75879 4.74609 6.38672 4.54688L5.47266 4.09277V4.08984ZM11.6572 9.09961C11.6719 9.08496 11.0801 8.52246 10.957 8.38477C10.6494 8.11523 10.3184 8.55176 10.7051 8.72168L11.6572 9.10254V9.09961ZM6.70605 3.24023C6.68848 3.24902 6.94043 4.00488 6.98144 4.18359C7.12207 4.55566 7.63184 4.3125 7.36816 3.99316L6.70898 3.24023H6.70605ZM10.3125 10.0488C10.333 10.04 10.1367 9.26953 10.1104 9.09082C9.99609 8.70996 9.47168 8.91504 9.70898 9.25488L10.3154 10.0459L10.3125 10.0488ZM11.2002 3.76758C11.1826 3.75293 10.5322 4.25391 10.374 4.35352C10.0605 4.61719 10.4854 4.97461 10.7021 4.62598L11.2002 3.76758ZM5.83887 9.44238C5.85351 9.45703 6.54199 9.00293 6.70605 8.91211C7.03711 8.67188 6.6416 8.28516 6.39844 8.61914L5.8418 9.44238H5.83887ZM4.81348 5.2207C4.80469 5.23828 5.5166 5.65137 5.67187 5.75977C6.03809 5.9502 6.25195 5.45215 5.83301 5.37305L4.81348 5.2207V5.2207ZM12.2461 8.10352C12.2549 8.08594 11.5723 7.62598 11.4258 7.50879C11.0742 7.29199 10.8252 7.77539 11.2383 7.88086L12.2461 8.10352V8.10352ZM9.88477 3.03809C9.86426 3.03223 9.45703 3.72363 9.34863 3.87305C9.34883 3.92076 9.36396 3.96721 9.3919 4.00589C9.41984 4.04457 9.45919 4.07354 9.50442 4.08872C9.54965 4.10391 9.5985 4.10455 9.64412 4.09057C9.68974 4.07658 9.72984 4.04867 9.75879 4.01074L9.88477 3.03809ZM7.13379 10.1953C7.1543 10.2041 7.61133 9.53906 7.72851 9.39551C7.94238 9.05567 7.42383 8.83887 7.32715 9.23145L7.13379 10.1953V10.1953ZM4.86328 8.16504C4.87207 8.18262 5.68359 7.98926 5.87402 7.95996C6.27246 7.84863 6.0498 7.35645 5.69824 7.58496L4.86328 8.16504ZM12.249 5.15625C12.2432 5.13867 11.4199 5.27637 11.2295 5.29395C10.8193 5.37891 11.0098 5.88574 11.376 5.68066L12.249 5.15625V5.15625Z" fill="#FFE400"/>
        <path fill-rule="evenodd" clip-rule="evenodd" d="M9.2168 2.87402C9.19629 2.87109 8.9209 3.61816 8.83887 3.78223C8.71875 4.16309 9.27832 4.25684 9.26953 3.85254L9.21973 2.87109L9.2168 2.87402ZM7.7959 10.3711C7.81641 10.377 8.14746 9.64746 8.24121 9.48633C8.38769 9.11719 7.83691 8.98828 7.81641 9.38965L7.79297 10.3711H7.7959ZM7.51172 2.94727C7.49121 2.95312 7.56738 3.74414 7.56738 3.92578C7.62305 4.31543 8.1709 4.18066 7.98926 3.81738L7.51172 2.94727V2.94727ZM9.50391 10.3271C9.52441 10.3242 9.50391 9.53027 9.51856 9.34863C9.49219 8.95313 8.93262 9.05273 9.09082 9.42773L9.50098 10.3271H9.50391ZM6.09961 3.60352C6.08203 3.61523 6.47168 4.31543 6.54492 4.48242C6.75586 4.8252 7.20996 4.50293 6.89062 4.23047L6.09961 3.60352ZM10.9277 9.69434C10.9453 9.68262 10.6055 8.95606 10.5469 8.78613C10.3623 8.43164 9.88769 8.72461 10.1836 9.01465L10.9277 9.69434ZM5.06836 4.58789C5.05664 4.60547 5.68652 5.12695 5.81836 5.26172C6.14355 5.50781 6.44531 5.05078 6.04687 4.90723L5.06836 4.58789ZM11.9297 8.68066C11.9414 8.66309 11.3525 8.10059 11.2295 7.95996C10.9248 7.69336 10.5908 8.12988 10.9775 8.29981L11.9297 8.68066ZM4.61719 5.81543C4.61133 5.83594 5.3877 6.13184 5.55762 6.2168C5.9502 6.34863 6.07617 5.82422 5.64844 5.8125L4.61719 5.81543V5.81543ZM12.4512 7.50879C12.46 7.49121 11.707 7.14551 11.543 7.04883C11.1621 6.89063 10.9951 7.40625 11.4199 7.44727L12.4512 7.50879ZM4.59082 7.32422C4.59375 7.3418 5.43164 7.33008 5.62207 7.34473C6.03809 7.32422 5.93848 6.79395 5.54004 6.9375L4.59082 7.32422ZM12.5068 6.00586C12.5068 5.98535 11.6689 5.94141 11.4814 5.91504C11.0625 5.90918 11.124 6.44531 11.5312 6.3252L12.5068 6.00293V6.00586ZM5.30859 8.88867C5.32031 8.90625 6.07031 8.54883 6.24609 8.48145C6.60937 8.29102 6.27539 7.85449 5.98535 8.15039L5.30859 8.88867ZM11.8213 4.42676C11.8096 4.40918 11.0391 4.7168 10.8545 4.77246C10.4766 4.93945 10.7783 5.39648 11.0889 5.12109L11.8213 4.42676V4.42676ZM6.52734 9.92578C6.54492 9.93457 7.08105 9.3252 7.21582 9.19629C7.4707 8.88281 6.98144 8.61035 6.83789 8.99121L6.52734 9.92578ZM10.6201 3.36914C10.6055 3.35742 10.0254 3.92871 9.88184 4.04883C9.60644 4.34473 10.0752 4.64941 10.2451 4.28027L10.6172 3.36914H10.6201Z" fill="#FFE400"/>
        <path fill-rule="evenodd" clip-rule="evenodd" d="M4.71336 8.16776C4.75812 8.31885 4.76451 9.16496 5.66603 9.98086C6.56116 10.7907 8.09566 10.972 8.09566 10.972C8.09566 10.972 8.10205 11.0868 7.99336 11.0929C7.88466 11.105 7.36038 11.0022 7.09823 10.9237C6.84248 10.8511 6.61231 10.7182 6.58673 10.7242C6.55476 10.7363 6.50361 10.8209 6.42689 10.8088C6.35016 10.7968 5.97932 10.4341 5.81309 10.3374C5.48059 10.0658 5.18622 9.75503 4.93714 9.41275C4.75812 9.14079 4.71336 8.95948 4.65582 8.95948C4.59828 8.95948 4.38728 9.09244 4.38728 9.09244C4.38728 9.09244 4.19547 8.82048 4.02923 8.38533C3.8566 7.95019 3.87578 7.69636 3.91414 7.67823C3.9589 7.6601 3.9589 7.99854 4.08677 8.30677C4.21465 8.62104 4.39368 8.71773 4.39368 8.71773C4.39368 8.71773 4.27859 8.55456 4.18908 8.14963C4.09956 7.74471 4.0612 7.35187 4.12514 7.231C4.18908 7.11012 4.24662 7.07386 4.25301 7.0799C4.2658 7.09199 4.14432 7.26726 4.22744 7.73262C4.31056 8.19798 4.53434 8.59082 4.58549 8.57269C4.63664 8.55456 4.55352 8.45786 4.52155 8.18589C4.48958 7.91393 4.55352 7.74471 4.62385 7.72053C4.65582 7.69636 4.70697 8.02271 4.71336 8.16776V8.16776ZM4.08677 8.94135C3.91414 8.79026 3.64561 8.26446 3.58806 8.28863C3.52413 8.31885 4.02284 9.07431 4.03563 9.13475C4.04841 9.20727 4.15711 9.41275 4.07399 9.38254C3.99087 9.35232 3.39625 8.76004 3.46658 8.87487C3.53691 8.9897 3.98447 9.50945 3.9589 9.53967C3.93332 9.56989 3.58806 9.24958 3.57527 9.29188C3.56888 9.32814 3.91414 9.64241 3.90775 9.67867C3.90136 9.71494 3.68397 9.47923 3.68397 9.52758C3.68397 9.57593 3.90775 9.81164 3.90775 9.8479C3.90775 9.88416 3.71594 9.67868 3.77988 9.78746C3.83742 9.90833 4.00366 10.0111 3.99726 10.0473C3.99087 10.0836 3.8566 9.99899 3.8566 10.0171C3.8566 10.0353 4.10596 10.1199 4.1635 10.1863C4.22744 10.2528 4.63664 10.7001 4.94354 10.9237C5.25044 11.1473 6.13277 11.5401 6.19671 11.5401C6.25426 11.5401 6.34377 11.4192 6.32459 11.3709C6.30541 11.3225 5.44225 11.0445 5.20568 10.8391C4.96272 10.6336 4.37449 10.138 4.32334 10.1138C4.27859 10.0836 4.14432 10.0957 4.14432 10.0655C4.14432 10.0353 4.31695 10.0836 4.30416 10.0655C4.29777 10.0473 4.06759 9.95064 4.07399 9.93251C4.08678 9.91438 4.23383 9.96877 4.23383 9.95064C4.23383 9.93251 3.96529 9.7935 3.97808 9.76329C3.98448 9.73307 4.17629 9.8479 4.17629 9.82372C4.17629 9.81164 3.92054 9.64241 3.92693 9.61219C3.93332 9.58198 4.12514 9.74516 4.11874 9.70889C4.11235 9.67263 3.96529 9.46715 3.96529 9.44297C3.96529 9.41275 4.19547 9.64846 4.22104 9.60011C4.23383 9.5578 4.13793 9.16496 4.14432 9.15892C4.15071 9.15288 4.31695 9.24353 4.34252 9.18914C4.37449 9.1287 4.22744 9.05014 4.08677 8.94135V8.94135ZM7.03429 11.9148C6.91281 11.933 6.85527 11.8907 6.9256 11.794C7.02151 11.794 7.27726 11.7154 7.36677 11.6791C7.45628 11.6429 7.55219 11.5945 7.62891 11.528C7.70564 11.4495 7.75679 11.5703 7.71203 11.6368C7.68006 11.6791 7.53301 11.7577 7.42431 11.8C7.26447 11.8483 7.12381 11.9209 7.03429 11.9148ZM7.83351 11.6066C7.75039 11.522 7.82073 11.4616 7.94221 11.3951C8.12123 11.3044 8.07008 11.1775 8.30026 11.0748C8.40256 11.0143 9.83476 10.4704 10.3015 10.1803C10.7682 9.8902 12.079 8.95344 12.4306 8.30677C12.7759 7.66614 12.6096 7.61779 12.6608 7.59361C12.7056 7.5634 12.7567 7.68427 12.7503 7.82932C12.7375 7.96832 12.6224 8.39138 12.6608 8.43368C12.6992 8.47599 13.1851 8.10128 13.3897 7.64801C13.5943 7.19473 13.7477 6.72333 13.8436 6.72333C13.9459 6.72333 13.6774 7.49692 13.5048 7.7991C13.3385 8.10128 13.1403 8.25237 13.1851 8.31885C13.2362 8.37929 13.7349 7.98645 13.9076 7.69636C14.0738 7.40022 14.2337 7.14034 14.2656 7.19473C14.2148 7.54876 14.0671 7.88414 13.8372 8.16776C13.5687 8.45786 13.249 8.66938 13.3002 8.71169C13.3449 8.76004 13.7094 8.80839 14.0866 8.56664C14.4702 8.31885 14.5086 7.96228 14.5533 7.98041C14.6045 7.99854 14.5086 8.48808 14.1441 8.79026C13.7797 9.09244 13.3002 9.12266 13.313 9.18914C13.3385 9.24958 14.3551 8.91113 14.336 8.9897C14.3168 9.06222 13.0188 9.54571 13.0061 9.59406C13.0061 9.63033 13.2298 9.64241 13.5815 9.56385C13.9268 9.49132 14.2592 9.23144 14.304 9.29188C14.3168 9.37649 14.0546 9.58198 13.6582 9.67867C13.2554 9.77537 13.0572 9.90229 13.0444 9.93251C13.038 9.96273 13.7605 9.8479 13.7605 9.88416C13.7605 9.92042 12.8142 10.0957 12.8079 10.144C12.7951 10.1863 13.703 9.96877 13.6902 10.0232C13.6646 10.0655 12.4562 10.4039 12.469 10.422C12.4754 10.4462 13.4792 10.2166 13.46 10.2528C13.4344 10.2951 11.7721 10.7363 11.7593 10.7665C11.7465 10.7907 13.2298 10.4523 13.2171 10.4825C13.2043 10.5127 12.4498 10.688 12.4498 10.7061C12.4498 10.7242 13.0572 10.6154 13.0444 10.6457C13.038 10.6698 11.5099 11.0385 11.478 11.0929C11.446 11.1533 12.2708 10.9418 12.258 11.0506C12.2452 11.1594 10.4869 11.7154 10.4805 11.6126C10.4677 11.5099 11.5483 11.25 11.5419 11.2198C11.5291 11.1896 10.9217 11.2802 10.9089 11.2259C10.9025 11.1654 11.3117 11.0445 11.2797 11.0204C11.2478 10.9901 10.9409 11.105 10.9665 11.0385C10.9984 10.972 11.5803 10.7182 11.5675 10.7001C11.5611 10.6819 11.3565 10.7605 11.3757 10.7001C11.4012 10.6336 12.6352 10.2951 12.616 10.2528C12.5969 10.2166 12.047 10.3374 11.9958 10.3495C11.9767 10.3133 12.7631 10.0353 12.7503 9.9869C12.7247 9.9446 12.3283 10.1501 12.3027 10.0957C12.29 10.0353 12.9997 9.77537 12.9549 9.73307C12.9102 9.69076 12.5905 9.84185 12.5457 9.79955C12.501 9.75724 13.2171 9.29188 13.1084 9.27979C12.9997 9.27375 12.8654 9.42484 12.8526 9.32814C12.8654 9.20727 13.4089 9.00783 13.2874 8.91113C13.0956 8.85674 12.4498 8.95344 12.1813 9.10453C11.9127 9.25562 11.0176 10.0957 10.8002 10.2286C10.5828 10.3556 9.84115 10.6517 9.70049 10.7121C9.4831 10.7847 9.44474 10.8934 9.22096 11.0022C8.81815 11.105 8.82454 11.2198 8.63273 11.2863C8.5624 11.3044 7.83991 11.6308 7.83351 11.6066V11.6066ZM6.8233 12.0297C6.70182 12.0901 6.59313 12.2351 6.66346 12.2956C6.70182 12.3681 6.8233 12.1324 6.91921 12.1445L7.43071 12.1687C7.70564 12.1868 7.83991 12.1143 7.99336 12.1264C8.14681 12.1384 8.48568 12.0478 8.64552 12.0478C8.80536 12.0478 8.83733 12.0659 8.85012 11.9994C8.8693 11.939 8.35141 11.9813 8.12123 11.9753C7.89106 11.9632 7.60334 12.0176 7.43071 12.0176C7.27086 12.0115 6.99593 11.9632 6.8233 12.0297V12.0297Z" fill="#FFE400"/>
        <path d="M7.59056 11.9571C7.59056 11.9071 7.54189 11.8665 7.48186 11.8665C7.42183 11.8665 7.37317 11.9071 7.37317 11.9571C7.37317 12.0072 7.42183 12.0478 7.48186 12.0478C7.54189 12.0478 7.59056 12.0072 7.59056 11.9571Z" fill="#FFE400"/>
        <path fill-rule="evenodd" clip-rule="evenodd" d="M10.1417 11.7819C10.2504 11.7637 10.5445 11.8604 10.7491 11.9027C11.1199 12.0417 11.8104 11.9753 11.8104 12.0417C11.8104 12.1082 11.7657 12.1868 11.6058 12.1989C11.446 12.211 11.0432 12.1384 11.056 12.1384C11.0688 12.1384 11.3757 12.2774 11.2861 12.3137C11.1966 12.35 10.9345 12.2351 10.8897 12.2654C10.845 12.2956 11.1327 12.35 11.0815 12.3681C11.0432 12.3862 10.845 12.3439 10.781 12.35C10.7171 12.3621 10.8322 12.4285 10.7555 12.4527C10.6787 12.4829 10.5509 12.4164 10.4997 12.4346C10.4422 12.4527 10.6148 12.5555 10.5381 12.5675C10.4614 12.5796 10.2823 12.5192 10.18 12.5071C10.0777 12.5071 10.2759 12.6038 10.212 12.6159C10.1481 12.6219 9.96903 12.5373 9.92428 12.5373C9.87952 12.5373 9.92428 12.6582 9.86034 12.6582C9.7964 12.6582 9.71968 12.5555 9.68131 12.5555C9.64295 12.5555 9.68131 12.6763 9.61738 12.6763C9.55344 12.6763 9.52787 12.5494 9.47672 12.5555C9.41278 12.5675 9.47672 12.7186 9.3872 12.7065C9.30408 12.7005 9.2913 12.5494 9.22097 12.5555C9.15703 12.5675 9.23375 12.7065 9.16981 12.7065C9.10588 12.7065 9.09309 12.5675 9.02915 12.5555C8.96522 12.5494 8.99079 12.6884 8.95243 12.6884C8.91406 12.6884 8.8757 12.5555 8.85013 12.5555C8.83095 12.5555 8.85013 12.6884 8.7734 12.6763C8.69668 12.6642 8.69668 12.5313 8.6775 12.5373C8.65192 12.5494 8.65192 12.6461 8.60077 12.6461C8.54962 12.6461 8.54323 12.5494 8.52405 12.5615C8.49847 12.5675 8.42175 12.6884 8.3706 12.6703C8.31305 12.6521 8.38338 12.5555 8.35781 12.5555C8.33223 12.5555 8.2683 12.6219 8.22993 12.6159C8.19157 12.6098 8.22993 12.5313 8.21715 12.5313C8.20436 12.5313 8.10845 12.5796 8.0637 12.5796C8.01894 12.5796 7.89746 12.6401 7.86549 12.5857C7.83352 12.5252 7.94861 12.5252 7.97418 12.4708C7.99336 12.4164 7.91025 12.2533 7.99976 12.1989C8.08288 12.1384 8.35781 12.2774 8.76701 12.1807C9.50868 11.9934 10.0841 11.7758 10.1417 11.7819V11.7819Z" fill="#FFE400"/>
    </symbol>
    <symbol id="country_world" viewBox="0 0 15 15">
        <circle cx="7.5" cy="7.5" r="7.5" fill="#0075FF"/>
        <mask id="mask0_2532_74840" style="mask-type:alpha" maskUnits="userSpaceOnUse" x="0" y="0" width="15" height="15">
            <circle cx="7.5" cy="7.5" r="7.5" fill="#C4C4C4"/>
        </mask>
        <g mask="url(#mask0_2532_74840)">
            <path d="M7.75 -1.00024C3.07525 -1.00024 -0.75 2.82501 -0.75 7.49976C-0.75 12.1745 3.07525 15.9998 7.75 15.9998C12.4247 15.9998 16.25 12.1745 16.25 7.49976C16.25 2.82501 12.4247 -1.00024 7.75 -1.00024ZM7.75 15.2498C5.875 15.2498 4.17475 14.5994 2.82525 13.4744C2.97564 13.0242 3.25005 12.0994 3.25005 11.7498C3.25005 11.2498 2.25005 11.2498 2.00005 10.9998C1.75005 10.7498 1.75005 9.99976 1.50005 9.74976C1.29986 9.54956 0.50005 9.19996 0.15045 9.07496C0.0508402 8.57496 6.00815e-05 8.04956 6.00815e-05 7.49976C6.00815e-05 7.27515 6.02305e-05 7.07496 0.0254502 6.84936C0.57525 6.57396 1.75005 5.92456 1.75005 5.74976C1.75005 5.49976 1.25005 4.24976 1.25005 3.99976C1.25005 3.74976 1.75005 3.24976 2.00005 3.24976C2.25005 3.24976 2.25005 4.24976 2.50005 4.24976C2.75005 4.24976 3.50005 2.74976 3.50005 2.49976C3.50005 2.27515 2.95025 1.69996 2.79985 1.54956C4.15042 0.424556 5.8751 -0.250244 7.7501 -0.250244C9.0997 -0.250244 10.3496 0.0993559 11.4503 0.699956C11.0001 0.974381 10.1749 1.49976 10.0001 1.49976H8.50015C8.25015 1.49976 7.07535 2.57496 7.25015 2.74976C7.50015 2.99976 8.25015 2.49976 8.50015 2.49976C8.75015 2.49976 8.75015 3.24976 8.50015 3.49976C8.25015 3.74976 6.75015 3.74976 6.50015 3.74976C6.25015 3.74976 5.75015 4.74976 5.75015 4.99976C5.75015 5.24976 6.00015 5.49976 6.25015 5.49976C6.50015 5.49976 7.75015 4.49976 8.00015 4.49976C8.25015 4.49976 8.75015 4.99976 9.00015 4.99976C9.25015 4.99976 10.0001 4.24976 10.2501 4.49976C10.5001 4.74976 9.50015 5.24976 9.50015 5.49976C9.50015 5.74976 9.75015 5.74976 10.0001 5.74976C10.2501 5.74976 10.2501 6.24976 10.0001 6.24976H8.25015C8.00015 6.24976 7.75015 5.74976 7.50015 5.74976C7.25015 5.74976 4.75015 6.74976 4.75015 6.99976V8.49976C4.75015 8.74976 5.75015 9.49976 6.00015 9.49976C6.25015 9.49976 6.75015 9.24976 7.00015 9.24976C7.25015 9.24976 8.00015 10.4998 8.00015 10.7498C8.00015 10.9998 7.75015 11.2498 7.75015 11.4998C7.75015 11.7498 8.00015 12.2498 8.25015 12.4998C8.50015 12.7498 9.00015 12.9998 9.25015 12.7498C9.50015 12.4998 10.7501 11.2498 10.7501 10.9998V10.2498C10.7501 9.99976 11.6252 9.54956 11.5002 9.24976C11.425 9.07495 11.0001 9.24976 10.7501 8.99976C10.5001 8.74976 10.5001 6.74976 10.5001 6.74976C10.5001 6.74976 11.0002 8.24976 11.2502 8.49976C11.5002 8.74976 12.2502 7.99976 12.2502 7.74976C12.2502 7.49976 11.7502 6.49976 11.7502 6.49976L12.2502 6.99976C12.5002 7.24976 12.7502 6.99976 13.0002 6.99976C13.2502 6.99976 13.7502 8.74976 14.0002 8.74976C14.2502 8.74976 14.2502 7.99976 14.5002 7.74976C14.675 7.57495 15.175 7.52515 15.5002 7.49976C15.5002 11.7753 12.0256 15.2498 7.75015 15.2498H7.75Z" fill="#6DBF2F"/>
        </g>
    </symbol>
	<symbol id="notify" viewBox="0 0 32 32">
        <path d="M16 14.5v8M16 12V9.5M4 16C4 9.373 9.373 4 16 4s12 5.373 12 12-5.373 12-12 12S4 22.627 4 16z" stroke="currentColor" fill="none" stroke-width="2.5"/>
    </symbol>

</svg>
