<svg width="284" height="72" viewBox="0 0 284 72" fill="none" xmlns="http://www.w3.org/2000/svg">
<path d="M90.9091 38.4858C96.4616 38.4858 99.2296 36.5237 99.2296 32.6158C99.2296 30.9494 98.4762 29.6117 97.4081 28.8647C96.8649 28.5003 96.4616 28.2396 96.1989 28.1007C95.9196 27.9618 95.6208 27.8408 95.3061 27.7533C97.2853 27.1805 98.2837 25.6695 98.2837 23.2211C98.2837 20.9467 97.0048 19.296 95.2878 18.6716C93.572 18.0636 92.5736 17.8895 91.8031 17.8895H82.9749V38.4858H90.9091ZM87.3187 29.8373H91.8727C93.7822 29.8373 94.8155 30.4624 94.8155 32.2685C94.8155 34.005 93.7822 34.6482 91.8727 34.6482H87.3187V29.8373ZM93.957 23.8985C93.957 24.7148 93.5543 25.3221 93.1516 25.5828C92.9414 25.7217 92.7135 25.8255 92.4508 25.8958C91.9259 26.0347 91.8031 26.0347 91.6625 26.0347H87.3187V21.728H91.6625L92.2235 21.7974C92.6084 21.849 92.994 22.0573 93.3789 22.4046C93.7645 22.7691 93.957 23.2554 93.957 23.8985ZM107.287 30.3063H116.43V26.4687H107.287V21.728H117.218V17.8895H102.943V38.4858H117.218V34.6825H107.287V30.3063ZM125.434 30.3063H134.577V26.4687H125.434V21.728H135.366V17.8895H121.09V38.4858H135.366V34.6825H125.434V30.3063ZM149.607 33.1543V29.351H139.237V33.1543H149.607ZM155.807 25.3393C154.144 26.8854 153.32 28.761 153.32 30.9315C153.32 33.12 154.144 34.9954 155.807 36.5408C157.454 38.1033 159.433 38.8846 161.763 38.8846C164.075 38.8846 166.055 38.1033 167.718 36.5408C169.365 34.9954 170.188 33.12 170.188 30.9315C170.188 28.761 169.365 26.8854 167.718 25.3393C166.055 23.7939 164.075 23.0126 161.763 23.0126C159.433 23.0126 157.454 23.7939 155.807 25.3393ZM158.82 33.849C157.997 33.0677 157.594 32.0952 157.594 30.9315C157.594 29.7678 157.997 28.7953 158.82 28.014C159.626 27.2327 160.607 26.8503 161.763 26.8503C162.902 26.8503 163.882 27.2327 164.705 28.014C165.511 28.7953 165.915 29.7678 165.915 30.9315C165.915 32.0952 165.511 33.0677 164.705 33.849C163.882 34.6302 162.902 35.0298 161.763 35.0298C160.607 35.0298 159.626 34.6302 158.82 33.849ZM188.545 38.4858V28.7781C188.545 28.448 188.545 27.9094 188.073 26.6591C187.827 26.0347 187.512 25.4611 187.143 24.9577C186.373 23.9329 184.709 23.0126 182.554 23.0126C180.68 23.0126 179.244 23.5855 178.246 24.7148V23.4122H173.902V38.4858H178.246V30.3757C178.246 29.6468 178.491 28.8819 178.981 28.0663C179.472 27.2499 180.277 26.8503 181.399 26.8503C183.272 26.8683 184.2 27.9445 184.2 30.0979V38.4858H188.545ZM196.97 38.4858V17.1777H192.627V38.4858H196.97ZM201.84 21.4321C202.313 21.9184 202.908 22.1619 203.592 22.1619C204.275 22.1619 204.87 21.9184 205.343 21.4321C205.816 20.9467 206.061 20.373 206.061 19.6956C206.061 19.036 205.816 18.4624 205.343 17.9762C204.87 17.4907 204.275 17.2472 203.592 17.2472C202.908 17.2472 202.313 17.4907 201.84 17.9762C201.367 18.4624 201.122 19.036 201.122 19.6956C201.122 20.373 201.367 20.9467 201.84 21.4321ZM205.746 38.4858V23.4122H201.402V38.4858H205.746ZM224.821 38.4858V28.7781C224.821 28.448 224.821 27.9094 224.348 26.6591C224.103 26.0347 223.788 25.4611 223.42 24.9577C222.649 23.9329 220.985 23.0126 218.831 23.0126C216.957 23.0126 215.521 23.5855 214.522 24.7148V23.4122H210.177V38.4858H214.522V30.3757C214.522 29.6468 214.767 28.8819 215.257 28.0663C215.748 27.2499 216.553 26.8503 217.675 26.8503C219.549 26.8683 220.477 27.9445 220.477 30.0979V38.4858H224.821ZM244.142 31.2616C244.142 28.6743 243.407 26.6591 241.917 25.2011C240.428 23.7424 238.624 23.0126 236.505 23.0126C234.21 23.0126 232.266 23.7939 230.637 25.3393C229.008 26.8854 228.184 28.761 228.184 30.9315C228.184 33.12 228.99 34.9954 230.619 36.5408C232.248 38.1033 234.21 38.8846 236.505 38.8846C238.589 38.8675 240.656 38.2774 242.706 37.0966L240.131 34.0401C238.957 34.6997 237.731 35.0298 236.435 35.0298C234.42 35.0298 233.194 34.2657 232.738 32.7204H244.142V31.2616ZM236.435 26.8503C238.186 26.8503 239.394 27.6667 240.06 29.3166H232.809C233.457 27.6667 234.666 26.8503 236.435 26.8503ZM247.592 38.1728C248.066 38.6419 248.643 38.8846 249.327 38.8846C249.993 38.8846 250.57 38.6419 251.043 38.1728C251.516 37.7045 251.762 37.1309 251.762 36.4542C251.762 35.7939 251.516 35.2211 251.043 34.7519C250.57 34.2829 249.993 34.0401 249.327 34.0401C248.643 34.0401 248.066 34.2829 247.592 34.7519C247.119 35.2211 246.874 35.7939 246.874 36.4542C246.874 37.1309 247.119 37.7045 247.592 38.1728ZM259.819 38.4858V32.0086C259.819 31.4005 259.977 30.7231 260.274 29.9941C260.572 29.2815 261.098 28.6048 261.868 27.9968C262.622 27.3889 263.533 27.0759 264.584 27.0759L265.775 27.1805V23.3077C265.512 23.2554 265.021 23.2211 264.338 23.2211C262.429 23.2382 260.923 24.0546 259.819 25.6874V23.4122H255.475V38.4858H259.819ZM279.42 38.2946C281.311 37.5133 282.205 36.4363 282.8 34.9775C283.396 33.5367 283.448 32.6158 283.448 31.6612V23.4122H279.121V31.8002C279.121 33.9535 278.124 35.0298 276.109 35.0298C274.095 35.0298 273.096 33.9535 273.096 31.8002V23.4122H268.752V31.6612C268.752 32.1295 268.788 32.6337 268.857 33.1371C268.928 33.6406 269.119 34.2657 269.418 34.9775C269.716 35.7073 270.101 36.3496 270.609 36.8882C271.117 37.4267 271.835 37.895 272.781 38.2946C273.727 38.6942 274.83 38.8846 276.109 38.8846C277.37 38.8846 278.474 38.6942 279.42 38.2946Z" fill="white"/>
<path d="M86.4931 54.9152C87.4803 54.9152 88.3299 54.5554 89.0426 53.8366C89.7546 53.117 90.1107 52.253 90.1107 51.2446C90.1107 50.2362 89.7535 49.3745 89.0384 48.6572C88.3234 47.9407 87.475 47.5825 86.4931 47.5825C85.4462 47.5825 84.5966 47.8791 83.9442 48.4731V44.9023H82.3175V54.731H83.9442V54.0247C84.5966 54.6186 85.4462 54.9152 86.4931 54.9152ZM84.6037 52.7931C84.1638 52.3896 83.9442 51.8745 83.9442 51.2485C83.9442 50.6233 84.1638 50.1082 84.6037 49.7047C85.043 49.3004 85.5838 49.099 86.2262 49.099C86.858 49.099 87.3917 49.3004 87.8286 49.7047C88.2656 50.1082 88.484 50.6233 88.484 51.2485C88.484 51.8745 88.2656 52.3896 87.8286 52.7931C87.3917 53.1974 86.858 53.3987 86.2262 53.3987C85.5838 53.3987 85.043 53.1974 84.6037 52.7931ZM97.7822 48.5933C97.0701 47.9189 96.2235 47.5825 95.241 47.5825C94.1894 47.5825 93.3232 47.9353 92.6442 48.6417C91.9641 49.3472 91.624 50.2167 91.624 51.2485C91.624 52.3349 91.9747 53.2176 92.6761 53.8967C93.377 54.5757 94.265 54.9152 95.339 54.9152C96.2772 54.9152 97.1723 54.7068 98.0249 54.2893L97.1109 53.0062C96.5606 53.2676 95.9749 53.3987 95.3543 53.3987C94.2384 53.3987 93.537 52.9125 93.25 51.9384H98.8509V51.3929C98.8509 50.2003 98.4949 49.2668 97.7822 48.5933ZM97.2077 50.5586H93.2666C93.4124 50.0777 93.6698 49.7141 94.04 49.4674C94.409 49.2216 94.81 49.099 95.241 49.099C95.6726 49.099 96.0717 49.2216 96.4396 49.4674C96.8056 49.7141 97.0619 50.0777 97.2077 50.5586ZM104.491 49.2754V52.0508C104.491 52.5543 104.565 52.9898 104.713 53.359C104.862 53.7281 105.025 53.9966 105.203 54.1652C105.381 54.3338 105.602 54.4649 105.866 54.5585C106.131 54.6522 106.324 54.7045 106.445 54.7147C106.567 54.7255 106.7 54.731 106.846 54.731C107.31 54.731 107.701 54.7147 108.02 54.6826V53.2863C107.873 53.2973 107.663 53.3027 107.389 53.3027C106.541 53.3027 106.118 52.8961 106.118 52.0828V49.2754H108.036V47.7667H106.118V44.9023C105.94 44.9453 105.679 45.0179 105.337 45.1193C104.994 45.2208 104.713 45.2988 104.491 45.3519V47.7667H102.977V49.2754H104.491ZM109.557 51.2446C109.557 52.2639 109.93 53.1302 110.677 53.8444C111.425 54.5585 112.334 54.9152 113.405 54.9152C114.476 54.9152 115.384 54.5585 116.128 53.8444C116.872 53.1302 117.245 52.2639 117.245 51.2446C117.245 50.2261 116.872 49.3613 116.128 48.6495C115.384 47.9385 114.476 47.5825 113.405 47.5825C112.334 47.5825 111.425 47.9385 110.677 48.6495C109.93 49.3613 109.557 50.2261 109.557 51.2446ZM111.184 51.2485C111.184 50.6335 111.399 50.1215 111.831 49.7125C112.262 49.3035 112.788 49.099 113.405 49.099C114.023 49.099 114.548 49.3035 114.979 49.7125C115.41 50.1215 115.626 50.6335 115.626 51.2485C115.626 51.8643 115.41 52.3763 114.979 52.7852C114.548 53.1942 114.023 53.3987 113.405 53.3987C112.788 53.3987 112.262 53.1942 111.831 52.7852C111.399 52.3763 111.184 51.8643 111.184 51.2485ZM124.703 55.5131C124.548 55.7777 124.353 55.9775 124.115 56.1109C123.878 56.2444 123.643 56.3412 123.411 56.3997C123.179 56.4582 122.948 56.4879 122.715 56.4879C121.874 56.4879 121.137 56.2951 120.506 55.9103L119.762 57.1459C120.614 57.7179 121.593 58.0044 122.699 58.0044C123.778 58.0044 124.691 57.6859 125.438 57.049C126.186 56.413 126.56 55.5974 126.56 54.6023V47.7667H124.933V48.4731C124.285 47.8791 123.436 47.5825 122.384 47.5825C121.396 47.5825 120.546 47.9407 119.835 48.6572C119.122 49.3745 118.766 50.2362 118.766 51.2446C118.766 52.253 119.124 53.117 119.839 53.8366C120.554 54.5554 121.401 54.9152 122.384 54.9152C123.43 54.9152 124.28 54.6186 124.933 54.0247V54.5703C124.933 54.9339 124.856 55.2485 124.703 55.5131ZM121.044 52.7931C120.61 52.3896 120.393 51.8745 120.393 51.2485C120.393 50.6233 120.61 50.1082 121.044 49.7047C121.479 49.3004 122.011 49.099 122.643 49.099C123.284 49.099 123.827 49.3004 124.269 49.7047C124.712 50.1082 124.933 50.6233 124.933 51.2485C124.933 51.8745 124.712 52.3896 124.269 52.7931C123.827 53.1974 123.284 53.3987 122.643 53.3987C122.011 53.3987 121.479 53.1974 121.044 52.7931ZM134.563 48.5933C133.851 47.9189 133.004 47.5825 132.022 47.5825C130.969 47.5825 130.104 47.9353 129.424 48.6417C128.744 49.3472 128.405 50.2167 128.405 51.2485C128.405 52.3349 128.755 53.2176 129.457 53.8967C130.158 54.5757 131.045 54.9152 132.119 54.9152C133.057 54.9152 133.954 54.7068 134.806 54.2893L133.891 53.0062C133.341 53.2676 132.755 53.3987 132.135 53.3987C131.018 53.3987 130.317 52.9125 130.031 51.9384H135.631V51.3929C135.631 50.2003 135.275 49.2668 134.563 48.5933ZM133.988 50.5586H130.047C130.192 50.0777 130.45 49.7141 130.82 49.4674C131.189 49.2216 131.59 49.099 132.022 49.099C132.454 49.099 132.853 49.2216 133.22 49.4674C133.586 49.7141 133.843 50.0777 133.988 50.5586ZM138.261 49.2754V52.0508C138.261 52.5543 138.335 52.9898 138.484 53.359C138.632 53.7281 138.795 53.9966 138.973 54.1652C139.152 54.3338 139.373 54.4649 139.637 54.5585C139.901 54.6522 140.094 54.7045 140.215 54.7147C140.337 54.7255 140.47 54.731 140.616 54.731C141.08 54.731 141.471 54.7147 141.79 54.6826V53.2863C141.644 53.2973 141.434 53.3027 141.158 53.3027C140.311 53.3027 139.887 52.8961 139.887 52.0828V49.2754H141.805V47.7667H139.887V44.9023C139.71 44.9453 139.449 45.0179 139.107 45.1193C138.764 45.2208 138.482 45.2988 138.261 45.3519V47.7667H136.748V49.2754H138.261ZM150.271 54.731V50.198C150.271 50.0965 150.265 49.9857 150.254 49.8647C150.243 49.7445 150.188 49.5369 150.088 49.2426C149.988 48.9492 149.848 48.6893 149.667 48.4652C149.487 48.2405 149.202 48.0368 148.814 47.8549C148.425 47.6731 147.966 47.5825 147.438 47.5825C146.489 47.5825 145.771 47.8791 145.286 48.4731V44.9023H143.659V54.731H145.286V50.9683C145.286 50.8239 145.315 50.6561 145.375 50.4664C145.434 50.2768 145.524 50.0723 145.645 49.853C145.767 49.6337 145.954 49.4534 146.204 49.3113C146.455 49.1693 146.74 49.099 147.058 49.099C148.12 49.099 148.652 49.6789 148.652 50.8395V54.731H150.271ZM158.12 48.5933C157.408 47.9189 156.561 47.5825 155.579 47.5825C154.527 47.5825 153.661 47.9353 152.981 48.6417C152.302 49.3472 151.962 50.2167 151.962 51.2485C151.962 52.3349 152.312 53.2176 153.013 53.8967C153.715 54.5757 154.603 54.9152 155.676 54.9152C156.615 54.9152 157.51 54.7068 158.363 54.2893L157.449 53.0062C156.898 53.2676 156.313 53.3987 155.692 53.3987C154.575 53.3987 153.874 52.9125 153.589 51.9384H159.189V51.3929C159.189 50.2003 158.832 49.2668 158.12 48.5933ZM157.546 50.5586H153.604C153.75 50.0777 154.008 49.7141 154.377 49.4674C154.747 49.2216 155.148 49.099 155.579 49.099C156.01 49.099 156.41 49.2216 156.777 49.4674C157.144 49.7141 157.4 50.0777 157.546 50.5586ZM162.531 54.731V52.0188C162.531 51.3609 162.756 50.7263 163.206 50.1137C163.657 49.501 164.287 49.195 165.096 49.195L165.493 49.2426V47.695C165.374 47.684 165.198 47.6785 164.966 47.6785C163.903 47.6785 163.092 48.0797 162.531 48.8821V47.7667H160.904V54.731H162.531Z" fill="white"/>
<path d="M50.6433 9.39258H34.8023L26.881 23.3251L34.8023 37.2568H50.6433L58.5646 23.3251L50.6433 9.39258Z" stroke="white" stroke-width="3.23651"/>
<path d="M50.8325 36.4473H34.9915L27.0702 50.379L34.9915 64.3113H50.8325L58.7538 50.379L50.8325 36.4473Z" stroke="white" stroke-width="3.23651"/>
<path d="M26.7144 22.5156H10.8734L2.95215 36.4481L10.8734 50.3798H26.7144L34.6357 36.4481L26.7144 22.5156Z" stroke="white" stroke-width="3.23651"/>
<path d="M70.6714 0V71.8221H73.0402V0H70.6714Z" fill="white"/>
</svg>
