<svg width="19" height="16" viewBox="0 0 19 16" fill="none" xmlns="http://www.w3.org/2000/svg">
<path d="M9.55748 15.9986C6.7742 15.9986 3.99091 15.9986 1.20763 15.9986C1.07166 15.9986 0.933946 15.9986 0.797399 15.9851C0.100601 15.9229 -0.179524 15.4743 0.117596 14.8678C0.375453 14.3441 0.65675 13.8339 0.929844 13.3158C2.21913 10.8765 3.50841 8.43757 4.79769 5.99901C4.83754 5.92452 4.87915 5.85003 4.92544 5.7789C5.25011 5.28156 5.77754 5.21155 6.19304 5.64056C6.48606 5.94076 6.73395 6.27793 6.99533 6.60333C8.32368 8.26227 9.65203 9.92195 10.9804 11.5824C11.5606 12.3049 12.2913 12.3441 12.9729 11.6944C13.311 11.3718 13.6416 11.0408 13.9838 10.721C14.6009 10.1441 15.3012 10.1788 15.8052 10.8515C16.8167 12.2013 17.803 13.569 18.794 14.9322C18.8715 15.0391 18.9308 15.1571 18.9698 15.2817C19.0659 15.5947 18.93 15.8468 18.5977 15.9302C18.3893 15.9779 18.1755 15.9999 17.9613 15.9958C15.1616 16.0002 12.3603 16.0012 9.55748 15.9986Z" fill="#6937A5"/>
<path d="M15.7994 2.63242C15.7986 3.15307 15.6362 3.6618 15.3326 4.0941C15.029 4.52641 14.5979 4.86282 14.094 5.0607C13.5901 5.25857 13.036 5.309 12.5021 5.20558C11.9682 5.10216 11.4784 4.84956 11.0948 4.47979C10.7113 4.11003 10.4513 3.63975 10.3478 3.12859C10.2442 2.61742 10.3019 2.08839 10.5133 1.60856C10.7248 1.12873 11.0805 0.719704 11.5355 0.433346C11.9905 0.146988 12.5242 -0.00380861 13.069 7.30974e-05C13.7944 0.00888322 14.4872 0.289768 14.9979 0.782177C15.5087 1.27459 15.7965 1.93908 15.7994 2.63242Z" fill="#6937A5"/>
</svg>
